%TF.GenerationSoftware,KiCad,Pcbnew,10.0.5*%
%TF.CreationDate,2026-09-01T03:20:47+02:00*%
%TF.ProjectId,frame-brain,6672616d-652d-4627-9261-696e2e6b6963,rev?*%
%TF.SameCoordinates,Original*%
%TF.FileFunction,Copper,L1,Top*%
%TF.FilePolarity,Positive*%
%FSLAX46Y46*%
G04 Gerber Fmt 4.6, Leading zero omitted, Abs format (unit mm)*
G04 Created by KiCad (PCBNEW 10.0.5) date 2026-09-01 03:20:47*
%MOMM*%
%LPD*%
G01*
G04 APERTURE LIST*
G04 Aperture macros list*
%AMRoundRect*
0 Rectangle with rounded corners*
0 $1 Rounding radius*
0 $2 $3 $4 $5 $6 $7 $8 $9 X,Y pos of 4 corners*
0 Add a 4 corners polygon primitive as box body*
4,1,4,$2,$3,$4,$5,$6,$7,$8,$9,$2,$3,0*
0 Add four circle primitives for the rounded corners*
1,1,$1+$1,$2,$3*
1,1,$1+$1,$4,$5*
1,1,$1+$1,$6,$7*
1,1,$1+$1,$8,$9*
0 Add four rect primitives between the rounded corners*
20,1,$1+$1,$2,$3,$4,$5,0*
20,1,$1+$1,$4,$5,$6,$7,0*
20,1,$1+$1,$6,$7,$8,$9,0*
20,1,$1+$1,$8,$9,$2,$3,0*%
%AMFreePoly0*
4,1,37,0.603843,0.796157,0.639018,0.796157,0.711114,0.766294,0.766294,0.711114,0.796157,0.639018,0.796157,0.603843,0.800000,0.600000,0.800000,-0.600000,0.796157,-0.603843,0.796157,-0.639018,0.766294,-0.711114,0.711114,-0.766294,0.639018,-0.796157,0.603843,-0.796157,0.600000,-0.800000,0.000000,-0.800000,0.000000,-0.796148,-0.078414,-0.796148,-0.232228,-0.765552,-0.377117,-0.705537,
-0.507515,-0.618408,-0.618408,-0.507515,-0.705537,-0.377117,-0.765552,-0.232228,-0.796148,-0.078414,-0.796148,0.078414,-0.765552,0.232228,-0.705537,0.377117,-0.618408,0.507515,-0.507515,0.618408,-0.377117,0.705537,-0.232228,0.765552,-0.078414,0.796148,0.000000,0.796148,0.000000,0.800000,0.600000,0.800000,0.603843,0.796157,0.603843,0.796157,$1*%
%AMFreePoly1*
4,1,37,0.000000,0.796148,0.078414,0.796148,0.232228,0.765552,0.377117,0.705537,0.507515,0.618408,0.618408,0.507515,0.705537,0.377117,0.765552,0.232228,0.796148,0.078414,0.796148,-0.078414,0.765552,-0.232228,0.705537,-0.377117,0.618408,-0.507515,0.507515,-0.618408,0.377117,-0.705537,0.232228,-0.765552,0.078414,-0.796148,0.000000,-0.796148,0.000000,-0.800000,-0.600000,-0.800000,
-0.603843,-0.796157,-0.639018,-0.796157,-0.711114,-0.766294,-0.766294,-0.711114,-0.796157,-0.639018,-0.796157,-0.603843,-0.800000,-0.600000,-0.800000,0.600000,-0.796157,0.603843,-0.796157,0.639018,-0.766294,0.711114,-0.711114,0.766294,-0.639018,0.796157,-0.603843,0.796157,-0.600000,0.800000,0.000000,0.800000,0.000000,0.796148,0.000000,0.796148,$1*%
G04 Aperture macros list end*
%TA.AperFunction,ComponentPad*%
%ADD10RoundRect,0.250000X-0.550000X0.550000X-0.550000X-0.550000X0.550000X-0.550000X0.550000X0.550000X0*%
%TD*%
%TA.AperFunction,ComponentPad*%
%ADD11C,1.600000*%
%TD*%
%TA.AperFunction,ComponentPad*%
%ADD12RoundRect,0.250000X-0.750000X-0.750000X0.750000X-0.750000X0.750000X0.750000X-0.750000X0.750000X0*%
%TD*%
%TA.AperFunction,ComponentPad*%
%ADD13C,2.000000*%
%TD*%
%TA.AperFunction,ComponentPad*%
%ADD14RoundRect,0.249999X-0.850001X0.850001X-0.850001X-0.850001X0.850001X-0.850001X0.850001X0.850001X0*%
%TD*%
%TA.AperFunction,ComponentPad*%
%ADD15C,2.200000*%
%TD*%
%TA.AperFunction,ComponentPad*%
%ADD16RoundRect,0.200000X0.600000X-0.600000X0.600000X0.600000X-0.600000X0.600000X-0.600000X-0.600000X0*%
%TD*%
%TA.AperFunction,ComponentPad*%
%ADD17FreePoly0,90.000000*%
%TD*%
%TA.AperFunction,ComponentPad*%
%ADD18FreePoly1,90.000000*%
%TD*%
%TA.AperFunction,ComponentPad*%
%ADD19C,1.710000*%
%TD*%
%TA.AperFunction,ComponentPad*%
%ADD20RoundRect,0.250000X-1.050000X-1.050000X1.050000X-1.050000X1.050000X1.050000X-1.050000X1.050000X0*%
%TD*%
%TA.AperFunction,ComponentPad*%
%ADD21C,2.600000*%
%TD*%
%TA.AperFunction,ComponentPad*%
%ADD22R,1.800000X1.800000*%
%TD*%
%TA.AperFunction,ComponentPad*%
%ADD23C,1.800000*%
%TD*%
%TA.AperFunction,ViaPad*%
%ADD24C,0.800000*%
%TD*%
%TA.AperFunction,Conductor*%
%ADD25C,1.000000*%
%TD*%
%TA.AperFunction,Conductor*%
%ADD26C,0.800000*%
%TD*%
%TA.AperFunction,Conductor*%
%ADD27C,0.500000*%
%TD*%
G04 APERTURE END LIST*
D10*
%TO.P,U2,1*%
%TO.N,GND*%
X155240000Y-132880000D03*
D11*
%TO.P,U2,2*%
%TO.N,/GP5*%
X152700000Y-132880000D03*
%TO.P,U2,3*%
%TO.N,/D_Y*%
X150160000Y-132880000D03*
%TO.P,U2,4*%
%TO.N,GND*%
X147620000Y-132880000D03*
%TO.P,U2,5*%
%TO.N,/GP4*%
X145080000Y-132880000D03*
%TO.P,U2,6*%
%TO.N,/C_Y*%
X142540000Y-132880000D03*
%TO.P,U2,7*%
%TO.N,GND*%
X140000000Y-132880000D03*
%TO.P,U2,8*%
%TO.N,/A_Y*%
X140000000Y-140500000D03*
%TO.P,U2,9*%
%TO.N,/GP2*%
X142540000Y-140500000D03*
%TO.P,U2,10*%
%TO.N,GND*%
X145080000Y-140500000D03*
%TO.P,U2,11*%
%TO.N,/B_Y*%
X147620000Y-140500000D03*
%TO.P,U2,12*%
%TO.N,/GP3*%
X150160000Y-140500000D03*
%TO.P,U2,13*%
%TO.N,GND*%
X152700000Y-140500000D03*
%TO.P,U2,14*%
%TO.N,/+5V*%
X155240000Y-140500000D03*
%TD*%
D12*
%TO.P,C1,1*%
%TO.N,/+5V*%
X127000000Y-146000000D03*
D13*
%TO.P,C1,2*%
%TO.N,GND*%
X132000000Y-146000000D03*
%TD*%
D14*
%TO.P,D2,1*%
%TO.N,/+5V*%
X108500000Y-131500000D03*
D15*
%TO.P,D2,2*%
%TO.N,GND*%
X108500000Y-141660000D03*
%TD*%
D11*
%TO.P,R4,1*%
%TO.N,/D_Y*%
X161500000Y-153000000D03*
%TO.P,R4,2*%
%TO.N,/DATA_D*%
X171660000Y-153000000D03*
%TD*%
D14*
%TO.P,D1,1*%
%TO.N,/VSYS*%
X104500000Y-131500000D03*
D15*
%TO.P,D1,2*%
%TO.N,/+5V*%
X104500000Y-141660000D03*
%TD*%
D11*
%TO.P,C2,1*%
%TO.N,/+5V*%
X158300000Y-140500000D03*
%TO.P,C2,2*%
%TO.N,GND*%
X163300000Y-140500000D03*
%TD*%
D16*
%TO.P,U1,1*%
%TO.N,unconnected-(U1-GPIO0-Pad1)*%
X111000000Y-127000000D03*
D11*
%TO.P,U1,2*%
%TO.N,unconnected-(U1-GPIO1-Pad2)*%
X113540000Y-127000000D03*
D17*
%TO.P,U1,3*%
%TO.N,GND*%
X116080000Y-127000000D03*
D11*
%TO.P,U1,4*%
%TO.N,/GP2*%
X118620000Y-127000000D03*
%TO.P,U1,5*%
%TO.N,/GP3*%
X121160000Y-127000000D03*
%TO.P,U1,6*%
%TO.N,/GP4*%
X123700000Y-127000000D03*
%TO.P,U1,7*%
%TO.N,/GP5*%
X126240000Y-127000000D03*
D17*
%TO.P,U1,8*%
%TO.N,GND*%
X128780000Y-127000000D03*
D11*
%TO.P,U1,9*%
%TO.N,unconnected-(U1-GPIO6-Pad9)*%
X131320000Y-127000000D03*
%TO.P,U1,10*%
%TO.N,unconnected-(U1-GPIO7-Pad10)*%
X133860000Y-127000000D03*
%TO.P,U1,11*%
%TO.N,unconnected-(U1-GPIO8-Pad11)*%
X136400000Y-127000000D03*
%TO.P,U1,12*%
%TO.N,unconnected-(U1-GPIO9-Pad12)*%
X138940000Y-127000000D03*
D17*
%TO.P,U1,13*%
%TO.N,GND*%
X141480000Y-127000000D03*
D11*
%TO.P,U1,14*%
%TO.N,unconnected-(U1-GPIO10-Pad14)*%
X144020000Y-127000000D03*
%TO.P,U1,15*%
%TO.N,unconnected-(U1-GPIO11-Pad15)*%
X146560000Y-127000000D03*
%TO.P,U1,16*%
%TO.N,unconnected-(U1-GPIO12-Pad16)*%
X149100000Y-127000000D03*
%TO.P,U1,17*%
%TO.N,unconnected-(U1-GPIO13-Pad17)*%
X151640000Y-127000000D03*
D17*
%TO.P,U1,18*%
%TO.N,GND*%
X154180000Y-127000000D03*
D11*
%TO.P,U1,19*%
%TO.N,unconnected-(U1-GPIO14-Pad19)*%
X156720000Y-127000000D03*
%TO.P,U1,20*%
%TO.N,unconnected-(U1-GPIO15-Pad20)*%
X159260000Y-127000000D03*
%TO.P,U1,21*%
%TO.N,unconnected-(U1-GPIO16-Pad21)*%
X159260000Y-109220000D03*
%TO.P,U1,22*%
%TO.N,unconnected-(U1-GPIO17-Pad22)*%
X156720000Y-109220000D03*
D18*
%TO.P,U1,23*%
%TO.N,GND*%
X154180000Y-109220000D03*
D11*
%TO.P,U1,24*%
%TO.N,unconnected-(U1-GPIO18-Pad24)*%
X151640000Y-109220000D03*
%TO.P,U1,25*%
%TO.N,unconnected-(U1-GPIO19-Pad25)*%
X149100000Y-109220000D03*
%TO.P,U1,26*%
%TO.N,unconnected-(U1-GPIO20-Pad26)*%
X146560000Y-109220000D03*
%TO.P,U1,27*%
%TO.N,unconnected-(U1-GPIO21-Pad27)*%
X144020000Y-109220000D03*
D18*
%TO.P,U1,28*%
%TO.N,GND*%
X141480000Y-109220000D03*
D11*
%TO.P,U1,29*%
%TO.N,unconnected-(U1-GPIO22-Pad29)*%
X138940000Y-109220000D03*
%TO.P,U1,30*%
%TO.N,/RUN*%
X136400000Y-109220000D03*
%TO.P,U1,31*%
%TO.N,unconnected-(U1-GPIO26_ADC0-Pad31)*%
X133860000Y-109220000D03*
%TO.P,U1,32*%
%TO.N,unconnected-(U1-GPIO27_ADC1-Pad32)*%
X131320000Y-109220000D03*
D18*
%TO.P,U1,33*%
%TO.N,GND*%
X128780000Y-109220000D03*
D11*
%TO.P,U1,34*%
%TO.N,unconnected-(U1-GPIO28_ADC2-Pad34)*%
X126240000Y-109220000D03*
%TO.P,U1,35*%
%TO.N,unconnected-(U1-ADC_VREF-Pad35)*%
X123700000Y-109220000D03*
%TO.P,U1,36*%
%TO.N,unconnected-(U1-3V3-Pad36)*%
X121160000Y-109220000D03*
%TO.P,U1,37*%
%TO.N,unconnected-(U1-3V3_EN-Pad37)*%
X118620000Y-109220000D03*
D18*
%TO.P,U1,38*%
%TO.N,GND*%
X116080000Y-109220000D03*
D11*
%TO.P,U1,39*%
%TO.N,/VSYS*%
X113540000Y-109220000D03*
%TO.P,U1,40*%
%TO.N,unconnected-(U1-VBUS-Pad40)*%
X111000000Y-109220000D03*
%TD*%
%TO.P,R2,1*%
%TO.N,/B_Y*%
X136500000Y-153000000D03*
%TO.P,R2,2*%
%TO.N,/DATA_B*%
X146660000Y-153000000D03*
%TD*%
%TO.P,R3,1*%
%TO.N,/C_Y*%
X149000000Y-153000000D03*
%TO.P,R3,2*%
%TO.N,/DATA_C*%
X159160000Y-153000000D03*
%TD*%
D19*
%TO.P,F1,1*%
%TO.N,/5V_IN*%
X108000000Y-147000000D03*
%TO.P,F1,2*%
%TO.N,/+5V*%
X113100000Y-148200000D03*
%TD*%
D20*
%TO.P,J4,1*%
%TO.N,/DATA_C*%
X151000000Y-160500000D03*
D21*
%TO.P,J4,2*%
%TO.N,GND*%
X156080000Y-160500000D03*
%TD*%
D11*
%TO.P,R5,1*%
%TO.N,/+5V*%
X177000000Y-110000000D03*
%TO.P,R5,2*%
%TO.N,/LED_A*%
X177000000Y-120160000D03*
%TD*%
D20*
%TO.P,J3,1*%
%TO.N,/DATA_B*%
X137660000Y-160500000D03*
D21*
%TO.P,J3,2*%
%TO.N,GND*%
X142740000Y-160500000D03*
%TD*%
D20*
%TO.P,J5,1*%
%TO.N,/DATA_D*%
X164329999Y-160500000D03*
D21*
%TO.P,J5,2*%
%TO.N,GND*%
X169409999Y-160500000D03*
%TD*%
D22*
%TO.P,D3,1*%
%TO.N,GND*%
X177000000Y-126000000D03*
D23*
%TO.P,D3,2*%
%TO.N,/LED_A*%
X177000000Y-123460000D03*
%TD*%
D13*
%TO.P,SW1,1*%
%TO.N,/RUN*%
X164000000Y-112000000D03*
X170500000Y-112000000D03*
%TO.P,SW1,2*%
%TO.N,GND*%
X164000000Y-116500000D03*
X170500000Y-116500000D03*
%TD*%
D20*
%TO.P,J1,1*%
%TO.N,/5V_IN*%
X111000000Y-160500000D03*
D21*
%TO.P,J1,2*%
%TO.N,GND*%
X116080000Y-160500000D03*
%TD*%
D11*
%TO.P,R1,1*%
%TO.N,/A_Y*%
X120000000Y-153000000D03*
%TO.P,R1,2*%
%TO.N,/DATA_A*%
X130160000Y-153000000D03*
%TD*%
D20*
%TO.P,J2,1*%
%TO.N,/DATA_A*%
X124330000Y-160500000D03*
D21*
%TO.P,J2,2*%
%TO.N,GND*%
X129410000Y-160500000D03*
%TD*%
D24*
%TO.N,/+5V*%
X157300000Y-130900000D03*
%TO.N,/A_Y*%
X137800000Y-145000000D03*
X130600000Y-147900000D03*
%TO.N,/GP3*%
X121860000Y-143800000D03*
%TD*%
%TO.N,/+5V*%
D25*
X127000000Y-146000000D02*
X129000000Y-144000000D01*
X129000000Y-132400000D02*
X130500000Y-130900000D01*
X130500000Y-130900000D02*
X157300000Y-130900000D01*
X104500000Y-141660000D02*
X104500000Y-142900000D01*
D26*
X173700000Y-113700000D02*
X177000000Y-110400000D01*
D25*
X113100000Y-146000000D02*
X127000000Y-146000000D01*
X113100000Y-131500000D02*
X108500000Y-131500000D01*
X129000000Y-144000000D02*
X129000000Y-132400000D01*
X113100000Y-148200000D02*
X113100000Y-131500000D01*
D26*
X177000000Y-110400000D02*
X177000000Y-110000000D01*
X173700000Y-116400000D02*
X173700000Y-113700000D01*
X169100000Y-121000000D02*
X173700000Y-116400000D01*
D25*
X105500000Y-143900000D02*
X113100000Y-143900000D01*
X104500000Y-142900000D02*
X105500000Y-143900000D01*
D26*
X157300000Y-130900000D02*
X163000000Y-130900000D01*
X163000000Y-130900000D02*
X169100000Y-124800000D01*
X169100000Y-124800000D02*
X169100000Y-121000000D01*
%TO.N,/5V_IN*%
D25*
X111000000Y-160500000D02*
X111000000Y-156000000D01*
X111000000Y-156000000D02*
X108000000Y-153000000D01*
X108000000Y-153000000D02*
X108000000Y-147000000D01*
%TO.N,/A_Y*%
D27*
X137800000Y-143600000D02*
X137800000Y-145000000D01*
X125500000Y-153000000D02*
X120000000Y-153000000D01*
X140000000Y-140500000D02*
X140000000Y-141400000D01*
X140000000Y-141400000D02*
X137800000Y-143600000D01*
X130600000Y-147900000D02*
X125500000Y-153000000D01*
%TO.N,/B_Y*%
X144520000Y-148000000D02*
X139700000Y-148000000D01*
X147620000Y-144900000D02*
X144520000Y-148000000D01*
X147620000Y-140500000D02*
X147620000Y-144900000D01*
X139700000Y-148000000D02*
X136500000Y-151200000D01*
X136500000Y-151200000D02*
X136500000Y-153000000D01*
%TO.N,/C_Y*%
X156600000Y-142300000D02*
X154000000Y-144900000D01*
X143900000Y-137500000D02*
X156600000Y-137500000D01*
X143900000Y-134240000D02*
X143900000Y-137500000D01*
X149000000Y-145900000D02*
X149000000Y-153000000D01*
X154000000Y-144900000D02*
X150000000Y-144900000D01*
X142540000Y-132880000D02*
X143900000Y-134240000D01*
X150000000Y-144900000D02*
X149000000Y-145900000D01*
X156600000Y-137500000D02*
X156600000Y-142300000D01*
%TO.N,/DATA_A*%
X130160000Y-154670000D02*
X124330000Y-160500000D01*
X130160000Y-153000000D02*
X130160000Y-154670000D01*
%TO.N,/DATA_B*%
X146660000Y-154400000D02*
X144200000Y-156860000D01*
X146660000Y-153000000D02*
X146660000Y-154400000D01*
X144200000Y-156860000D02*
X141300000Y-156860000D01*
X141300000Y-156860000D02*
X137660000Y-160500000D01*
%TO.N,/DATA_C*%
X159160000Y-153000000D02*
X159160000Y-153840000D01*
X154500000Y-158500000D02*
X151000000Y-158500000D01*
X151000000Y-158500000D02*
X151000000Y-160500000D01*
X159160000Y-153840000D02*
X154500000Y-158500000D01*
%TO.N,/DATA_D*%
X171660000Y-153000000D02*
X171660000Y-153840000D01*
X167000000Y-158500000D02*
X164329999Y-158500000D01*
X164329999Y-158500000D02*
X164329999Y-160500000D01*
X171660000Y-153840000D02*
X167000000Y-158500000D01*
%TO.N,/D_Y*%
X163000000Y-143900000D02*
X163000000Y-151500000D01*
X151460000Y-134180000D02*
X151460000Y-135800000D01*
X163000000Y-151500000D02*
X161500000Y-153000000D01*
X159700000Y-143900000D02*
X163000000Y-143900000D01*
X159700000Y-138600000D02*
X159700000Y-143900000D01*
X150160000Y-132880000D02*
X151460000Y-134180000D01*
X151460000Y-135800000D02*
X156900000Y-135800000D01*
X156900000Y-135800000D02*
X159700000Y-138600000D01*
%TO.N,/GP3*%
X121160000Y-143100000D02*
X121860000Y-143800000D01*
X121160000Y-127000000D02*
X121160000Y-143100000D01*
%TO.N,/LED_A*%
X177000000Y-120160000D02*
X177000000Y-123460000D01*
%TO.N,/RUN*%
X164000000Y-110500000D02*
X164000000Y-112000000D01*
X164000000Y-112000000D02*
X170500000Y-112000000D01*
X136400000Y-109220000D02*
X136400000Y-106500000D01*
X136400000Y-106500000D02*
X160000000Y-106500000D01*
X160000000Y-106500000D02*
X164000000Y-110500000D01*
%TO.N,/VSYS*%
D25*
X104500000Y-108500000D02*
X106900000Y-106100000D01*
X113539999Y-106100000D02*
X113539999Y-109220000D01*
X106900000Y-106100000D02*
X113539999Y-106100000D01*
X104500000Y-131500000D02*
X104500000Y-108500000D01*
%TD*%
%TA.AperFunction,Conductor*%
%TO.N,GND*%
G36*
X147220000Y-132932661D02*
G01*
X147247259Y-133034394D01*
X147299920Y-133125606D01*
X147374394Y-133200080D01*
X147465606Y-133252741D01*
X147567339Y-133280000D01*
X147573553Y-133280000D01*
X146894076Y-133959474D01*
X146938650Y-133991859D01*
X147120968Y-134084755D01*
X147315582Y-134147990D01*
X147517683Y-134180000D01*
X147722317Y-134180000D01*
X147924417Y-134147990D01*
X148119031Y-134084755D01*
X148301349Y-133991859D01*
X148345921Y-133959474D01*
X147666447Y-133280000D01*
X147672661Y-133280000D01*
X147774394Y-133252741D01*
X147865606Y-133200080D01*
X147940080Y-133125606D01*
X147992741Y-133034394D01*
X148020000Y-132932661D01*
X148020000Y-132926447D01*
X148699474Y-133605921D01*
X148731859Y-133561349D01*
X148824755Y-133379029D01*
X148876952Y-133218386D01*
X148916389Y-133160710D01*
X148980748Y-133133512D01*
X149049594Y-133145427D01*
X149101070Y-133192671D01*
X149112814Y-133218385D01*
X149140128Y-133302449D01*
X149194926Y-133409996D01*
X149218768Y-133456788D01*
X149320586Y-133596928D01*
X149443072Y-133719414D01*
X149583212Y-133821232D01*
X149737555Y-133899873D01*
X149902299Y-133953402D01*
X150073389Y-133980500D01*
X150073390Y-133980500D01*
X150246610Y-133980500D01*
X150246611Y-133980500D01*
X150387393Y-133958202D01*
X150456684Y-133967156D01*
X150494470Y-133992994D01*
X150873181Y-134371705D01*
X150906666Y-134433028D01*
X150909500Y-134459386D01*
X150909500Y-135872475D01*
X150947016Y-136012485D01*
X150947017Y-136012488D01*
X151019488Y-136138011D01*
X151019490Y-136138013D01*
X151019491Y-136138015D01*
X151121985Y-136240509D01*
X151121986Y-136240510D01*
X151121988Y-136240511D01*
X151247511Y-136312982D01*
X151247512Y-136312982D01*
X151247515Y-136312984D01*
X151387525Y-136350500D01*
X151532475Y-136350500D01*
X156620613Y-136350500D01*
X156687652Y-136370185D01*
X156708294Y-136386819D01*
X159113181Y-138791706D01*
X159146666Y-138853029D01*
X159149500Y-138879387D01*
X159149500Y-139513541D01*
X159129815Y-139580580D01*
X159077011Y-139626335D01*
X159007853Y-139636279D01*
X158952615Y-139613859D01*
X158876791Y-139558770D01*
X158876790Y-139558769D01*
X158876788Y-139558768D01*
X158722445Y-139480127D01*
X158557701Y-139426598D01*
X158557699Y-139426597D01*
X158557698Y-139426597D01*
X158426271Y-139405781D01*
X158386611Y-139399500D01*
X158213389Y-139399500D01*
X158173728Y-139405781D01*
X158042302Y-139426597D01*
X157877552Y-139480128D01*
X157723211Y-139558768D01*
X157656528Y-139607217D01*
X157583072Y-139660586D01*
X157583070Y-139660588D01*
X157583069Y-139660588D01*
X157460587Y-139783070D01*
X157374818Y-139901121D01*
X157319487Y-139943786D01*
X157249874Y-139949765D01*
X157188079Y-139917159D01*
X157153722Y-139856320D01*
X157150500Y-139828235D01*
X157150500Y-137427527D01*
X157150500Y-137427525D01*
X157112984Y-137287515D01*
X157040509Y-137161985D01*
X156938015Y-137059491D01*
X156938013Y-137059490D01*
X156938011Y-137059488D01*
X156812488Y-136987017D01*
X156812489Y-136987017D01*
X156801006Y-136983940D01*
X156672475Y-136949500D01*
X156672472Y-136949500D01*
X144574500Y-136949500D01*
X144507461Y-136929815D01*
X144461706Y-136877011D01*
X144450500Y-136825500D01*
X144450500Y-134167527D01*
X144450500Y-134167525D01*
X144412984Y-134027515D01*
X144412983Y-134027513D01*
X144409873Y-134020005D01*
X144412612Y-134018870D01*
X144399477Y-133964785D01*
X144422313Y-133898752D01*
X144477224Y-133855549D01*
X144546776Y-133848890D01*
X144579632Y-133860169D01*
X144657555Y-133899873D01*
X144822299Y-133953402D01*
X144993389Y-133980500D01*
X144993390Y-133980500D01*
X145166610Y-133980500D01*
X145166611Y-133980500D01*
X145337701Y-133953402D01*
X145502445Y-133899873D01*
X145656788Y-133821232D01*
X145796928Y-133719414D01*
X145919414Y-133596928D01*
X146021232Y-133456788D01*
X146099873Y-133302445D01*
X146127186Y-133218384D01*
X146166622Y-133160711D01*
X146230981Y-133133512D01*
X146299827Y-133145427D01*
X146351303Y-133192671D01*
X146363047Y-133218385D01*
X146415244Y-133379031D01*
X146508141Y-133561350D01*
X146508147Y-133561359D01*
X146540523Y-133605921D01*
X146540524Y-133605922D01*
X147220000Y-132926446D01*
X147220000Y-132932661D01*
G37*
%TD.AperFunction*%
%TA.AperFunction,Conductor*%
G36*
X146834846Y-131720185D02*
G01*
X146880601Y-131772989D01*
X146883619Y-131790066D01*
X147573554Y-132480000D01*
X147567339Y-132480000D01*
X147465606Y-132507259D01*
X147374394Y-132559920D01*
X147299920Y-132634394D01*
X147247259Y-132725606D01*
X147220000Y-132827339D01*
X147220000Y-132833553D01*
X146540524Y-132154077D01*
X146540523Y-132154077D01*
X146508143Y-132198644D01*
X146415244Y-132380968D01*
X146363047Y-132541614D01*
X146323609Y-132599289D01*
X146259250Y-132626487D01*
X146190404Y-132614572D01*
X146138928Y-132567328D01*
X146127186Y-132541615D01*
X146099873Y-132457555D01*
X146021232Y-132303212D01*
X145919414Y-132163072D01*
X145796928Y-132040586D01*
X145726858Y-131989677D01*
X145656786Y-131938766D01*
X145649364Y-131934985D01*
X145598568Y-131887011D01*
X145581772Y-131819190D01*
X145604309Y-131753055D01*
X145659024Y-131709603D01*
X145705658Y-131700500D01*
X146767807Y-131700500D01*
X146834846Y-131720185D01*
G37*
%TD.AperFunction*%
%TA.AperFunction,Conductor*%
G36*
X141981381Y-131720185D02*
G01*
X142027136Y-131772989D01*
X142037080Y-131842147D01*
X142008055Y-131905703D01*
X141970636Y-131934985D01*
X141963213Y-131938766D01*
X141865174Y-132009996D01*
X141823072Y-132040586D01*
X141823070Y-132040588D01*
X141823069Y-132040588D01*
X141700588Y-132163069D01*
X141700588Y-132163070D01*
X141700586Y-132163072D01*
X141674737Y-132198650D01*
X141598768Y-132303211D01*
X141520129Y-132457549D01*
X141520127Y-132457554D01*
X141520127Y-132457555D01*
X141503977Y-132507259D01*
X141492814Y-132541615D01*
X141453375Y-132599290D01*
X141389016Y-132626487D01*
X141320170Y-132614572D01*
X141268695Y-132567327D01*
X141256952Y-132541613D01*
X141204755Y-132380970D01*
X141111859Y-132198650D01*
X141079474Y-132154077D01*
X141079474Y-132154076D01*
X140400000Y-132833551D01*
X140400000Y-132827339D01*
X140372741Y-132725606D01*
X140320080Y-132634394D01*
X140245606Y-132559920D01*
X140154394Y-132507259D01*
X140052661Y-132480000D01*
X140046446Y-132480000D01*
X140738244Y-131788202D01*
X140742941Y-131765849D01*
X140791993Y-131716094D01*
X140852193Y-131700500D01*
X141914342Y-131700500D01*
X141981381Y-131720185D01*
G37*
%TD.AperFunction*%
%TA.AperFunction,Conductor*%
G36*
X149601381Y-131720185D02*
G01*
X149647136Y-131772989D01*
X149657080Y-131842147D01*
X149628055Y-131905703D01*
X149590636Y-131934985D01*
X149583213Y-131938766D01*
X149485174Y-132009996D01*
X149443072Y-132040586D01*
X149443070Y-132040588D01*
X149443069Y-132040588D01*
X149320588Y-132163069D01*
X149320588Y-132163070D01*
X149320586Y-132163072D01*
X149294737Y-132198650D01*
X149218768Y-132303211D01*
X149140129Y-132457549D01*
X149140127Y-132457554D01*
X149140127Y-132457555D01*
X149123977Y-132507259D01*
X149112814Y-132541615D01*
X149073375Y-132599290D01*
X149009016Y-132626487D01*
X148940170Y-132614572D01*
X148888695Y-132567327D01*
X148876952Y-132541613D01*
X148824755Y-132380970D01*
X148731859Y-132198650D01*
X148699474Y-132154077D01*
X148699474Y-132154076D01*
X148020000Y-132833551D01*
X148020000Y-132827339D01*
X147992741Y-132725606D01*
X147940080Y-132634394D01*
X147865606Y-132559920D01*
X147774394Y-132507259D01*
X147672661Y-132480000D01*
X147666446Y-132480000D01*
X148358244Y-131788202D01*
X148362941Y-131765849D01*
X148411993Y-131716094D01*
X148472193Y-131700500D01*
X149534342Y-131700500D01*
X149601381Y-131720185D01*
G37*
%TD.AperFunction*%
%TA.AperFunction,Conductor*%
G36*
X179442539Y-100520185D02*
G01*
X179488294Y-100572989D01*
X179499500Y-100624500D01*
X179499500Y-167375500D01*
X179479815Y-167442539D01*
X179427011Y-167488294D01*
X179375500Y-167499500D01*
X100624500Y-167499500D01*
X100557461Y-167479815D01*
X100511706Y-167427011D01*
X100500500Y-167375500D01*
X100500500Y-163878711D01*
X102149500Y-163878711D01*
X102149500Y-164121288D01*
X102181161Y-164361785D01*
X102243947Y-164596104D01*
X102336773Y-164820205D01*
X102336776Y-164820212D01*
X102458064Y-165030289D01*
X102458066Y-165030292D01*
X102458067Y-165030293D01*
X102605733Y-165222736D01*
X102605739Y-165222743D01*
X102777256Y-165394260D01*
X102777262Y-165394265D01*
X102969711Y-165541936D01*
X103179788Y-165663224D01*
X103403900Y-165756054D01*
X103638211Y-165818838D01*
X103818586Y-165842584D01*
X103878711Y-165850500D01*
X103878712Y-165850500D01*
X104121289Y-165850500D01*
X104169388Y-165844167D01*
X104361789Y-165818838D01*
X104596100Y-165756054D01*
X104820212Y-165663224D01*
X105030289Y-165541936D01*
X105222738Y-165394265D01*
X105394265Y-165222738D01*
X105541936Y-165030289D01*
X105663224Y-164820212D01*
X105756054Y-164596100D01*
X105818838Y-164361789D01*
X105850500Y-164121288D01*
X105850500Y-163878712D01*
X105850500Y-163878711D01*
X175149500Y-163878711D01*
X175149500Y-164121288D01*
X175181161Y-164361785D01*
X175243947Y-164596104D01*
X175336773Y-164820205D01*
X175336776Y-164820212D01*
X175458064Y-165030289D01*
X175458066Y-165030292D01*
X175458067Y-165030293D01*
X175605733Y-165222736D01*
X175605739Y-165222743D01*
X175777256Y-165394260D01*
X175777262Y-165394265D01*
X175969711Y-165541936D01*
X176179788Y-165663224D01*
X176403900Y-165756054D01*
X176638211Y-165818838D01*
X176818586Y-165842584D01*
X176878711Y-165850500D01*
X176878712Y-165850500D01*
X177121289Y-165850500D01*
X177169388Y-165844167D01*
X177361789Y-165818838D01*
X177596100Y-165756054D01*
X177820212Y-165663224D01*
X178030289Y-165541936D01*
X178222738Y-165394265D01*
X178394265Y-165222738D01*
X178541936Y-165030289D01*
X178663224Y-164820212D01*
X178756054Y-164596100D01*
X178818838Y-164361789D01*
X178850500Y-164121288D01*
X178850500Y-163878712D01*
X178818838Y-163638211D01*
X178756054Y-163403900D01*
X178663224Y-163179788D01*
X178541936Y-162969711D01*
X178394265Y-162777262D01*
X178394260Y-162777256D01*
X178222743Y-162605739D01*
X178222736Y-162605733D01*
X178030293Y-162458067D01*
X178030292Y-162458066D01*
X178030289Y-162458064D01*
X177820212Y-162336776D01*
X177731427Y-162300000D01*
X177596104Y-162243947D01*
X177361785Y-162181161D01*
X177121289Y-162149500D01*
X177121288Y-162149500D01*
X176878712Y-162149500D01*
X176878711Y-162149500D01*
X176638214Y-162181161D01*
X176403895Y-162243947D01*
X176179794Y-162336773D01*
X176179785Y-162336777D01*
X175969706Y-162458067D01*
X175777263Y-162605733D01*
X175777256Y-162605739D01*
X175605739Y-162777256D01*
X175605733Y-162777263D01*
X175458067Y-162969706D01*
X175336777Y-163179785D01*
X175336773Y-163179794D01*
X175243947Y-163403895D01*
X175181161Y-163638214D01*
X175149500Y-163878711D01*
X105850500Y-163878711D01*
X105818838Y-163638211D01*
X105756054Y-163403900D01*
X105663224Y-163179788D01*
X105541936Y-162969711D01*
X105394265Y-162777262D01*
X105394260Y-162777256D01*
X105222743Y-162605739D01*
X105222736Y-162605733D01*
X105030293Y-162458067D01*
X105030292Y-162458066D01*
X105030289Y-162458064D01*
X104820212Y-162336776D01*
X104731427Y-162300000D01*
X104596104Y-162243947D01*
X104361785Y-162181161D01*
X104121289Y-162149500D01*
X104121288Y-162149500D01*
X103878712Y-162149500D01*
X103878711Y-162149500D01*
X103638214Y-162181161D01*
X103403895Y-162243947D01*
X103179794Y-162336773D01*
X103179785Y-162336777D01*
X102969706Y-162458067D01*
X102777263Y-162605733D01*
X102777256Y-162605739D01*
X102605739Y-162777256D01*
X102605733Y-162777263D01*
X102458067Y-162969706D01*
X102336777Y-163179785D01*
X102336773Y-163179794D01*
X102243947Y-163403895D01*
X102181161Y-163638214D01*
X102149500Y-163878711D01*
X100500500Y-163878711D01*
X100500500Y-146909054D01*
X106844500Y-146909054D01*
X106844500Y-147090945D01*
X106872951Y-147270580D01*
X106929157Y-147443562D01*
X106976326Y-147536134D01*
X106992658Y-147568188D01*
X107011730Y-147605617D01*
X107118628Y-147752751D01*
X107118632Y-147752756D01*
X107163181Y-147797305D01*
X107196666Y-147858628D01*
X107199500Y-147884986D01*
X107199500Y-153078846D01*
X107230261Y-153233489D01*
X107230264Y-153233501D01*
X107290602Y-153379172D01*
X107290609Y-153379185D01*
X107378210Y-153510288D01*
X107378213Y-153510292D01*
X110163181Y-156295259D01*
X110196666Y-156356582D01*
X110199500Y-156382940D01*
X110199500Y-158775500D01*
X110179815Y-158842539D01*
X110127011Y-158888294D01*
X110075500Y-158899500D01*
X109906898Y-158899500D01*
X109867853Y-158904188D01*
X109818438Y-158910122D01*
X109677656Y-158965639D01*
X109557077Y-159057077D01*
X109465639Y-159177656D01*
X109410122Y-159318438D01*
X109404188Y-159367853D01*
X109399500Y-159406898D01*
X109399500Y-161593102D01*
X109405126Y-161639954D01*
X109410122Y-161681561D01*
X109465639Y-161822343D01*
X109557077Y-161942922D01*
X109677656Y-162034360D01*
X109677657Y-162034360D01*
X109677658Y-162034361D01*
X109818436Y-162089877D01*
X109906898Y-162100500D01*
X109906903Y-162100500D01*
X112093097Y-162100500D01*
X112093102Y-162100500D01*
X112181564Y-162089877D01*
X112322342Y-162034361D01*
X112442922Y-161942922D01*
X112534361Y-161822342D01*
X112589877Y-161681564D01*
X112600500Y-161593102D01*
X112600500Y-160382014D01*
X114280000Y-160382014D01*
X114280000Y-160617985D01*
X114310799Y-160851914D01*
X114371870Y-161079837D01*
X114462160Y-161297819D01*
X114462165Y-161297828D01*
X114580144Y-161502171D01*
X114580145Y-161502172D01*
X114642721Y-161583723D01*
X115478958Y-160747487D01*
X115503978Y-160807890D01*
X115575112Y-160914351D01*
X115665649Y-161004888D01*
X115772110Y-161076022D01*
X115832511Y-161101041D01*
X114996275Y-161937277D01*
X115077827Y-161999854D01*
X115077828Y-161999855D01*
X115282171Y-162117834D01*
X115282180Y-162117839D01*
X115500163Y-162208129D01*
X115500161Y-162208129D01*
X115728085Y-162269200D01*
X115962014Y-162299999D01*
X115962029Y-162300000D01*
X116197971Y-162300000D01*
X116197985Y-162299999D01*
X116431914Y-162269200D01*
X116659837Y-162208129D01*
X116877819Y-162117839D01*
X116877828Y-162117834D01*
X117082181Y-161999850D01*
X117163723Y-161937279D01*
X117163723Y-161937276D01*
X116327487Y-161101041D01*
X116387890Y-161076022D01*
X116494351Y-161004888D01*
X116584888Y-160914351D01*
X116656022Y-160807890D01*
X116681041Y-160747488D01*
X117517276Y-161583723D01*
X117517279Y-161583723D01*
X117579850Y-161502181D01*
X117697834Y-161297828D01*
X117697839Y-161297819D01*
X117788129Y-161079837D01*
X117849200Y-160851914D01*
X117879999Y-160617985D01*
X117880000Y-160617971D01*
X117880000Y-160382028D01*
X117879999Y-160382014D01*
X117849200Y-160148085D01*
X117788129Y-159920162D01*
X117697839Y-159702180D01*
X117697834Y-159702171D01*
X117579855Y-159497828D01*
X117579849Y-159497819D01*
X117565164Y-159478681D01*
X117565162Y-159478679D01*
X117517277Y-159416275D01*
X116681041Y-160252511D01*
X116656022Y-160192110D01*
X116584888Y-160085649D01*
X116494351Y-159995112D01*
X116387890Y-159923978D01*
X116327488Y-159898958D01*
X116819547Y-159406898D01*
X122729500Y-159406898D01*
X122729500Y-161593102D01*
X122735126Y-161639954D01*
X122740122Y-161681561D01*
X122795639Y-161822343D01*
X122887077Y-161942922D01*
X123007656Y-162034360D01*
X123007657Y-162034360D01*
X123007658Y-162034361D01*
X123148436Y-162089877D01*
X123236898Y-162100500D01*
X123236903Y-162100500D01*
X125423097Y-162100500D01*
X125423102Y-162100500D01*
X125511564Y-162089877D01*
X125652342Y-162034361D01*
X125772922Y-161942922D01*
X125864361Y-161822342D01*
X125919877Y-161681564D01*
X125930500Y-161593102D01*
X125930500Y-160382014D01*
X127610000Y-160382014D01*
X127610000Y-160617985D01*
X127640799Y-160851914D01*
X127701870Y-161079837D01*
X127792160Y-161297819D01*
X127792165Y-161297828D01*
X127910144Y-161502171D01*
X127910145Y-161502172D01*
X127972721Y-161583723D01*
X128808958Y-160747487D01*
X128833978Y-160807890D01*
X128905112Y-160914351D01*
X128995649Y-161004888D01*
X129102110Y-161076022D01*
X129162511Y-161101041D01*
X128326275Y-161937277D01*
X128407827Y-161999854D01*
X128407828Y-161999855D01*
X128612171Y-162117834D01*
X128612180Y-162117839D01*
X128830163Y-162208129D01*
X128830161Y-162208129D01*
X129058085Y-162269200D01*
X129292014Y-162299999D01*
X129292029Y-162300000D01*
X129527971Y-162300000D01*
X129527985Y-162299999D01*
X129761914Y-162269200D01*
X129989837Y-162208129D01*
X130207819Y-162117839D01*
X130207828Y-162117834D01*
X130412181Y-161999850D01*
X130493723Y-161937279D01*
X130493723Y-161937276D01*
X129657487Y-161101041D01*
X129717890Y-161076022D01*
X129824351Y-161004888D01*
X129914888Y-160914351D01*
X129986022Y-160807890D01*
X130011041Y-160747488D01*
X130847276Y-161583723D01*
X130847279Y-161583723D01*
X130909850Y-161502181D01*
X131027834Y-161297828D01*
X131027839Y-161297819D01*
X131118129Y-161079837D01*
X131179200Y-160851914D01*
X131209999Y-160617985D01*
X131210000Y-160617971D01*
X131210000Y-160382028D01*
X131209999Y-160382014D01*
X131179200Y-160148085D01*
X131118129Y-159920162D01*
X131027839Y-159702180D01*
X131027834Y-159702171D01*
X130909855Y-159497828D01*
X130909854Y-159497827D01*
X130847277Y-159416275D01*
X130011041Y-160252511D01*
X129986022Y-160192110D01*
X129914888Y-160085649D01*
X129824351Y-159995112D01*
X129717890Y-159923978D01*
X129657488Y-159898958D01*
X130493723Y-159062721D01*
X130412172Y-159000145D01*
X130412171Y-159000144D01*
X130207828Y-158882165D01*
X130207819Y-158882160D01*
X129989836Y-158791870D01*
X129989838Y-158791870D01*
X129761914Y-158730799D01*
X129527985Y-158700000D01*
X129292014Y-158700000D01*
X129058085Y-158730799D01*
X128830162Y-158791870D01*
X128612180Y-158882160D01*
X128612171Y-158882165D01*
X128407828Y-159000144D01*
X128407818Y-159000150D01*
X128326275Y-159062720D01*
X128326275Y-159062721D01*
X129162512Y-159898958D01*
X129102110Y-159923978D01*
X128995649Y-159995112D01*
X128905112Y-160085649D01*
X128833978Y-160192110D01*
X128808958Y-160252511D01*
X127972721Y-159416275D01*
X127972720Y-159416275D01*
X127910150Y-159497818D01*
X127910144Y-159497828D01*
X127792165Y-159702171D01*
X127792160Y-159702180D01*
X127701870Y-159920162D01*
X127640799Y-160148085D01*
X127610000Y-160382014D01*
X125930500Y-160382014D01*
X125930500Y-159729387D01*
X125950185Y-159662348D01*
X125966819Y-159641706D01*
X126585532Y-159022993D01*
X128308017Y-157300508D01*
X130600510Y-155008015D01*
X130672984Y-154882485D01*
X130710500Y-154742475D01*
X130710500Y-154023512D01*
X130730185Y-153956473D01*
X130761615Y-153923194D01*
X130876928Y-153839414D01*
X130999414Y-153716928D01*
X131101232Y-153576788D01*
X131179873Y-153422445D01*
X131233402Y-153257701D01*
X131260500Y-153086611D01*
X131260500Y-152913389D01*
X135399500Y-152913389D01*
X135399500Y-153086611D01*
X135426598Y-153257701D01*
X135447930Y-153323355D01*
X135480128Y-153422447D01*
X135526258Y-153512983D01*
X135558768Y-153576788D01*
X135660586Y-153716928D01*
X135783072Y-153839414D01*
X135923212Y-153941232D01*
X136077555Y-154019873D01*
X136242299Y-154073402D01*
X136413389Y-154100500D01*
X136413390Y-154100500D01*
X136586610Y-154100500D01*
X136586611Y-154100500D01*
X136757701Y-154073402D01*
X136922445Y-154019873D01*
X137076788Y-153941232D01*
X137216928Y-153839414D01*
X137339414Y-153716928D01*
X137441232Y-153576788D01*
X137519873Y-153422445D01*
X137573402Y-153257701D01*
X137600500Y-153086611D01*
X137600500Y-152913389D01*
X137573402Y-152742299D01*
X137519873Y-152577555D01*
X137441232Y-152423212D01*
X137339414Y-152283072D01*
X137216928Y-152160586D01*
X137101614Y-152076805D01*
X137058949Y-152021476D01*
X137050500Y-151976488D01*
X137050500Y-151479387D01*
X137070185Y-151412348D01*
X137086819Y-151391706D01*
X139891706Y-148586819D01*
X139953029Y-148553334D01*
X139979387Y-148550500D01*
X144592472Y-148550500D01*
X144592474Y-148550500D01*
X144592475Y-148550500D01*
X144732485Y-148512984D01*
X144736794Y-148510496D01*
X144858015Y-148440510D01*
X148060510Y-145238015D01*
X148132984Y-145112485D01*
X148170500Y-144972474D01*
X148170500Y-144827526D01*
X148170500Y-144827525D01*
X148170500Y-141523512D01*
X148190185Y-141456473D01*
X148221615Y-141423194D01*
X148264932Y-141391722D01*
X148336928Y-141339414D01*
X148459414Y-141216928D01*
X148561232Y-141076788D01*
X148639873Y-140922445D01*
X148693402Y-140757701D01*
X148720500Y-140586611D01*
X148720500Y-140413389D01*
X148693402Y-140242299D01*
X148639873Y-140077555D01*
X148561232Y-139923212D01*
X148459414Y-139783072D01*
X148336928Y-139660586D01*
X148196788Y-139558768D01*
X148042445Y-139480127D01*
X147877701Y-139426598D01*
X147877699Y-139426597D01*
X147877698Y-139426597D01*
X147746271Y-139405781D01*
X147706611Y-139399500D01*
X147533389Y-139399500D01*
X147493728Y-139405781D01*
X147362302Y-139426597D01*
X147197552Y-139480128D01*
X147043211Y-139558768D01*
X146976528Y-139607217D01*
X146903072Y-139660586D01*
X146903070Y-139660588D01*
X146903069Y-139660588D01*
X146780588Y-139783069D01*
X146780588Y-139783070D01*
X146780586Y-139783072D01*
X146754737Y-139818650D01*
X146678768Y-139923211D01*
X146600129Y-140077549D01*
X146572814Y-140161615D01*
X146533375Y-140219290D01*
X146469016Y-140246487D01*
X146400170Y-140234572D01*
X146348695Y-140187327D01*
X146336952Y-140161613D01*
X146284755Y-140000970D01*
X146191859Y-139818650D01*
X146159474Y-139774077D01*
X146159474Y-139774076D01*
X145480000Y-140453551D01*
X145480000Y-140447339D01*
X145452741Y-140345606D01*
X145400080Y-140254394D01*
X145325606Y-140179920D01*
X145234394Y-140127259D01*
X145132661Y-140100000D01*
X145126446Y-140100000D01*
X145805922Y-139420524D01*
X145805921Y-139420523D01*
X145761359Y-139388147D01*
X145761350Y-139388141D01*
X145579031Y-139295244D01*
X145384417Y-139232009D01*
X145182317Y-139200000D01*
X144977683Y-139200000D01*
X144775582Y-139232009D01*
X144580968Y-139295244D01*
X144398644Y-139388143D01*
X144354077Y-139420523D01*
X144354077Y-139420524D01*
X145033554Y-140100000D01*
X145027339Y-140100000D01*
X144925606Y-140127259D01*
X144834394Y-140179920D01*
X144759920Y-140254394D01*
X144707259Y-140345606D01*
X144680000Y-140447339D01*
X144680000Y-140453553D01*
X144000524Y-139774077D01*
X144000523Y-139774077D01*
X143968143Y-139818644D01*
X143875244Y-140000968D01*
X143823047Y-140161614D01*
X143783609Y-140219289D01*
X143719250Y-140246487D01*
X143650404Y-140234572D01*
X143598928Y-140187328D01*
X143587186Y-140161615D01*
X143559873Y-140077555D01*
X143481232Y-139923212D01*
X143379414Y-139783072D01*
X143256928Y-139660586D01*
X143116788Y-139558768D01*
X143116789Y-139558768D01*
X143116787Y-139558767D01*
X142962447Y-139480128D01*
X142962446Y-139480127D01*
X142962445Y-139480127D01*
X142797701Y-139426598D01*
X142797699Y-139426597D01*
X142797698Y-139426597D01*
X142666271Y-139405781D01*
X142626611Y-139399500D01*
X142453389Y-139399500D01*
X142413728Y-139405781D01*
X142282302Y-139426597D01*
X142117552Y-139480128D01*
X141963211Y-139558768D01*
X141896528Y-139607217D01*
X141823072Y-139660586D01*
X141823070Y-139660588D01*
X141823069Y-139660588D01*
X141700588Y-139783069D01*
X141700588Y-139783070D01*
X141700586Y-139783072D01*
X141674737Y-139818650D01*
X141598768Y-139923211D01*
X141520128Y-140077552D01*
X141466597Y-140242302D01*
X141439500Y-140413389D01*
X141439500Y-140586610D01*
X141465934Y-140753512D01*
X141466598Y-140757701D01*
X141520127Y-140922445D01*
X141598768Y-141076788D01*
X141700586Y-141216928D01*
X141823072Y-141339414D01*
X141963212Y-141441232D01*
X142117555Y-141519873D01*
X142282299Y-141573402D01*
X142453389Y-141600500D01*
X142453390Y-141600500D01*
X142626610Y-141600500D01*
X142626611Y-141600500D01*
X142797701Y-141573402D01*
X142962445Y-141519873D01*
X143116788Y-141441232D01*
X143256928Y-141339414D01*
X143379414Y-141216928D01*
X143481232Y-141076788D01*
X143559873Y-140922445D01*
X143587186Y-140838384D01*
X143626622Y-140780711D01*
X143690981Y-140753512D01*
X143759827Y-140765427D01*
X143811303Y-140812671D01*
X143823047Y-140838385D01*
X143875244Y-140999031D01*
X143968141Y-141181350D01*
X143968147Y-141181359D01*
X144000523Y-141225921D01*
X144000524Y-141225922D01*
X144680000Y-140546446D01*
X144680000Y-140552661D01*
X144707259Y-140654394D01*
X144759920Y-140745606D01*
X144834394Y-140820080D01*
X144925606Y-140872741D01*
X145027339Y-140900000D01*
X145033553Y-140900000D01*
X144354076Y-141579474D01*
X144398650Y-141611859D01*
X144580968Y-141704755D01*
X144775582Y-141767990D01*
X144977683Y-141800000D01*
X145182317Y-141800000D01*
X145384417Y-141767990D01*
X145579031Y-141704755D01*
X145761349Y-141611859D01*
X145805922Y-141579474D01*
X145126447Y-140900000D01*
X145132661Y-140900000D01*
X145234394Y-140872741D01*
X145325606Y-140820080D01*
X145400080Y-140745606D01*
X145452741Y-140654394D01*
X145480000Y-140552661D01*
X145480000Y-140546447D01*
X146159474Y-141225921D01*
X146191859Y-141181349D01*
X146284755Y-140999029D01*
X146336952Y-140838386D01*
X146376389Y-140780710D01*
X146440748Y-140753512D01*
X146509594Y-140765427D01*
X146561070Y-140812671D01*
X146572814Y-140838385D01*
X146600128Y-140922449D01*
X146669689Y-141058970D01*
X146678768Y-141076788D01*
X146780586Y-141216928D01*
X146903072Y-141339414D01*
X146967386Y-141386141D01*
X147018385Y-141423194D01*
X147061051Y-141478524D01*
X147069500Y-141523512D01*
X147069500Y-144620613D01*
X147049815Y-144687652D01*
X147033181Y-144708294D01*
X144328294Y-147413181D01*
X144266971Y-147446666D01*
X144240613Y-147449500D01*
X139627525Y-147449500D01*
X139522517Y-147477637D01*
X139487514Y-147487016D01*
X139361986Y-147559489D01*
X139361983Y-147559491D01*
X136059489Y-150861985D01*
X136034226Y-150905743D01*
X136008963Y-150949501D01*
X135999286Y-150966261D01*
X135987017Y-150987512D01*
X135987016Y-150987513D01*
X135968258Y-151057520D01*
X135949500Y-151127525D01*
X135949500Y-151127527D01*
X135949500Y-151976488D01*
X135929815Y-152043527D01*
X135898385Y-152076806D01*
X135783075Y-152160583D01*
X135783069Y-152160588D01*
X135660588Y-152283069D01*
X135660588Y-152283070D01*
X135660586Y-152283072D01*
X135616859Y-152343256D01*
X135558768Y-152423211D01*
X135480128Y-152577552D01*
X135426597Y-152742302D01*
X135399500Y-152913389D01*
X131260500Y-152913389D01*
X131233402Y-152742299D01*
X131179873Y-152577555D01*
X131101232Y-152423212D01*
X130999414Y-152283072D01*
X130876928Y-152160586D01*
X130736788Y-152058768D01*
X130582445Y-151980127D01*
X130417701Y-151926598D01*
X130417699Y-151926597D01*
X130417698Y-151926597D01*
X130286271Y-151905781D01*
X130246611Y-151899500D01*
X130073389Y-151899500D01*
X130033728Y-151905781D01*
X129902302Y-151926597D01*
X129737552Y-151980128D01*
X129583211Y-152058768D01*
X129503256Y-152116859D01*
X129443072Y-152160586D01*
X129443070Y-152160588D01*
X129443069Y-152160588D01*
X129320588Y-152283069D01*
X129320588Y-152283070D01*
X129320586Y-152283072D01*
X129276859Y-152343256D01*
X129218768Y-152423211D01*
X129140128Y-152577552D01*
X129086597Y-152742302D01*
X129059500Y-152913389D01*
X129059500Y-153086611D01*
X129086598Y-153257701D01*
X129107930Y-153323355D01*
X129140128Y-153422447D01*
X129186258Y-153512983D01*
X129218768Y-153576788D01*
X129320586Y-153716928D01*
X129443072Y-153839414D01*
X129558385Y-153923194D01*
X129601051Y-153978524D01*
X129609500Y-154023512D01*
X129609500Y-154390613D01*
X129589815Y-154457652D01*
X129573181Y-154478294D01*
X125188294Y-158863181D01*
X125126971Y-158896666D01*
X125100613Y-158899500D01*
X123236898Y-158899500D01*
X123197853Y-158904188D01*
X123148438Y-158910122D01*
X123007656Y-158965639D01*
X122887077Y-159057077D01*
X122795639Y-159177656D01*
X122740122Y-159318438D01*
X122734188Y-159367853D01*
X122729500Y-159406898D01*
X116819547Y-159406898D01*
X117163723Y-159062721D01*
X117082172Y-159000145D01*
X117082171Y-159000144D01*
X116877828Y-158882165D01*
X116877819Y-158882160D01*
X116659836Y-158791870D01*
X116659838Y-158791870D01*
X116431914Y-158730799D01*
X116197985Y-158700000D01*
X115962014Y-158700000D01*
X115728085Y-158730799D01*
X115500162Y-158791870D01*
X115282180Y-158882160D01*
X115282171Y-158882165D01*
X115077828Y-159000144D01*
X115077818Y-159000150D01*
X114996275Y-159062720D01*
X114996275Y-159062721D01*
X115832512Y-159898958D01*
X115772110Y-159923978D01*
X115665649Y-159995112D01*
X115575112Y-160085649D01*
X115503978Y-160192110D01*
X115478958Y-160252511D01*
X114642721Y-159416275D01*
X114642720Y-159416275D01*
X114580150Y-159497818D01*
X114580144Y-159497828D01*
X114462165Y-159702171D01*
X114462160Y-159702180D01*
X114371870Y-159920162D01*
X114310799Y-160148085D01*
X114280000Y-160382014D01*
X112600500Y-160382014D01*
X112600500Y-159406898D01*
X112589877Y-159318436D01*
X112534361Y-159177658D01*
X112534360Y-159177657D01*
X112534360Y-159177656D01*
X112442922Y-159057077D01*
X112322343Y-158965639D01*
X112181561Y-158910122D01*
X112135926Y-158904642D01*
X112093102Y-158899500D01*
X112093097Y-158899500D01*
X111924500Y-158899500D01*
X111857461Y-158879815D01*
X111811706Y-158827011D01*
X111800500Y-158775500D01*
X111800500Y-155921157D01*
X111800499Y-155921153D01*
X111769739Y-155766510D01*
X111769738Y-155766503D01*
X111709394Y-155620821D01*
X111709392Y-155620818D01*
X111709390Y-155620814D01*
X111621789Y-155489711D01*
X111621786Y-155489707D01*
X109045468Y-152913389D01*
X118899500Y-152913389D01*
X118899500Y-153086611D01*
X118926598Y-153257701D01*
X118947930Y-153323355D01*
X118980128Y-153422447D01*
X119026258Y-153512983D01*
X119058768Y-153576788D01*
X119160586Y-153716928D01*
X119283072Y-153839414D01*
X119423212Y-153941232D01*
X119577555Y-154019873D01*
X119742299Y-154073402D01*
X119913389Y-154100500D01*
X119913390Y-154100500D01*
X120086610Y-154100500D01*
X120086611Y-154100500D01*
X120257701Y-154073402D01*
X120422445Y-154019873D01*
X120576788Y-153941232D01*
X120716928Y-153839414D01*
X120839414Y-153716928D01*
X120923195Y-153601614D01*
X120978526Y-153558949D01*
X121023513Y-153550500D01*
X125572472Y-153550500D01*
X125572474Y-153550500D01*
X125572475Y-153550500D01*
X125712485Y-153512984D01*
X125731536Y-153501985D01*
X125838015Y-153440510D01*
X130653671Y-148624852D01*
X130714992Y-148591369D01*
X130717012Y-148590947D01*
X130804328Y-148573580D01*
X130931811Y-148520775D01*
X131046542Y-148444114D01*
X131144114Y-148346542D01*
X131220775Y-148231811D01*
X131273580Y-148104328D01*
X131300500Y-147968993D01*
X131300500Y-147831007D01*
X131300500Y-147831004D01*
X131273581Y-147695677D01*
X131273580Y-147695676D01*
X131273580Y-147695672D01*
X131273578Y-147695667D01*
X131220778Y-147568195D01*
X131220774Y-147568188D01*
X131214962Y-147559490D01*
X131199355Y-147536132D01*
X131178478Y-147469457D01*
X131196962Y-147402076D01*
X131248940Y-147355386D01*
X131317910Y-147344209D01*
X131358753Y-147356757D01*
X131424197Y-147390102D01*
X131648752Y-147463065D01*
X131648751Y-147463065D01*
X131881948Y-147500000D01*
X132118052Y-147500000D01*
X132351247Y-147463065D01*
X132575802Y-147390102D01*
X132786163Y-147282918D01*
X132786169Y-147282914D01*
X132869104Y-147222658D01*
X132869105Y-147222658D01*
X132129408Y-146482962D01*
X132192993Y-146465925D01*
X132307007Y-146400099D01*
X132400099Y-146307007D01*
X132465925Y-146192993D01*
X132482962Y-146129409D01*
X133222658Y-146869105D01*
X133222658Y-146869104D01*
X133282914Y-146786169D01*
X133282918Y-146786163D01*
X133390102Y-146575802D01*
X133463065Y-146351247D01*
X133500000Y-146118052D01*
X133500000Y-145881947D01*
X133463065Y-145648752D01*
X133390102Y-145424197D01*
X133282914Y-145213828D01*
X133222658Y-145130894D01*
X133222658Y-145130893D01*
X132482962Y-145870590D01*
X132465925Y-145807007D01*
X132400099Y-145692993D01*
X132307007Y-145599901D01*
X132192993Y-145534075D01*
X132129409Y-145517037D01*
X132577451Y-145068995D01*
X137099499Y-145068995D01*
X137126418Y-145204322D01*
X137126421Y-145204332D01*
X137179221Y-145331804D01*
X137179228Y-145331817D01*
X137255885Y-145446541D01*
X137255888Y-145446545D01*
X137353454Y-145544111D01*
X137353458Y-145544114D01*
X137468182Y-145620771D01*
X137468195Y-145620778D01*
X137595667Y-145673578D01*
X137595672Y-145673580D01*
X137595676Y-145673580D01*
X137595677Y-145673581D01*
X137731004Y-145700500D01*
X137731007Y-145700500D01*
X137868995Y-145700500D01*
X137960041Y-145682389D01*
X138004328Y-145673580D01*
X138131811Y-145620775D01*
X138246542Y-145544114D01*
X138344114Y-145446542D01*
X138420775Y-145331811D01*
X138473580Y-145204328D01*
X138488187Y-145130893D01*
X138500500Y-145068995D01*
X138500500Y-144931004D01*
X138473581Y-144795677D01*
X138473580Y-144795676D01*
X138473580Y-144795672D01*
X138465986Y-144777338D01*
X138420778Y-144668195D01*
X138420771Y-144668182D01*
X138371398Y-144594290D01*
X138350520Y-144527612D01*
X138350500Y-144525399D01*
X138350500Y-143879387D01*
X138370185Y-143812348D01*
X138386819Y-143791706D01*
X139406147Y-142772378D01*
X140440510Y-141738015D01*
X140512984Y-141612485D01*
X140529786Y-141549778D01*
X140530103Y-141548597D01*
X140543175Y-141499811D01*
X140579540Y-141440150D01*
X140590059Y-141431589D01*
X140716928Y-141339414D01*
X140839414Y-141216928D01*
X140941232Y-141076788D01*
X141019873Y-140922445D01*
X141073402Y-140757701D01*
X141100500Y-140586611D01*
X141100500Y-140413389D01*
X141073402Y-140242299D01*
X141019873Y-140077555D01*
X140941232Y-139923212D01*
X140839414Y-139783072D01*
X140716928Y-139660586D01*
X140576788Y-139558768D01*
X140422445Y-139480127D01*
X140257701Y-139426598D01*
X140257699Y-139426597D01*
X140257698Y-139426597D01*
X140126271Y-139405781D01*
X140086611Y-139399500D01*
X139913389Y-139399500D01*
X139873728Y-139405781D01*
X139742302Y-139426597D01*
X139577552Y-139480128D01*
X139423211Y-139558768D01*
X139356528Y-139607217D01*
X139283072Y-139660586D01*
X139283070Y-139660588D01*
X139283069Y-139660588D01*
X139160588Y-139783069D01*
X139160588Y-139783070D01*
X139160586Y-139783072D01*
X139134737Y-139818650D01*
X139058768Y-139923211D01*
X138980128Y-140077552D01*
X138926597Y-140242302D01*
X138899500Y-140413389D01*
X138899500Y-140586610D01*
X138925934Y-140753512D01*
X138926598Y-140757701D01*
X138980127Y-140922445D01*
X139058768Y-141076788D01*
X139160586Y-141216928D01*
X139160588Y-141216930D01*
X139194885Y-141251227D01*
X139228370Y-141312550D01*
X139223386Y-141382242D01*
X139194885Y-141426589D01*
X137359489Y-143261985D01*
X137318140Y-143333607D01*
X137318139Y-143333608D01*
X137287017Y-143387512D01*
X137287016Y-143387513D01*
X137273485Y-143438013D01*
X137249500Y-143527525D01*
X137249500Y-143527527D01*
X137249500Y-144525399D01*
X137229815Y-144592438D01*
X137228602Y-144594290D01*
X137179228Y-144668182D01*
X137179221Y-144668195D01*
X137126421Y-144795667D01*
X137126418Y-144795677D01*
X137099500Y-144931004D01*
X137099500Y-144931007D01*
X137099500Y-145068993D01*
X137099500Y-145068995D01*
X137099499Y-145068995D01*
X132577451Y-145068995D01*
X132809212Y-144837234D01*
X132869105Y-144777340D01*
X132869104Y-144777338D01*
X132786174Y-144717087D01*
X132575802Y-144609897D01*
X132351247Y-144536934D01*
X132351248Y-144536934D01*
X132118052Y-144500000D01*
X131881948Y-144500000D01*
X131648752Y-144536934D01*
X131424197Y-144609897D01*
X131213830Y-144717084D01*
X131130894Y-144777340D01*
X131870591Y-145517037D01*
X131807007Y-145534075D01*
X131692993Y-145599901D01*
X131599901Y-145692993D01*
X131534075Y-145807007D01*
X131517037Y-145870591D01*
X130777340Y-145130894D01*
X130717084Y-145213830D01*
X130609897Y-145424197D01*
X130536934Y-145648752D01*
X130500000Y-145881947D01*
X130500000Y-146118052D01*
X130536934Y-146351247D01*
X130609897Y-146575802D01*
X130717087Y-146786174D01*
X130777338Y-146869104D01*
X130777340Y-146869105D01*
X131517037Y-146129408D01*
X131534075Y-146192993D01*
X131599901Y-146307007D01*
X131692993Y-146400099D01*
X131807007Y-146465925D01*
X131870591Y-146482962D01*
X131090472Y-147263080D01*
X131088121Y-147260729D01*
X131063171Y-147286040D01*
X130995006Y-147301379D01*
X130937324Y-147281839D01*
X130937186Y-147282098D01*
X130935626Y-147281264D01*
X130934084Y-147280742D01*
X130931823Y-147279231D01*
X130931804Y-147279221D01*
X130804332Y-147226421D01*
X130804322Y-147226418D01*
X130668995Y-147199500D01*
X130668993Y-147199500D01*
X130531007Y-147199500D01*
X130531005Y-147199500D01*
X130395677Y-147226418D01*
X130395667Y-147226421D01*
X130268195Y-147279221D01*
X130268182Y-147279228D01*
X130153458Y-147355885D01*
X130153454Y-147355888D01*
X130055888Y-147453454D01*
X130055885Y-147453458D01*
X129979228Y-147568182D01*
X129979221Y-147568195D01*
X129926421Y-147695667D01*
X129926418Y-147695677D01*
X129909080Y-147782840D01*
X129876694Y-147844751D01*
X129875144Y-147846329D01*
X125308294Y-152413181D01*
X125246971Y-152446666D01*
X125220613Y-152449500D01*
X121023513Y-152449500D01*
X120956474Y-152429815D01*
X120923195Y-152398386D01*
X120900492Y-152367138D01*
X120839414Y-152283072D01*
X120716928Y-152160586D01*
X120576788Y-152058768D01*
X120422445Y-151980127D01*
X120257701Y-151926598D01*
X120257699Y-151926597D01*
X120257698Y-151926597D01*
X120126271Y-151905781D01*
X120086611Y-151899500D01*
X119913389Y-151899500D01*
X119873728Y-151905781D01*
X119742302Y-151926597D01*
X119577552Y-151980128D01*
X119423211Y-152058768D01*
X119343256Y-152116859D01*
X119283072Y-152160586D01*
X119283070Y-152160588D01*
X119283069Y-152160588D01*
X119160588Y-152283069D01*
X119160588Y-152283070D01*
X119160586Y-152283072D01*
X119116859Y-152343256D01*
X119058768Y-152423211D01*
X118980128Y-152577552D01*
X118926597Y-152742302D01*
X118899500Y-152913389D01*
X109045468Y-152913389D01*
X108836819Y-152704740D01*
X108803334Y-152643417D01*
X108800500Y-152617059D01*
X108800500Y-147884986D01*
X108820185Y-147817947D01*
X108836819Y-147797305D01*
X108851284Y-147782840D01*
X108881366Y-147752758D01*
X108988272Y-147605614D01*
X109070844Y-147443558D01*
X109127048Y-147270580D01*
X109128608Y-147260729D01*
X109155500Y-147090945D01*
X109155500Y-146909054D01*
X109127048Y-146729419D01*
X109070842Y-146556437D01*
X109024723Y-146465925D01*
X108988272Y-146394386D01*
X108924788Y-146307007D01*
X108881371Y-146247248D01*
X108881367Y-146247243D01*
X108752756Y-146118632D01*
X108752751Y-146118628D01*
X108605617Y-146011730D01*
X108605616Y-146011729D01*
X108605614Y-146011728D01*
X108555008Y-145985942D01*
X108443562Y-145929157D01*
X108270580Y-145872951D01*
X108090945Y-145844500D01*
X108090940Y-145844500D01*
X107909060Y-145844500D01*
X107909055Y-145844500D01*
X107729419Y-145872951D01*
X107556437Y-145929157D01*
X107394382Y-146011730D01*
X107247248Y-146118628D01*
X107247243Y-146118632D01*
X107118632Y-146247243D01*
X107118628Y-146247248D01*
X107011730Y-146394382D01*
X106929157Y-146556437D01*
X106872951Y-146729419D01*
X106844500Y-146909054D01*
X100500500Y-146909054D01*
X100500500Y-141549778D01*
X103099500Y-141549778D01*
X103099500Y-141770222D01*
X103115666Y-141872292D01*
X103133985Y-141987952D01*
X103202103Y-142197603D01*
X103202104Y-142197606D01*
X103302187Y-142394025D01*
X103431752Y-142572358D01*
X103431756Y-142572363D01*
X103587638Y-142728245D01*
X103648384Y-142772378D01*
X103691050Y-142827707D01*
X103699500Y-142872697D01*
X103699500Y-142978846D01*
X103730261Y-143133489D01*
X103730264Y-143133501D01*
X103790602Y-143279172D01*
X103790609Y-143279185D01*
X103878210Y-143410288D01*
X103878213Y-143410292D01*
X104989707Y-144521786D01*
X104989711Y-144521789D01*
X105120814Y-144609390D01*
X105120818Y-144609392D01*
X105120821Y-144609394D01*
X105266503Y-144669738D01*
X105401883Y-144696666D01*
X105421153Y-144700499D01*
X105421157Y-144700500D01*
X105421158Y-144700500D01*
X105578843Y-144700500D01*
X112175500Y-144700500D01*
X112242539Y-144720185D01*
X112288294Y-144772989D01*
X112299500Y-144824500D01*
X112299500Y-147315014D01*
X112279815Y-147382053D01*
X112263181Y-147402695D01*
X112218632Y-147447243D01*
X112218628Y-147447248D01*
X112111730Y-147594382D01*
X112029157Y-147756437D01*
X111972951Y-147929419D01*
X111944500Y-148109054D01*
X111944500Y-148290945D01*
X111972951Y-148470580D01*
X112029157Y-148643562D01*
X112111730Y-148805617D01*
X112218628Y-148952751D01*
X112218632Y-148952756D01*
X112347243Y-149081367D01*
X112347248Y-149081371D01*
X112475586Y-149174613D01*
X112494386Y-149188272D01*
X112597645Y-149240885D01*
X112656437Y-149270842D01*
X112656439Y-149270842D01*
X112656442Y-149270844D01*
X112749162Y-149300970D01*
X112829419Y-149327048D01*
X113009055Y-149355500D01*
X113009060Y-149355500D01*
X113190945Y-149355500D01*
X113370580Y-149327048D01*
X113543558Y-149270844D01*
X113705614Y-149188272D01*
X113852758Y-149081366D01*
X113981366Y-148952758D01*
X114088272Y-148805614D01*
X114170844Y-148643558D01*
X114227048Y-148470580D01*
X114231811Y-148440508D01*
X114255500Y-148290945D01*
X114255500Y-148109054D01*
X114227048Y-147929419D01*
X114170842Y-147756437D01*
X114139877Y-147695667D01*
X114088272Y-147594386D01*
X114019697Y-147500000D01*
X113981371Y-147447248D01*
X113981367Y-147447243D01*
X113936819Y-147402695D01*
X113903334Y-147341372D01*
X113900500Y-147315014D01*
X113900500Y-146924500D01*
X113920185Y-146857461D01*
X113972989Y-146811706D01*
X114024500Y-146800500D01*
X125593761Y-146800500D01*
X125660800Y-146820185D01*
X125706555Y-146872989D01*
X125709115Y-146879010D01*
X125765637Y-147022339D01*
X125765638Y-147022341D01*
X125857077Y-147142922D01*
X125977656Y-147234360D01*
X125977657Y-147234360D01*
X125977658Y-147234361D01*
X126118436Y-147289877D01*
X126206898Y-147300500D01*
X126206903Y-147300500D01*
X127793097Y-147300500D01*
X127793102Y-147300500D01*
X127881564Y-147289877D01*
X128022342Y-147234361D01*
X128142922Y-147142922D01*
X128234361Y-147022342D01*
X128289877Y-146881564D01*
X128300500Y-146793102D01*
X128300500Y-145882940D01*
X128309144Y-145853499D01*
X128315668Y-145823513D01*
X128319422Y-145818497D01*
X128320185Y-145815901D01*
X128336819Y-145795259D01*
X128342684Y-145789394D01*
X129395161Y-144736918D01*
X129621786Y-144510292D01*
X129621787Y-144510291D01*
X129621789Y-144510289D01*
X129655731Y-144459491D01*
X129709394Y-144379179D01*
X129769737Y-144233497D01*
X129800500Y-144078842D01*
X129800500Y-132782940D01*
X129809144Y-132753499D01*
X129815668Y-132723513D01*
X129819422Y-132718497D01*
X129820185Y-132715901D01*
X129836819Y-132695259D01*
X130795259Y-131736819D01*
X130856582Y-131703334D01*
X130882940Y-131700500D01*
X139147807Y-131700500D01*
X139214846Y-131720185D01*
X139260601Y-131772989D01*
X139263619Y-131790066D01*
X139953554Y-132480000D01*
X139947339Y-132480000D01*
X139845606Y-132507259D01*
X139754394Y-132559920D01*
X139679920Y-132634394D01*
X139627259Y-132725606D01*
X139600000Y-132827339D01*
X139600000Y-132833553D01*
X138920524Y-132154077D01*
X138920523Y-132154077D01*
X138888143Y-132198644D01*
X138795244Y-132380968D01*
X138732009Y-132575582D01*
X138700000Y-132777682D01*
X138700000Y-132982317D01*
X138732009Y-133184417D01*
X138795244Y-133379031D01*
X138888141Y-133561350D01*
X138888147Y-133561359D01*
X138920523Y-133605921D01*
X138920524Y-133605922D01*
X139600000Y-132926446D01*
X139600000Y-132932661D01*
X139627259Y-133034394D01*
X139679920Y-133125606D01*
X139754394Y-133200080D01*
X139845606Y-133252741D01*
X139947339Y-133280000D01*
X139953553Y-133280000D01*
X139274076Y-133959474D01*
X139318650Y-133991859D01*
X139500968Y-134084755D01*
X139695582Y-134147990D01*
X139897683Y-134180000D01*
X140102317Y-134180000D01*
X140304417Y-134147990D01*
X140499031Y-134084755D01*
X140681349Y-133991859D01*
X140725921Y-133959474D01*
X140046447Y-133280000D01*
X140052661Y-133280000D01*
X140154394Y-133252741D01*
X140245606Y-133200080D01*
X140320080Y-133125606D01*
X140372741Y-133034394D01*
X140400000Y-132932661D01*
X140400000Y-132926448D01*
X141079474Y-133605922D01*
X141079474Y-133605921D01*
X141111859Y-133561349D01*
X141204755Y-133379029D01*
X141256952Y-133218386D01*
X141296389Y-133160710D01*
X141360748Y-133133512D01*
X141429594Y-133145427D01*
X141481070Y-133192671D01*
X141492814Y-133218385D01*
X141520128Y-133302449D01*
X141574926Y-133409996D01*
X141598768Y-133456788D01*
X141700586Y-133596928D01*
X141823072Y-133719414D01*
X141963212Y-133821232D01*
X142117555Y-133899873D01*
X142282299Y-133953402D01*
X142453389Y-133980500D01*
X142453390Y-133980500D01*
X142626610Y-133980500D01*
X142626611Y-133980500D01*
X142767392Y-133958202D01*
X142836683Y-133967156D01*
X142874469Y-133992994D01*
X143313181Y-134431706D01*
X143346666Y-134493029D01*
X143349500Y-134519387D01*
X143349500Y-137572475D01*
X143387016Y-137712485D01*
X143387017Y-137712488D01*
X143459488Y-137838011D01*
X143459490Y-137838013D01*
X143459491Y-137838015D01*
X143561985Y-137940509D01*
X143561986Y-137940510D01*
X143561988Y-137940511D01*
X143687511Y-138012982D01*
X143687512Y-138012982D01*
X143687515Y-138012984D01*
X143827525Y-138050500D01*
X143972475Y-138050500D01*
X155925500Y-138050500D01*
X155992539Y-138070185D01*
X156038294Y-138122989D01*
X156049500Y-138174500D01*
X156049500Y-139484479D01*
X156029815Y-139551518D01*
X155977011Y-139597273D01*
X155907853Y-139607217D01*
X155852615Y-139584797D01*
X155816792Y-139558770D01*
X155662447Y-139480128D01*
X155662446Y-139480127D01*
X155662445Y-139480127D01*
X155497701Y-139426598D01*
X155497699Y-139426597D01*
X155497698Y-139426597D01*
X155366271Y-139405781D01*
X155326611Y-139399500D01*
X155153389Y-139399500D01*
X155113728Y-139405781D01*
X154982302Y-139426597D01*
X154817552Y-139480128D01*
X154663211Y-139558768D01*
X154596528Y-139607217D01*
X154523072Y-139660586D01*
X154523070Y-139660588D01*
X154523069Y-139660588D01*
X154400588Y-139783069D01*
X154400588Y-139783070D01*
X154400586Y-139783072D01*
X154374737Y-139818650D01*
X154298768Y-139923211D01*
X154220129Y-140077549D01*
X154192814Y-140161615D01*
X154153375Y-140219290D01*
X154089016Y-140246487D01*
X154020170Y-140234572D01*
X153968695Y-140187327D01*
X153956952Y-140161613D01*
X153904755Y-140000970D01*
X153811859Y-139818650D01*
X153779474Y-139774077D01*
X153779474Y-139774076D01*
X153100000Y-140453551D01*
X153100000Y-140447339D01*
X153072741Y-140345606D01*
X153020080Y-140254394D01*
X152945606Y-140179920D01*
X152854394Y-140127259D01*
X152752661Y-140100000D01*
X152746446Y-140100000D01*
X153425922Y-139420524D01*
X153425921Y-139420523D01*
X153381359Y-139388147D01*
X153381350Y-139388141D01*
X153199031Y-139295244D01*
X153004417Y-139232009D01*
X152802317Y-139200000D01*
X152597683Y-139200000D01*
X152395582Y-139232009D01*
X152200968Y-139295244D01*
X152018644Y-139388143D01*
X151974077Y-139420523D01*
X151974077Y-139420524D01*
X152653554Y-140100000D01*
X152647339Y-140100000D01*
X152545606Y-140127259D01*
X152454394Y-140179920D01*
X152379920Y-140254394D01*
X152327259Y-140345606D01*
X152300000Y-140447339D01*
X152300000Y-140453553D01*
X151620524Y-139774077D01*
X151620523Y-139774077D01*
X151588143Y-139818644D01*
X151495244Y-140000968D01*
X151443047Y-140161614D01*
X151403609Y-140219289D01*
X151339250Y-140246487D01*
X151270404Y-140234572D01*
X151218928Y-140187328D01*
X151207186Y-140161615D01*
X151179873Y-140077555D01*
X151101232Y-139923212D01*
X150999414Y-139783072D01*
X150876928Y-139660586D01*
X150736788Y-139558768D01*
X150736789Y-139558768D01*
X150736787Y-139558767D01*
X150582447Y-139480128D01*
X150582446Y-139480127D01*
X150582445Y-139480127D01*
X150417701Y-139426598D01*
X150417699Y-139426597D01*
X150417698Y-139426597D01*
X150286271Y-139405781D01*
X150246611Y-139399500D01*
X150073389Y-139399500D01*
X150033728Y-139405781D01*
X149902302Y-139426597D01*
X149737552Y-139480128D01*
X149583211Y-139558768D01*
X149516528Y-139607217D01*
X149443072Y-139660586D01*
X149443070Y-139660588D01*
X149443069Y-139660588D01*
X149320588Y-139783069D01*
X149320588Y-139783070D01*
X149320586Y-139783072D01*
X149294737Y-139818650D01*
X149218768Y-139923211D01*
X149140128Y-140077552D01*
X149086597Y-140242302D01*
X149059500Y-140413389D01*
X149059500Y-140586610D01*
X149085934Y-140753512D01*
X149086598Y-140757701D01*
X149140127Y-140922445D01*
X149218768Y-141076788D01*
X149320586Y-141216928D01*
X149443072Y-141339414D01*
X149583212Y-141441232D01*
X149737555Y-141519873D01*
X149902299Y-141573402D01*
X150073389Y-141600500D01*
X150073390Y-141600500D01*
X150246610Y-141600500D01*
X150246611Y-141600500D01*
X150417701Y-141573402D01*
X150582445Y-141519873D01*
X150736788Y-141441232D01*
X150876928Y-141339414D01*
X150999414Y-141216928D01*
X151101232Y-141076788D01*
X151179873Y-140922445D01*
X151207186Y-140838384D01*
X151246622Y-140780711D01*
X151310981Y-140753512D01*
X151379827Y-140765427D01*
X151431303Y-140812671D01*
X151443047Y-140838385D01*
X151495244Y-140999031D01*
X151588141Y-141181350D01*
X151588147Y-141181359D01*
X151620523Y-141225921D01*
X151620524Y-141225922D01*
X152300000Y-140546446D01*
X152300000Y-140552661D01*
X152327259Y-140654394D01*
X152379920Y-140745606D01*
X152454394Y-140820080D01*
X152545606Y-140872741D01*
X152647339Y-140900000D01*
X152653553Y-140900000D01*
X151974076Y-141579474D01*
X152018650Y-141611859D01*
X152200968Y-141704755D01*
X152395582Y-141767990D01*
X152597683Y-141800000D01*
X152802317Y-141800000D01*
X153004417Y-141767990D01*
X153199031Y-141704755D01*
X153381349Y-141611859D01*
X153425921Y-141579474D01*
X152746447Y-140900000D01*
X152752661Y-140900000D01*
X152854394Y-140872741D01*
X152945606Y-140820080D01*
X153020080Y-140745606D01*
X153072741Y-140654394D01*
X153100000Y-140552661D01*
X153100000Y-140546447D01*
X153779474Y-141225921D01*
X153811859Y-141181349D01*
X153904755Y-140999029D01*
X153956952Y-140838386D01*
X153996389Y-140780710D01*
X154060748Y-140753512D01*
X154129594Y-140765427D01*
X154181070Y-140812671D01*
X154192814Y-140838385D01*
X154220128Y-140922449D01*
X154289689Y-141058970D01*
X154298768Y-141076788D01*
X154400586Y-141216928D01*
X154523072Y-141339414D01*
X154663212Y-141441232D01*
X154817555Y-141519873D01*
X154982299Y-141573402D01*
X155153389Y-141600500D01*
X155153390Y-141600500D01*
X155326610Y-141600500D01*
X155326611Y-141600500D01*
X155497701Y-141573402D01*
X155662445Y-141519873D01*
X155816788Y-141441232D01*
X155852614Y-141415202D01*
X155918419Y-141391722D01*
X155986473Y-141407547D01*
X156035169Y-141457652D01*
X156049500Y-141515520D01*
X156049500Y-142020613D01*
X156029815Y-142087652D01*
X156013181Y-142108294D01*
X153808294Y-144313181D01*
X153746971Y-144346666D01*
X153720613Y-144349500D01*
X149927525Y-144349500D01*
X149816762Y-144379179D01*
X149816761Y-144379178D01*
X149787519Y-144387014D01*
X149787512Y-144387017D01*
X149661989Y-144459487D01*
X149661984Y-144459491D01*
X148559491Y-145561983D01*
X148559487Y-145561988D01*
X148495060Y-145673579D01*
X148495061Y-145673580D01*
X148487017Y-145687512D01*
X148487016Y-145687514D01*
X148487016Y-145687515D01*
X148449500Y-145827525D01*
X148449500Y-145827527D01*
X148449500Y-151976488D01*
X148429815Y-152043527D01*
X148398385Y-152076806D01*
X148283075Y-152160583D01*
X148283069Y-152160588D01*
X148160588Y-152283069D01*
X148160588Y-152283070D01*
X148160586Y-152283072D01*
X148116859Y-152343256D01*
X148058768Y-152423211D01*
X147980128Y-152577552D01*
X147947931Y-152676644D01*
X147908493Y-152734320D01*
X147844135Y-152761518D01*
X147775288Y-152749603D01*
X147723813Y-152702359D01*
X147712069Y-152676644D01*
X147679873Y-152577555D01*
X147601232Y-152423212D01*
X147499414Y-152283072D01*
X147376928Y-152160586D01*
X147236788Y-152058768D01*
X147082445Y-151980127D01*
X146917701Y-151926598D01*
X146917699Y-151926597D01*
X146917698Y-151926597D01*
X146786271Y-151905781D01*
X146746611Y-151899500D01*
X146573389Y-151899500D01*
X146533728Y-151905781D01*
X146402302Y-151926597D01*
X146237552Y-151980128D01*
X146083211Y-152058768D01*
X146003256Y-152116859D01*
X145943072Y-152160586D01*
X145943070Y-152160588D01*
X145943069Y-152160588D01*
X145820588Y-152283069D01*
X145820588Y-152283070D01*
X145820586Y-152283072D01*
X145776859Y-152343256D01*
X145718768Y-152423211D01*
X145640128Y-152577552D01*
X145586597Y-152742302D01*
X145559500Y-152913389D01*
X145559500Y-153086611D01*
X145586598Y-153257701D01*
X145607930Y-153323355D01*
X145640128Y-153422447D01*
X145686258Y-153512983D01*
X145718768Y-153576788D01*
X145820586Y-153716928D01*
X145943072Y-153839414D01*
X146058385Y-153923194D01*
X146101051Y-153978524D01*
X146109500Y-154023512D01*
X146109500Y-154120613D01*
X146089815Y-154187652D01*
X146073181Y-154208294D01*
X144008294Y-156273181D01*
X143946971Y-156306666D01*
X143920613Y-156309500D01*
X141227525Y-156309500D01*
X141145130Y-156331578D01*
X141087514Y-156347016D01*
X140961986Y-156419489D01*
X140961983Y-156419491D01*
X138518294Y-158863181D01*
X138456971Y-158896666D01*
X138430613Y-158899500D01*
X136566898Y-158899500D01*
X136527853Y-158904188D01*
X136478438Y-158910122D01*
X136337656Y-158965639D01*
X136217077Y-159057077D01*
X136125639Y-159177656D01*
X136070122Y-159318438D01*
X136064188Y-159367853D01*
X136059500Y-159406898D01*
X136059500Y-161593102D01*
X136065126Y-161639954D01*
X136070122Y-161681561D01*
X136125639Y-161822343D01*
X136217077Y-161942922D01*
X136337656Y-162034360D01*
X136337657Y-162034360D01*
X136337658Y-162034361D01*
X136478436Y-162089877D01*
X136566898Y-162100500D01*
X136566903Y-162100500D01*
X138753097Y-162100500D01*
X138753102Y-162100500D01*
X138841564Y-162089877D01*
X138982342Y-162034361D01*
X139102922Y-161942922D01*
X139194361Y-161822342D01*
X139249877Y-161681564D01*
X139260500Y-161593102D01*
X139260500Y-160382014D01*
X140940000Y-160382014D01*
X140940000Y-160617985D01*
X140970799Y-160851914D01*
X141031870Y-161079837D01*
X141122160Y-161297819D01*
X141122165Y-161297828D01*
X141240144Y-161502171D01*
X141240145Y-161502172D01*
X141302721Y-161583723D01*
X142138958Y-160747487D01*
X142163978Y-160807890D01*
X142235112Y-160914351D01*
X142325649Y-161004888D01*
X142432110Y-161076022D01*
X142492511Y-161101041D01*
X141656275Y-161937277D01*
X141737827Y-161999854D01*
X141737828Y-161999855D01*
X141942171Y-162117834D01*
X141942180Y-162117839D01*
X142160163Y-162208129D01*
X142160161Y-162208129D01*
X142388085Y-162269200D01*
X142622014Y-162299999D01*
X142622029Y-162300000D01*
X142857971Y-162300000D01*
X142857985Y-162299999D01*
X143091914Y-162269200D01*
X143319837Y-162208129D01*
X143537819Y-162117839D01*
X143537828Y-162117834D01*
X143742181Y-161999850D01*
X143823723Y-161937279D01*
X143823723Y-161937276D01*
X142987487Y-161101041D01*
X143047890Y-161076022D01*
X143154351Y-161004888D01*
X143244888Y-160914351D01*
X143316022Y-160807890D01*
X143341041Y-160747488D01*
X144177276Y-161583723D01*
X144177279Y-161583723D01*
X144239850Y-161502181D01*
X144357834Y-161297828D01*
X144357839Y-161297819D01*
X144448129Y-161079837D01*
X144509200Y-160851914D01*
X144539999Y-160617985D01*
X144540000Y-160617971D01*
X144540000Y-160382028D01*
X144539999Y-160382014D01*
X144509200Y-160148085D01*
X144448129Y-159920162D01*
X144357839Y-159702180D01*
X144357834Y-159702171D01*
X144239855Y-159497828D01*
X144239854Y-159497827D01*
X144177277Y-159416275D01*
X143341041Y-160252511D01*
X143316022Y-160192110D01*
X143244888Y-160085649D01*
X143154351Y-159995112D01*
X143047890Y-159923978D01*
X142987488Y-159898958D01*
X143823723Y-159062721D01*
X143742172Y-159000145D01*
X143742171Y-159000144D01*
X143537828Y-158882165D01*
X143537819Y-158882160D01*
X143319836Y-158791870D01*
X143319838Y-158791870D01*
X143091914Y-158730799D01*
X142857985Y-158700000D01*
X142622014Y-158700000D01*
X142388085Y-158730799D01*
X142160162Y-158791870D01*
X141942180Y-158882160D01*
X141942171Y-158882165D01*
X141737828Y-159000144D01*
X141737818Y-159000150D01*
X141656275Y-159062720D01*
X141656275Y-159062721D01*
X142492512Y-159898958D01*
X142432110Y-159923978D01*
X142325649Y-159995112D01*
X142235112Y-160085649D01*
X142163978Y-160192110D01*
X142138958Y-160252511D01*
X141302721Y-159416275D01*
X141302720Y-159416275D01*
X141240150Y-159497818D01*
X141240144Y-159497828D01*
X141122165Y-159702171D01*
X141122160Y-159702180D01*
X141031870Y-159920162D01*
X140970799Y-160148085D01*
X140940000Y-160382014D01*
X139260500Y-160382014D01*
X139260500Y-159729387D01*
X139280185Y-159662348D01*
X139296819Y-159641706D01*
X141491706Y-157446819D01*
X141553029Y-157413334D01*
X141579387Y-157410500D01*
X144272472Y-157410500D01*
X144272474Y-157410500D01*
X144272475Y-157410500D01*
X144412485Y-157372984D01*
X144538015Y-157300510D01*
X147100510Y-154738015D01*
X147172984Y-154612485D01*
X147176990Y-154597530D01*
X147176993Y-154597526D01*
X147176992Y-154597526D01*
X147210500Y-154472475D01*
X147210500Y-154023512D01*
X147230185Y-153956473D01*
X147261615Y-153923194D01*
X147376928Y-153839414D01*
X147499414Y-153716928D01*
X147601232Y-153576788D01*
X147679873Y-153422445D01*
X147712070Y-153323353D01*
X147751506Y-153265679D01*
X147815865Y-153238481D01*
X147884711Y-153250396D01*
X147936187Y-153297640D01*
X147947929Y-153323350D01*
X147966067Y-153379172D01*
X147980128Y-153422447D01*
X148026258Y-153512983D01*
X148058768Y-153576788D01*
X148160586Y-153716928D01*
X148283072Y-153839414D01*
X148423212Y-153941232D01*
X148577555Y-154019873D01*
X148742299Y-154073402D01*
X148913389Y-154100500D01*
X148913390Y-154100500D01*
X149086610Y-154100500D01*
X149086611Y-154100500D01*
X149257701Y-154073402D01*
X149422445Y-154019873D01*
X149576788Y-153941232D01*
X149716928Y-153839414D01*
X149839414Y-153716928D01*
X149941232Y-153576788D01*
X150019873Y-153422445D01*
X150073402Y-153257701D01*
X150100500Y-153086611D01*
X150100500Y-152913389D01*
X150073402Y-152742299D01*
X150019873Y-152577555D01*
X149941232Y-152423212D01*
X149839414Y-152283072D01*
X149716928Y-152160586D01*
X149601614Y-152076805D01*
X149558949Y-152021476D01*
X149550500Y-151976488D01*
X149550500Y-146179386D01*
X149570185Y-146112347D01*
X149586819Y-146091705D01*
X150191705Y-145486819D01*
X150253028Y-145453334D01*
X150279386Y-145450500D01*
X154072472Y-145450500D01*
X154072474Y-145450500D01*
X154072475Y-145450500D01*
X154212485Y-145412984D01*
X154257463Y-145387016D01*
X154338015Y-145340510D01*
X157040510Y-142638015D01*
X157112984Y-142512485D01*
X157113516Y-142510500D01*
X157150500Y-142372475D01*
X157150500Y-141171764D01*
X157170185Y-141104725D01*
X157222989Y-141058970D01*
X157292147Y-141049026D01*
X157355703Y-141078051D01*
X157374815Y-141098874D01*
X157460586Y-141216928D01*
X157583072Y-141339414D01*
X157723212Y-141441232D01*
X157877555Y-141519873D01*
X158042299Y-141573402D01*
X158213389Y-141600500D01*
X158213390Y-141600500D01*
X158386610Y-141600500D01*
X158386611Y-141600500D01*
X158557701Y-141573402D01*
X158722445Y-141519873D01*
X158876788Y-141441232D01*
X158952614Y-141386140D01*
X159018420Y-141362660D01*
X159086474Y-141378485D01*
X159135169Y-141428590D01*
X159149500Y-141486458D01*
X159149500Y-143972475D01*
X159187016Y-144112485D01*
X159187017Y-144112488D01*
X159259488Y-144238011D01*
X159259490Y-144238013D01*
X159259491Y-144238015D01*
X159361985Y-144340509D01*
X159361986Y-144340510D01*
X159361988Y-144340511D01*
X159487511Y-144412982D01*
X159487512Y-144412982D01*
X159487515Y-144412984D01*
X159627525Y-144450500D01*
X159772475Y-144450500D01*
X162325500Y-144450500D01*
X162392539Y-144470185D01*
X162438294Y-144522989D01*
X162449500Y-144574500D01*
X162449500Y-151220612D01*
X162429815Y-151287651D01*
X162413181Y-151308293D01*
X161834468Y-151887005D01*
X161773145Y-151920490D01*
X161727389Y-151921797D01*
X161586611Y-151899500D01*
X161413389Y-151899500D01*
X161373728Y-151905781D01*
X161242302Y-151926597D01*
X161077552Y-151980128D01*
X160923211Y-152058768D01*
X160843256Y-152116859D01*
X160783072Y-152160586D01*
X160783070Y-152160588D01*
X160783069Y-152160588D01*
X160660588Y-152283069D01*
X160660588Y-152283070D01*
X160660586Y-152283072D01*
X160616859Y-152343256D01*
X160558768Y-152423211D01*
X160480128Y-152577552D01*
X160447931Y-152676644D01*
X160408493Y-152734320D01*
X160344135Y-152761518D01*
X160275288Y-152749603D01*
X160223813Y-152702359D01*
X160212069Y-152676644D01*
X160179873Y-152577555D01*
X160101232Y-152423212D01*
X159999414Y-152283072D01*
X159876928Y-152160586D01*
X159736788Y-152058768D01*
X159582445Y-151980127D01*
X159417701Y-151926598D01*
X159417699Y-151926597D01*
X159417698Y-151926597D01*
X159286271Y-151905781D01*
X159246611Y-151899500D01*
X159073389Y-151899500D01*
X159033728Y-151905781D01*
X158902302Y-151926597D01*
X158737552Y-151980128D01*
X158583211Y-152058768D01*
X158503256Y-152116859D01*
X158443072Y-152160586D01*
X158443070Y-152160588D01*
X158443069Y-152160588D01*
X158320588Y-152283069D01*
X158320588Y-152283070D01*
X158320586Y-152283072D01*
X158276859Y-152343256D01*
X158218768Y-152423211D01*
X158140128Y-152577552D01*
X158086597Y-152742302D01*
X158059500Y-152913389D01*
X158059500Y-153086611D01*
X158086598Y-153257701D01*
X158107930Y-153323355D01*
X158140128Y-153422447D01*
X158186258Y-153512983D01*
X158218768Y-153576788D01*
X158320586Y-153716928D01*
X158320588Y-153716930D01*
X158324885Y-153721227D01*
X158358370Y-153782550D01*
X158353386Y-153852242D01*
X158324885Y-153896589D01*
X154308294Y-157913181D01*
X154246971Y-157946666D01*
X154220613Y-157949500D01*
X151072475Y-157949500D01*
X150927525Y-157949500D01*
X150798993Y-157983940D01*
X150787511Y-157987017D01*
X150661988Y-158059488D01*
X150661982Y-158059493D01*
X150559493Y-158161982D01*
X150559488Y-158161988D01*
X150487017Y-158287511D01*
X150487016Y-158287515D01*
X150449500Y-158427525D01*
X150449500Y-158427527D01*
X150449500Y-158775500D01*
X150429815Y-158842539D01*
X150377011Y-158888294D01*
X150325500Y-158899500D01*
X149906898Y-158899500D01*
X149867853Y-158904188D01*
X149818438Y-158910122D01*
X149677656Y-158965639D01*
X149557077Y-159057077D01*
X149465639Y-159177656D01*
X149410122Y-159318438D01*
X149404188Y-159367853D01*
X149399500Y-159406898D01*
X149399500Y-161593102D01*
X149405126Y-161639954D01*
X149410122Y-161681561D01*
X149465639Y-161822343D01*
X149557077Y-161942922D01*
X149677656Y-162034360D01*
X149677657Y-162034360D01*
X149677658Y-162034361D01*
X149818436Y-162089877D01*
X149906898Y-162100500D01*
X149906903Y-162100500D01*
X152093097Y-162100500D01*
X152093102Y-162100500D01*
X152181564Y-162089877D01*
X152322342Y-162034361D01*
X152442922Y-161942922D01*
X152534361Y-161822342D01*
X152589877Y-161681564D01*
X152600500Y-161593102D01*
X152600500Y-159406898D01*
X152589877Y-159318436D01*
X152551055Y-159219990D01*
X152544773Y-159150404D01*
X152577110Y-159088467D01*
X152637798Y-159053846D01*
X152666409Y-159050500D01*
X154572472Y-159050500D01*
X154572474Y-159050500D01*
X154572475Y-159050500D01*
X154712485Y-159012984D01*
X154809917Y-158956731D01*
X154877817Y-158940259D01*
X154943844Y-158963112D01*
X154987035Y-159018033D01*
X154993736Y-159060182D01*
X155832512Y-159898958D01*
X155772110Y-159923978D01*
X155665649Y-159995112D01*
X155575112Y-160085649D01*
X155503978Y-160192110D01*
X155478958Y-160252511D01*
X154642721Y-159416275D01*
X154642720Y-159416275D01*
X154580150Y-159497818D01*
X154580144Y-159497828D01*
X154462165Y-159702171D01*
X154462160Y-159702180D01*
X154371870Y-159920162D01*
X154310799Y-160148085D01*
X154280000Y-160382014D01*
X154280000Y-160617985D01*
X154310799Y-160851914D01*
X154371870Y-161079837D01*
X154462160Y-161297819D01*
X154462165Y-161297828D01*
X154580144Y-161502171D01*
X154580145Y-161502172D01*
X154642721Y-161583723D01*
X155478958Y-160747487D01*
X155503978Y-160807890D01*
X155575112Y-160914351D01*
X155665649Y-161004888D01*
X155772110Y-161076022D01*
X155832511Y-161101041D01*
X154996275Y-161937277D01*
X155077827Y-161999854D01*
X155077828Y-161999855D01*
X155282171Y-162117834D01*
X155282180Y-162117839D01*
X155500163Y-162208129D01*
X155500161Y-162208129D01*
X155728085Y-162269200D01*
X155962014Y-162299999D01*
X155962029Y-162300000D01*
X156197971Y-162300000D01*
X156197985Y-162299999D01*
X156431914Y-162269200D01*
X156659837Y-162208129D01*
X156877819Y-162117839D01*
X156877828Y-162117834D01*
X157082181Y-161999850D01*
X157163723Y-161937279D01*
X157163723Y-161937276D01*
X156327487Y-161101041D01*
X156387890Y-161076022D01*
X156494351Y-161004888D01*
X156584888Y-160914351D01*
X156656022Y-160807890D01*
X156681041Y-160747488D01*
X157517276Y-161583723D01*
X157517279Y-161583723D01*
X157579850Y-161502181D01*
X157697834Y-161297828D01*
X157697839Y-161297819D01*
X157788129Y-161079837D01*
X157849200Y-160851914D01*
X157879999Y-160617985D01*
X157880000Y-160617971D01*
X157880000Y-160382028D01*
X157879999Y-160382014D01*
X157849200Y-160148085D01*
X157788129Y-159920162D01*
X157697839Y-159702180D01*
X157697834Y-159702171D01*
X157579855Y-159497828D01*
X157579849Y-159497819D01*
X157565164Y-159478681D01*
X157565162Y-159478679D01*
X157517277Y-159416275D01*
X156681041Y-160252511D01*
X156656022Y-160192110D01*
X156584888Y-160085649D01*
X156494351Y-159995112D01*
X156387890Y-159923978D01*
X156327488Y-159898958D01*
X156819547Y-159406898D01*
X162729499Y-159406898D01*
X162729499Y-161593102D01*
X162735125Y-161639954D01*
X162740121Y-161681561D01*
X162795638Y-161822343D01*
X162887076Y-161942922D01*
X163007655Y-162034360D01*
X163007656Y-162034360D01*
X163007657Y-162034361D01*
X163148435Y-162089877D01*
X163236897Y-162100500D01*
X163236902Y-162100500D01*
X165423096Y-162100500D01*
X165423101Y-162100500D01*
X165511563Y-162089877D01*
X165652341Y-162034361D01*
X165772921Y-161942922D01*
X165864360Y-161822342D01*
X165919876Y-161681564D01*
X165930499Y-161593102D01*
X165930499Y-160382014D01*
X167609999Y-160382014D01*
X167609999Y-160617985D01*
X167640798Y-160851914D01*
X167701869Y-161079837D01*
X167792159Y-161297819D01*
X167792164Y-161297828D01*
X167910143Y-161502171D01*
X167910144Y-161502172D01*
X167972720Y-161583723D01*
X168808957Y-160747487D01*
X168833977Y-160807890D01*
X168905111Y-160914351D01*
X168995648Y-161004888D01*
X169102109Y-161076022D01*
X169162510Y-161101041D01*
X168326274Y-161937277D01*
X168407826Y-161999854D01*
X168407827Y-161999855D01*
X168612170Y-162117834D01*
X168612179Y-162117839D01*
X168830162Y-162208129D01*
X168830160Y-162208129D01*
X169058084Y-162269200D01*
X169292013Y-162299999D01*
X169292028Y-162300000D01*
X169527970Y-162300000D01*
X169527984Y-162299999D01*
X169761913Y-162269200D01*
X169989836Y-162208129D01*
X170207818Y-162117839D01*
X170207827Y-162117834D01*
X170412180Y-161999850D01*
X170493722Y-161937279D01*
X170493722Y-161937276D01*
X169657486Y-161101041D01*
X169717889Y-161076022D01*
X169824350Y-161004888D01*
X169914887Y-160914351D01*
X169986021Y-160807890D01*
X170011040Y-160747487D01*
X170847275Y-161583723D01*
X170847278Y-161583723D01*
X170909849Y-161502181D01*
X171027833Y-161297828D01*
X171027838Y-161297819D01*
X171118128Y-161079837D01*
X171179199Y-160851914D01*
X171209998Y-160617985D01*
X171209999Y-160617971D01*
X171209999Y-160382028D01*
X171209998Y-160382014D01*
X171179199Y-160148085D01*
X171118128Y-159920162D01*
X171027838Y-159702180D01*
X171027833Y-159702171D01*
X170909854Y-159497828D01*
X170909853Y-159497827D01*
X170847276Y-159416275D01*
X170011040Y-160252511D01*
X169986021Y-160192110D01*
X169914887Y-160085649D01*
X169824350Y-159995112D01*
X169717889Y-159923978D01*
X169657487Y-159898958D01*
X170493722Y-159062721D01*
X170412171Y-159000145D01*
X170412170Y-159000144D01*
X170207827Y-158882165D01*
X170207818Y-158882160D01*
X169989835Y-158791870D01*
X169989837Y-158791870D01*
X169761913Y-158730799D01*
X169527984Y-158700000D01*
X169292013Y-158700000D01*
X169058084Y-158730799D01*
X168830161Y-158791870D01*
X168612179Y-158882160D01*
X168612170Y-158882165D01*
X168407827Y-159000144D01*
X168407817Y-159000150D01*
X168326274Y-159062720D01*
X168326274Y-159062721D01*
X169162511Y-159898958D01*
X169102109Y-159923978D01*
X168995648Y-159995112D01*
X168905111Y-160085649D01*
X168833977Y-160192110D01*
X168808957Y-160252512D01*
X167972720Y-159416275D01*
X167972719Y-159416275D01*
X167910149Y-159497818D01*
X167910143Y-159497828D01*
X167792164Y-159702171D01*
X167792159Y-159702180D01*
X167701869Y-159920162D01*
X167640798Y-160148085D01*
X167609999Y-160382014D01*
X165930499Y-160382014D01*
X165930499Y-159406898D01*
X165919876Y-159318436D01*
X165881054Y-159219990D01*
X165874772Y-159150404D01*
X165907109Y-159088467D01*
X165967797Y-159053846D01*
X165996408Y-159050500D01*
X167072472Y-159050500D01*
X167072474Y-159050500D01*
X167072475Y-159050500D01*
X167212485Y-159012984D01*
X167338015Y-158940510D01*
X172100510Y-154178015D01*
X172172984Y-154052485D01*
X172181722Y-154019873D01*
X172183308Y-154013951D01*
X172219665Y-153954290D01*
X172232989Y-153944293D01*
X172232846Y-153944096D01*
X172236789Y-153941231D01*
X172376928Y-153839414D01*
X172499414Y-153716928D01*
X172601232Y-153576788D01*
X172679873Y-153422445D01*
X172733402Y-153257701D01*
X172760500Y-153086611D01*
X172760500Y-152913389D01*
X172733402Y-152742299D01*
X172679873Y-152577555D01*
X172601232Y-152423212D01*
X172499414Y-152283072D01*
X172376928Y-152160586D01*
X172236788Y-152058768D01*
X172082445Y-151980127D01*
X171917701Y-151926598D01*
X171917699Y-151926597D01*
X171917698Y-151926597D01*
X171786271Y-151905781D01*
X171746611Y-151899500D01*
X171573389Y-151899500D01*
X171533728Y-151905781D01*
X171402302Y-151926597D01*
X171237552Y-151980128D01*
X171083211Y-152058768D01*
X171003256Y-152116859D01*
X170943072Y-152160586D01*
X170943070Y-152160588D01*
X170943069Y-152160588D01*
X170820588Y-152283069D01*
X170820588Y-152283070D01*
X170820586Y-152283072D01*
X170776859Y-152343256D01*
X170718768Y-152423211D01*
X170640128Y-152577552D01*
X170586597Y-152742302D01*
X170559500Y-152913389D01*
X170559500Y-153086611D01*
X170586598Y-153257701D01*
X170607930Y-153323355D01*
X170640128Y-153422447D01*
X170686258Y-153512983D01*
X170718768Y-153576788D01*
X170820586Y-153716928D01*
X170820588Y-153716930D01*
X170824885Y-153721227D01*
X170858370Y-153782550D01*
X170853386Y-153852242D01*
X170824885Y-153896589D01*
X166808294Y-157913181D01*
X166746971Y-157946666D01*
X166720613Y-157949500D01*
X164402474Y-157949500D01*
X164257524Y-157949500D01*
X164128992Y-157983940D01*
X164117510Y-157987017D01*
X163991987Y-158059488D01*
X163991981Y-158059493D01*
X163889492Y-158161982D01*
X163889487Y-158161988D01*
X163817016Y-158287511D01*
X163817015Y-158287515D01*
X163779499Y-158427525D01*
X163779499Y-158427527D01*
X163779499Y-158775500D01*
X163759814Y-158842539D01*
X163707010Y-158888294D01*
X163655499Y-158899500D01*
X163236897Y-158899500D01*
X163197852Y-158904188D01*
X163148437Y-158910122D01*
X163007655Y-158965639D01*
X162887076Y-159057077D01*
X162795638Y-159177656D01*
X162740121Y-159318438D01*
X162734187Y-159367853D01*
X162729499Y-159406898D01*
X156819547Y-159406898D01*
X157163723Y-159062721D01*
X157082172Y-159000145D01*
X157082171Y-159000144D01*
X156877828Y-158882165D01*
X156877819Y-158882160D01*
X156659836Y-158791870D01*
X156659838Y-158791870D01*
X156431914Y-158730799D01*
X156197985Y-158700000D01*
X155962014Y-158700000D01*
X155728085Y-158730799D01*
X155500162Y-158791870D01*
X155282180Y-158882160D01*
X155282164Y-158882168D01*
X155185015Y-158938258D01*
X155117115Y-158954731D01*
X155051088Y-158931878D01*
X155007897Y-158876957D01*
X155001256Y-158807404D01*
X155033272Y-158745301D01*
X155035291Y-158743233D01*
X159600510Y-154178015D01*
X159672984Y-154052485D01*
X159681722Y-154019873D01*
X159683308Y-154013951D01*
X159719665Y-153954290D01*
X159732989Y-153944293D01*
X159732846Y-153944096D01*
X159736789Y-153941231D01*
X159876928Y-153839414D01*
X159999414Y-153716928D01*
X160101232Y-153576788D01*
X160179873Y-153422445D01*
X160212070Y-153323353D01*
X160251506Y-153265679D01*
X160315865Y-153238481D01*
X160384711Y-153250396D01*
X160436187Y-153297640D01*
X160447929Y-153323350D01*
X160466067Y-153379172D01*
X160480128Y-153422447D01*
X160526258Y-153512983D01*
X160558768Y-153576788D01*
X160660586Y-153716928D01*
X160783072Y-153839414D01*
X160923212Y-153941232D01*
X161077555Y-154019873D01*
X161242299Y-154073402D01*
X161413389Y-154100500D01*
X161413390Y-154100500D01*
X161586610Y-154100500D01*
X161586611Y-154100500D01*
X161757701Y-154073402D01*
X161922445Y-154019873D01*
X162076788Y-153941232D01*
X162216928Y-153839414D01*
X162339414Y-153716928D01*
X162441232Y-153576788D01*
X162519873Y-153422445D01*
X162573402Y-153257701D01*
X162600500Y-153086611D01*
X162600500Y-152913389D01*
X162578202Y-152772606D01*
X162587156Y-152703315D01*
X162612991Y-152665532D01*
X163440510Y-151838015D01*
X163512984Y-151712485D01*
X163550500Y-151572475D01*
X163550500Y-143827525D01*
X163512984Y-143687515D01*
X163459958Y-143595672D01*
X163440511Y-143561988D01*
X163440506Y-143561982D01*
X163338017Y-143459493D01*
X163338011Y-143459488D01*
X163212488Y-143387017D01*
X163212489Y-143387017D01*
X163201006Y-143383940D01*
X163072475Y-143349500D01*
X163072472Y-143349500D01*
X160374500Y-143349500D01*
X160307461Y-143329815D01*
X160261706Y-143277011D01*
X160250500Y-143225500D01*
X160250500Y-140397682D01*
X162000000Y-140397682D01*
X162000000Y-140602317D01*
X162032009Y-140804417D01*
X162095244Y-140999031D01*
X162188141Y-141181350D01*
X162188147Y-141181359D01*
X162220523Y-141225921D01*
X162220524Y-141225922D01*
X162900000Y-140546446D01*
X162900000Y-140552661D01*
X162927259Y-140654394D01*
X162979920Y-140745606D01*
X163054394Y-140820080D01*
X163145606Y-140872741D01*
X163247339Y-140900000D01*
X163253553Y-140900000D01*
X162574076Y-141579474D01*
X162618650Y-141611859D01*
X162800968Y-141704755D01*
X162995582Y-141767990D01*
X163197683Y-141800000D01*
X163402317Y-141800000D01*
X163604417Y-141767990D01*
X163799031Y-141704755D01*
X163981349Y-141611859D01*
X164025922Y-141579474D01*
X163346447Y-140900000D01*
X163352661Y-140900000D01*
X163454394Y-140872741D01*
X163545606Y-140820080D01*
X163620080Y-140745606D01*
X163672741Y-140654394D01*
X163700000Y-140552661D01*
X163700000Y-140546448D01*
X164379474Y-141225922D01*
X164379474Y-141225921D01*
X164411859Y-141181349D01*
X164504755Y-140999031D01*
X164567990Y-140804417D01*
X164600000Y-140602317D01*
X164600000Y-140397682D01*
X164567990Y-140195582D01*
X164504755Y-140000968D01*
X164411859Y-139818650D01*
X164379474Y-139774077D01*
X164379474Y-139774076D01*
X163700000Y-140453551D01*
X163700000Y-140447339D01*
X163672741Y-140345606D01*
X163620080Y-140254394D01*
X163545606Y-140179920D01*
X163454394Y-140127259D01*
X163352661Y-140100000D01*
X163346446Y-140100000D01*
X164025922Y-139420524D01*
X164025921Y-139420523D01*
X163981359Y-139388147D01*
X163981350Y-139388141D01*
X163799031Y-139295244D01*
X163604417Y-139232009D01*
X163402317Y-139200000D01*
X163197683Y-139200000D01*
X162995582Y-139232009D01*
X162800968Y-139295244D01*
X162618644Y-139388143D01*
X162574077Y-139420523D01*
X162574077Y-139420524D01*
X163253554Y-140100000D01*
X163247339Y-140100000D01*
X163145606Y-140127259D01*
X163054394Y-140179920D01*
X162979920Y-140254394D01*
X162927259Y-140345606D01*
X162900000Y-140447339D01*
X162900000Y-140453553D01*
X162220524Y-139774077D01*
X162220523Y-139774077D01*
X162188143Y-139818644D01*
X162095244Y-140000968D01*
X162032009Y-140195582D01*
X162000000Y-140397682D01*
X160250500Y-140397682D01*
X160250500Y-138527527D01*
X160250500Y-138527525D01*
X160212984Y-138387515D01*
X160140510Y-138261985D01*
X157238015Y-135359490D01*
X157112485Y-135287016D01*
X157112486Y-135287016D01*
X157077482Y-135277637D01*
X156972475Y-135249500D01*
X156972472Y-135249500D01*
X152134500Y-135249500D01*
X152067461Y-135229815D01*
X152021706Y-135177011D01*
X152010500Y-135125500D01*
X152010500Y-134107527D01*
X152010500Y-134107525D01*
X151975919Y-133978468D01*
X151977582Y-133908623D01*
X152016744Y-133850761D01*
X152080972Y-133823256D01*
X152149874Y-133834842D01*
X152151948Y-133835874D01*
X152277555Y-133899873D01*
X152442299Y-133953402D01*
X152613389Y-133980500D01*
X152613390Y-133980500D01*
X152786610Y-133980500D01*
X152786611Y-133980500D01*
X152957701Y-133953402D01*
X153122445Y-133899873D01*
X153276788Y-133821232D01*
X153416928Y-133719414D01*
X153539414Y-133596928D01*
X153641232Y-133456788D01*
X153705516Y-133330621D01*
X153753488Y-133279827D01*
X153821309Y-133263031D01*
X153887444Y-133285568D01*
X153930896Y-133340282D01*
X153940000Y-133386916D01*
X153940000Y-133479970D01*
X153940001Y-133479987D01*
X153950494Y-133582697D01*
X154005641Y-133749119D01*
X154005643Y-133749124D01*
X154097684Y-133898345D01*
X154221654Y-134022315D01*
X154370875Y-134114356D01*
X154370880Y-134114358D01*
X154537302Y-134169505D01*
X154537309Y-134169506D01*
X154640019Y-134179999D01*
X154989999Y-134179999D01*
X154990000Y-134179998D01*
X154990000Y-133195686D01*
X154994394Y-133200080D01*
X155085606Y-133252741D01*
X155187339Y-133280000D01*
X155292661Y-133280000D01*
X155394394Y-133252741D01*
X155485606Y-133200080D01*
X155490000Y-133195686D01*
X155490000Y-134179999D01*
X155839972Y-134179999D01*
X155839986Y-134179998D01*
X155942697Y-134169505D01*
X156109119Y-134114358D01*
X156109124Y-134114356D01*
X156258345Y-134022315D01*
X156382315Y-133898345D01*
X156474356Y-133749124D01*
X156474358Y-133749119D01*
X156529505Y-133582697D01*
X156529506Y-133582690D01*
X156539999Y-133479986D01*
X156540000Y-133479973D01*
X156540000Y-133130000D01*
X155555686Y-133130000D01*
X155560080Y-133125606D01*
X155612741Y-133034394D01*
X155640000Y-132932661D01*
X155640000Y-132827339D01*
X155612741Y-132725606D01*
X155560080Y-132634394D01*
X155555686Y-132630000D01*
X156539999Y-132630000D01*
X156539999Y-132280028D01*
X156539998Y-132280013D01*
X156529505Y-132177302D01*
X156474358Y-132010880D01*
X156474356Y-132010875D01*
X156399551Y-131889597D01*
X156381111Y-131822204D01*
X156402034Y-131755541D01*
X156455676Y-131710771D01*
X156505090Y-131700500D01*
X157378844Y-131700500D01*
X157378845Y-131700499D01*
X157533497Y-131669737D01*
X157608963Y-131638478D01*
X157677864Y-131609939D01*
X157725316Y-131600500D01*
X163068996Y-131600500D01*
X163160040Y-131582389D01*
X163204328Y-131573580D01*
X163268069Y-131547177D01*
X163331807Y-131520777D01*
X163331808Y-131520776D01*
X163331811Y-131520775D01*
X163446543Y-131444114D01*
X164912278Y-129978379D01*
X168779701Y-126110957D01*
X169644111Y-125246546D01*
X169644112Y-125246545D01*
X169644114Y-125246543D01*
X169720775Y-125131811D01*
X169753769Y-125052155D01*
X175600000Y-125052155D01*
X175600000Y-125750000D01*
X176624722Y-125750000D01*
X176580667Y-125826306D01*
X176550000Y-125940756D01*
X176550000Y-126059244D01*
X176580667Y-126173694D01*
X176624722Y-126250000D01*
X175600000Y-126250000D01*
X175600000Y-126947844D01*
X175606401Y-127007372D01*
X175606403Y-127007379D01*
X175656645Y-127142086D01*
X175656649Y-127142093D01*
X175742809Y-127257187D01*
X175742812Y-127257190D01*
X175857906Y-127343350D01*
X175857913Y-127343354D01*
X175992620Y-127393596D01*
X175992627Y-127393598D01*
X176052155Y-127399999D01*
X176052172Y-127400000D01*
X176750000Y-127400000D01*
X176750000Y-126375277D01*
X176826306Y-126419333D01*
X176940756Y-126450000D01*
X177059244Y-126450000D01*
X177173694Y-126419333D01*
X177250000Y-126375277D01*
X177250000Y-127400000D01*
X177947828Y-127400000D01*
X177947844Y-127399999D01*
X178007372Y-127393598D01*
X178007379Y-127393596D01*
X178142086Y-127343354D01*
X178142093Y-127343350D01*
X178257187Y-127257190D01*
X178257190Y-127257187D01*
X178343350Y-127142093D01*
X178343354Y-127142086D01*
X178393596Y-127007379D01*
X178393598Y-127007372D01*
X178399999Y-126947844D01*
X178400000Y-126947827D01*
X178400000Y-126250000D01*
X177375278Y-126250000D01*
X177419333Y-126173694D01*
X177450000Y-126059244D01*
X177450000Y-125940756D01*
X177419333Y-125826306D01*
X177375278Y-125750000D01*
X178400000Y-125750000D01*
X178400000Y-125052172D01*
X178399999Y-125052155D01*
X178393598Y-124992627D01*
X178393596Y-124992620D01*
X178343354Y-124857913D01*
X178343350Y-124857906D01*
X178257190Y-124742812D01*
X178257187Y-124742809D01*
X178142093Y-124656649D01*
X178142086Y-124656645D01*
X178007379Y-124606403D01*
X178007372Y-124606401D01*
X177947844Y-124600000D01*
X177854969Y-124600000D01*
X177787930Y-124580315D01*
X177742175Y-124527511D01*
X177732231Y-124458353D01*
X177761256Y-124394797D01*
X177778481Y-124378987D01*
X177778368Y-124378854D01*
X177782062Y-124375697D01*
X177782073Y-124375690D01*
X177915690Y-124242073D01*
X178026760Y-124089199D01*
X178112547Y-123920832D01*
X178170940Y-123741118D01*
X178200500Y-123554486D01*
X178200500Y-123365513D01*
X178170940Y-123178881D01*
X178112545Y-122999163D01*
X178026759Y-122830800D01*
X177915690Y-122677927D01*
X177782073Y-122544310D01*
X177629199Y-122433240D01*
X177629195Y-122433237D01*
X177629192Y-122433235D01*
X177618200Y-122427634D01*
X177567406Y-122379657D01*
X177550500Y-122317152D01*
X177550500Y-121183512D01*
X177570185Y-121116473D01*
X177601615Y-121083194D01*
X177716928Y-120999414D01*
X177839414Y-120876928D01*
X177941232Y-120736788D01*
X178019873Y-120582445D01*
X178073402Y-120417701D01*
X178100500Y-120246611D01*
X178100500Y-120073389D01*
X178073402Y-119902299D01*
X178019873Y-119737555D01*
X177941232Y-119583212D01*
X177839414Y-119443072D01*
X177716928Y-119320586D01*
X177576788Y-119218768D01*
X177422445Y-119140127D01*
X177257701Y-119086598D01*
X177257699Y-119086597D01*
X177257698Y-119086597D01*
X177126271Y-119065781D01*
X177086611Y-119059500D01*
X176913389Y-119059500D01*
X176873728Y-119065781D01*
X176742302Y-119086597D01*
X176577552Y-119140128D01*
X176423211Y-119218768D01*
X176343256Y-119276859D01*
X176283072Y-119320586D01*
X176283070Y-119320588D01*
X176283069Y-119320588D01*
X176160588Y-119443069D01*
X176160588Y-119443070D01*
X176160586Y-119443072D01*
X176116859Y-119503256D01*
X176058768Y-119583211D01*
X175980128Y-119737552D01*
X175926597Y-119902302D01*
X175899500Y-120073389D01*
X175899500Y-120246611D01*
X175926598Y-120417701D01*
X175980127Y-120582445D01*
X176058768Y-120736788D01*
X176160586Y-120876928D01*
X176283072Y-120999414D01*
X176283075Y-120999416D01*
X176398385Y-121083194D01*
X176441051Y-121138524D01*
X176449500Y-121183512D01*
X176449500Y-122317152D01*
X176429815Y-122384191D01*
X176381800Y-122427634D01*
X176370807Y-122433235D01*
X176370804Y-122433237D01*
X176279076Y-122499882D01*
X176217927Y-122544310D01*
X176217925Y-122544312D01*
X176217924Y-122544312D01*
X176084312Y-122677924D01*
X176084312Y-122677925D01*
X176084310Y-122677927D01*
X176036610Y-122743579D01*
X175973240Y-122830800D01*
X175887454Y-122999163D01*
X175829059Y-123178881D01*
X175799500Y-123365513D01*
X175799500Y-123554486D01*
X175829059Y-123741118D01*
X175887454Y-123920836D01*
X175973240Y-124089199D01*
X176084310Y-124242073D01*
X176217927Y-124375690D01*
X176217930Y-124375692D01*
X176221632Y-124378854D01*
X176220964Y-124379634D01*
X176260582Y-124431011D01*
X176266561Y-124500624D01*
X176233956Y-124562420D01*
X176173117Y-124596777D01*
X176145031Y-124600000D01*
X176052155Y-124600000D01*
X175992627Y-124606401D01*
X175992620Y-124606403D01*
X175857913Y-124656645D01*
X175857906Y-124656649D01*
X175742812Y-124742809D01*
X175742809Y-124742812D01*
X175656649Y-124857906D01*
X175656645Y-124857913D01*
X175606403Y-124992620D01*
X175606401Y-124992627D01*
X175600000Y-125052155D01*
X169753769Y-125052155D01*
X169773580Y-125004328D01*
X169800500Y-124868994D01*
X169800500Y-124731006D01*
X169800500Y-121341518D01*
X169820185Y-121274479D01*
X169836819Y-121253837D01*
X174244113Y-116846543D01*
X174320774Y-116731812D01*
X174320775Y-116731811D01*
X174373580Y-116604328D01*
X174394332Y-116500001D01*
X174400500Y-116468995D01*
X174400500Y-114041518D01*
X174420185Y-113974479D01*
X174436814Y-113953842D01*
X177324868Y-111065787D01*
X177374230Y-111035539D01*
X177422439Y-111019875D01*
X177422439Y-111019874D01*
X177422445Y-111019873D01*
X177576788Y-110941232D01*
X177716928Y-110839414D01*
X177839414Y-110716928D01*
X177941232Y-110576788D01*
X178019873Y-110422445D01*
X178073402Y-110257701D01*
X178100500Y-110086611D01*
X178100500Y-109913389D01*
X178073402Y-109742299D01*
X178019873Y-109577555D01*
X177941232Y-109423212D01*
X177839414Y-109283072D01*
X177716928Y-109160586D01*
X177576788Y-109058768D01*
X177422445Y-108980127D01*
X177257701Y-108926598D01*
X177257699Y-108926597D01*
X177257698Y-108926597D01*
X177126271Y-108905781D01*
X177086611Y-108899500D01*
X176913389Y-108899500D01*
X176873728Y-108905781D01*
X176742302Y-108926597D01*
X176577552Y-108980128D01*
X176423211Y-109058768D01*
X176343256Y-109116859D01*
X176283072Y-109160586D01*
X176283070Y-109160588D01*
X176283069Y-109160588D01*
X176160588Y-109283069D01*
X176160588Y-109283070D01*
X176160586Y-109283072D01*
X176143485Y-109306610D01*
X176058768Y-109423211D01*
X175980128Y-109577552D01*
X175926597Y-109742302D01*
X175899500Y-109913389D01*
X175899500Y-110086610D01*
X175926597Y-110257698D01*
X175926598Y-110257702D01*
X175958305Y-110355288D01*
X175960300Y-110425129D01*
X175928055Y-110481286D01*
X173155888Y-113253453D01*
X173155884Y-113253458D01*
X173130722Y-113291116D01*
X173124453Y-113300500D01*
X173101761Y-113334460D01*
X173079223Y-113368191D01*
X173026421Y-113495667D01*
X173026418Y-113495677D01*
X172999500Y-113631004D01*
X172999500Y-116058480D01*
X172979815Y-116125519D01*
X172963181Y-116146161D01*
X172177398Y-116931944D01*
X172116075Y-116965429D01*
X172046383Y-116960445D01*
X171990450Y-116918573D01*
X171966033Y-116853109D01*
X171967244Y-116824865D01*
X172000000Y-116618052D01*
X172000000Y-116381947D01*
X171963065Y-116148752D01*
X171890102Y-115924197D01*
X171782914Y-115713828D01*
X171722658Y-115630894D01*
X171722658Y-115630893D01*
X171023787Y-116329765D01*
X171012518Y-116287708D01*
X170940110Y-116162292D01*
X170837708Y-116059890D01*
X170712292Y-115987482D01*
X170670234Y-115976212D01*
X171369105Y-115277340D01*
X171369104Y-115277338D01*
X171286174Y-115217087D01*
X171075802Y-115109897D01*
X170851247Y-115036934D01*
X170851248Y-115036934D01*
X170618052Y-115000000D01*
X170381948Y-115000000D01*
X170148752Y-115036934D01*
X169924197Y-115109897D01*
X169713830Y-115217084D01*
X169630894Y-115277340D01*
X170329766Y-115976212D01*
X170287708Y-115987482D01*
X170162292Y-116059890D01*
X170059890Y-116162292D01*
X169987482Y-116287708D01*
X169976212Y-116329766D01*
X169277340Y-115630894D01*
X169217084Y-115713830D01*
X169109897Y-115924197D01*
X169036934Y-116148752D01*
X169000000Y-116381947D01*
X169000000Y-116618052D01*
X169036934Y-116851247D01*
X169109897Y-117075802D01*
X169217087Y-117286174D01*
X169277338Y-117369104D01*
X169277340Y-117369105D01*
X169976212Y-116670233D01*
X169987482Y-116712292D01*
X170059890Y-116837708D01*
X170162292Y-116940110D01*
X170287708Y-117012518D01*
X170329765Y-117023787D01*
X169630893Y-117722658D01*
X169713828Y-117782914D01*
X169924197Y-117890102D01*
X170148752Y-117963065D01*
X170148751Y-117963065D01*
X170381948Y-118000000D01*
X170618052Y-118000000D01*
X170824864Y-117967244D01*
X170894157Y-117976199D01*
X170947609Y-118021195D01*
X170968249Y-118087946D01*
X170949524Y-118155260D01*
X170931943Y-118177398D01*
X168555886Y-120553455D01*
X168542945Y-120572824D01*
X168536517Y-120582445D01*
X168536516Y-120582447D01*
X168479223Y-120668191D01*
X168426421Y-120795667D01*
X168426418Y-120795677D01*
X168399500Y-120931004D01*
X168399500Y-124458481D01*
X168379815Y-124525520D01*
X168363181Y-124546162D01*
X162746162Y-130163181D01*
X162684839Y-130196666D01*
X162658481Y-130199500D01*
X157725316Y-130199500D01*
X157677864Y-130190061D01*
X157533501Y-130130264D01*
X157533489Y-130130261D01*
X157378845Y-130099500D01*
X157378842Y-130099500D01*
X130578842Y-130099500D01*
X130421157Y-130099500D01*
X130421154Y-130099500D01*
X130266509Y-130130261D01*
X130266497Y-130130264D01*
X130223832Y-130147936D01*
X130223833Y-130147937D01*
X130120823Y-130190604D01*
X130120814Y-130190609D01*
X129989712Y-130278209D01*
X129989711Y-130278211D01*
X129989710Y-130278212D01*
X128489711Y-131778211D01*
X128461324Y-131806598D01*
X128378209Y-131889712D01*
X128290609Y-132020814D01*
X128290602Y-132020827D01*
X128230264Y-132166498D01*
X128230261Y-132166510D01*
X128199500Y-132321153D01*
X128199500Y-143617060D01*
X128179815Y-143684099D01*
X128163181Y-143704741D01*
X127204741Y-144663181D01*
X127143418Y-144696666D01*
X127117060Y-144699500D01*
X126206898Y-144699500D01*
X126167853Y-144704188D01*
X126118438Y-144710122D01*
X125977656Y-144765639D01*
X125857077Y-144857077D01*
X125765638Y-144977658D01*
X125765637Y-144977660D01*
X125709115Y-145120990D01*
X125666209Y-145176134D01*
X125600302Y-145199327D01*
X125593761Y-145199500D01*
X114024500Y-145199500D01*
X113957461Y-145179815D01*
X113911706Y-145127011D01*
X113900500Y-145075500D01*
X113900500Y-131421155D01*
X113900499Y-131421153D01*
X113869738Y-131266510D01*
X113869737Y-131266503D01*
X113869735Y-131266498D01*
X113809397Y-131120827D01*
X113809390Y-131120814D01*
X113721789Y-130989711D01*
X113721786Y-130989707D01*
X113610292Y-130878213D01*
X113610288Y-130878210D01*
X113479185Y-130790609D01*
X113479172Y-130790602D01*
X113333501Y-130730264D01*
X113333489Y-130730261D01*
X113178845Y-130699500D01*
X113178842Y-130699500D01*
X110021619Y-130699500D01*
X109954580Y-130679815D01*
X109908825Y-130627011D01*
X109898504Y-130590287D01*
X109889877Y-130518435D01*
X109834361Y-130377657D01*
X109834359Y-130377654D01*
X109742923Y-130257076D01*
X109622345Y-130165640D01*
X109622339Y-130165637D01*
X109481566Y-130110123D01*
X109468927Y-130108605D01*
X109393103Y-130099500D01*
X109393097Y-130099500D01*
X107606903Y-130099500D01*
X107518435Y-130110123D01*
X107518431Y-130110124D01*
X107377660Y-130165637D01*
X107377654Y-130165640D01*
X107257076Y-130257076D01*
X107165640Y-130377654D01*
X107165637Y-130377660D01*
X107110123Y-130518433D01*
X107110123Y-130518435D01*
X107099500Y-130606897D01*
X107099500Y-130606898D01*
X107099500Y-130606902D01*
X107099500Y-132393096D01*
X107099501Y-132393102D01*
X107110123Y-132481565D01*
X107110123Y-132481566D01*
X107110124Y-132481568D01*
X107165637Y-132622339D01*
X107165640Y-132622345D01*
X107257076Y-132742923D01*
X107368397Y-132827339D01*
X107377657Y-132834361D01*
X107518435Y-132889877D01*
X107606897Y-132900500D01*
X109393102Y-132900499D01*
X109481565Y-132889877D01*
X109622343Y-132834361D01*
X109742923Y-132742923D01*
X109834361Y-132622343D01*
X109889877Y-132481565D01*
X109898505Y-132409714D01*
X109926041Y-132345502D01*
X109983923Y-132306369D01*
X110021620Y-132300500D01*
X112175500Y-132300500D01*
X112242539Y-132320185D01*
X112288294Y-132372989D01*
X112299500Y-132424500D01*
X112299500Y-142975500D01*
X112279815Y-143042539D01*
X112227011Y-143088294D01*
X112175500Y-143099500D01*
X109563409Y-143099500D01*
X109496370Y-143079815D01*
X109450615Y-143027011D01*
X109439791Y-142965771D01*
X109440697Y-142954249D01*
X108670234Y-142183787D01*
X108712292Y-142172518D01*
X108837708Y-142100110D01*
X108940110Y-141997708D01*
X109012518Y-141872292D01*
X109023787Y-141830235D01*
X109794250Y-142600698D01*
X109794250Y-142600697D01*
X109868442Y-142498581D01*
X109868446Y-142498575D01*
X109982780Y-142274184D01*
X110060602Y-142034669D01*
X110100000Y-141785928D01*
X110100000Y-141534071D01*
X110060602Y-141285330D01*
X109982780Y-141045815D01*
X109868442Y-140821416D01*
X109794250Y-140719301D01*
X109794250Y-140719300D01*
X109023787Y-141489764D01*
X109012518Y-141447708D01*
X108940110Y-141322292D01*
X108837708Y-141219890D01*
X108712292Y-141147482D01*
X108670232Y-141136212D01*
X109440698Y-140365748D01*
X109338583Y-140291557D01*
X109114184Y-140177219D01*
X108874669Y-140099397D01*
X108625928Y-140060000D01*
X108374072Y-140060000D01*
X108125330Y-140099397D01*
X107885815Y-140177219D01*
X107661413Y-140291559D01*
X107559301Y-140365747D01*
X107559300Y-140365748D01*
X108329765Y-141136212D01*
X108287708Y-141147482D01*
X108162292Y-141219890D01*
X108059890Y-141322292D01*
X107987482Y-141447708D01*
X107976212Y-141489765D01*
X107205748Y-140719300D01*
X107205747Y-140719301D01*
X107131559Y-140821413D01*
X107017219Y-141045815D01*
X106939397Y-141285330D01*
X106900000Y-141534071D01*
X106900000Y-141785928D01*
X106939397Y-142034669D01*
X107017219Y-142274184D01*
X107131557Y-142498583D01*
X107205748Y-142600697D01*
X107205748Y-142600698D01*
X107976212Y-141830233D01*
X107987482Y-141872292D01*
X108059890Y-141997708D01*
X108162292Y-142100110D01*
X108287708Y-142172518D01*
X108329765Y-142183787D01*
X107559301Y-142954249D01*
X107560208Y-142965771D01*
X107545844Y-143034148D01*
X107496793Y-143083905D01*
X107436590Y-143099500D01*
X105882940Y-143099500D01*
X105815901Y-143079815D01*
X105795259Y-143063181D01*
X105524023Y-142791945D01*
X105490538Y-142730622D01*
X105495522Y-142660930D01*
X105524022Y-142616583D01*
X105568242Y-142572365D01*
X105697815Y-142394022D01*
X105797895Y-142197606D01*
X105866015Y-141987951D01*
X105900500Y-141770222D01*
X105900500Y-141549778D01*
X105866015Y-141332049D01*
X105828611Y-141216929D01*
X105797896Y-141122396D01*
X105797895Y-141122393D01*
X105758876Y-141045815D01*
X105697815Y-140925978D01*
X105659136Y-140872741D01*
X105568247Y-140747641D01*
X105568243Y-140747636D01*
X105412359Y-140591752D01*
X105304413Y-140513326D01*
X105234025Y-140462187D01*
X105234024Y-140462186D01*
X105234022Y-140462185D01*
X105171096Y-140430122D01*
X105037606Y-140362104D01*
X105037603Y-140362103D01*
X104827952Y-140293985D01*
X104719086Y-140276742D01*
X104610222Y-140259500D01*
X104389778Y-140259500D01*
X104317201Y-140270995D01*
X104172047Y-140293985D01*
X103962396Y-140362103D01*
X103962393Y-140362104D01*
X103765974Y-140462187D01*
X103587641Y-140591752D01*
X103587636Y-140591756D01*
X103431756Y-140747636D01*
X103431752Y-140747641D01*
X103302187Y-140925974D01*
X103202104Y-141122393D01*
X103202103Y-141122396D01*
X103133985Y-141332047D01*
X103103660Y-141523512D01*
X103099500Y-141549778D01*
X100500500Y-141549778D01*
X100500500Y-130606897D01*
X103099500Y-130606897D01*
X103099500Y-130606898D01*
X103099500Y-130606902D01*
X103099500Y-132393096D01*
X103099501Y-132393102D01*
X103110123Y-132481565D01*
X103110123Y-132481566D01*
X103110124Y-132481568D01*
X103165637Y-132622339D01*
X103165640Y-132622345D01*
X103257076Y-132742923D01*
X103368397Y-132827339D01*
X103377657Y-132834361D01*
X103518435Y-132889877D01*
X103606897Y-132900500D01*
X105393102Y-132900499D01*
X105481565Y-132889877D01*
X105622343Y-132834361D01*
X105742923Y-132742923D01*
X105834361Y-132622343D01*
X105889877Y-132481565D01*
X105900500Y-132393103D01*
X105900499Y-130606898D01*
X105889877Y-130518435D01*
X105834361Y-130377657D01*
X105834359Y-130377654D01*
X105742923Y-130257076D01*
X105622345Y-130165640D01*
X105622339Y-130165637D01*
X105481564Y-130110122D01*
X105481561Y-130110121D01*
X105409716Y-130101494D01*
X105345501Y-130073957D01*
X105306369Y-130016075D01*
X105300500Y-129978379D01*
X105300500Y-126352135D01*
X109899500Y-126352135D01*
X109899500Y-127647870D01*
X109899501Y-127647876D01*
X109905908Y-127707483D01*
X109956202Y-127842328D01*
X109956206Y-127842335D01*
X110042452Y-127957544D01*
X110042455Y-127957547D01*
X110157664Y-128043793D01*
X110157671Y-128043797D01*
X110292517Y-128094091D01*
X110292516Y-128094091D01*
X110299444Y-128094835D01*
X110352127Y-128100500D01*
X111647872Y-128100499D01*
X111707483Y-128094091D01*
X111842331Y-128043796D01*
X111957546Y-127957546D01*
X112043796Y-127842331D01*
X112094091Y-127707483D01*
X112100500Y-127647873D01*
X112100499Y-126913389D01*
X112439500Y-126913389D01*
X112439500Y-127086610D01*
X112466516Y-127257187D01*
X112466598Y-127257701D01*
X112520127Y-127422445D01*
X112598768Y-127576788D01*
X112700586Y-127716928D01*
X112823072Y-127839414D01*
X112963212Y-127941232D01*
X113117555Y-128019873D01*
X113282299Y-128073402D01*
X113453389Y-128100500D01*
X113453390Y-128100500D01*
X113626610Y-128100500D01*
X113626611Y-128100500D01*
X113797701Y-128073402D01*
X113962445Y-128019873D01*
X114116788Y-127941232D01*
X114256928Y-127839414D01*
X114379414Y-127716928D01*
X114481232Y-127576788D01*
X114559873Y-127422445D01*
X114584264Y-127347375D01*
X114623700Y-127289703D01*
X114688058Y-127262504D01*
X114756905Y-127274418D01*
X114808381Y-127321662D01*
X114820855Y-127349700D01*
X114844187Y-127426614D01*
X114904490Y-127572198D01*
X114951158Y-127659506D01*
X114997533Y-127728912D01*
X114997534Y-127728913D01*
X115597037Y-127129409D01*
X115614075Y-127192993D01*
X115679901Y-127307007D01*
X115772993Y-127400099D01*
X115887007Y-127465925D01*
X115950590Y-127482962D01*
X115351085Y-128082465D01*
X115420493Y-128128841D01*
X115507801Y-128175509D01*
X115653387Y-128235814D01*
X115748135Y-128264555D01*
X115902699Y-128295298D01*
X116001210Y-128305000D01*
X116158790Y-128305000D01*
X116257299Y-128295298D01*
X116257302Y-128295298D01*
X116411864Y-128264555D01*
X116506612Y-128235814D01*
X116652198Y-128175509D01*
X116739501Y-128128844D01*
X116739511Y-128128838D01*
X116808912Y-128082465D01*
X116209409Y-127482962D01*
X116272993Y-127465925D01*
X116387007Y-127400099D01*
X116480099Y-127307007D01*
X116545925Y-127192993D01*
X116562962Y-127129409D01*
X117162465Y-127728912D01*
X117208838Y-127659511D01*
X117208844Y-127659501D01*
X117255509Y-127572198D01*
X117315815Y-127426609D01*
X117339144Y-127349702D01*
X117377441Y-127291263D01*
X117441253Y-127262806D01*
X117510320Y-127273365D01*
X117562714Y-127319589D01*
X117575735Y-127347375D01*
X117587239Y-127382782D01*
X117600128Y-127422449D01*
X117676429Y-127572198D01*
X117678768Y-127576788D01*
X117780586Y-127716928D01*
X117903072Y-127839414D01*
X118043212Y-127941232D01*
X118197555Y-128019873D01*
X118362299Y-128073402D01*
X118533389Y-128100500D01*
X118533390Y-128100500D01*
X118706610Y-128100500D01*
X118706611Y-128100500D01*
X118877701Y-128073402D01*
X119042445Y-128019873D01*
X119196788Y-127941232D01*
X119336928Y-127839414D01*
X119459414Y-127716928D01*
X119561232Y-127576788D01*
X119639873Y-127422445D01*
X119693402Y-127257701D01*
X119720500Y-127086611D01*
X119720500Y-126913389D01*
X120059500Y-126913389D01*
X120059500Y-127086610D01*
X120086516Y-127257187D01*
X120086598Y-127257701D01*
X120140127Y-127422445D01*
X120218768Y-127576788D01*
X120320586Y-127716928D01*
X120443072Y-127839414D01*
X120558385Y-127923194D01*
X120601051Y-127978524D01*
X120609500Y-128023512D01*
X120609500Y-143172475D01*
X120617091Y-143200806D01*
X120637831Y-143278210D01*
X120647013Y-143312478D01*
X120647016Y-143312485D01*
X120719489Y-143438013D01*
X120719491Y-143438016D01*
X121135144Y-143853669D01*
X121168629Y-143914992D01*
X121169080Y-143917158D01*
X121186418Y-144004322D01*
X121186421Y-144004332D01*
X121239221Y-144131804D01*
X121239228Y-144131817D01*
X121315885Y-144246541D01*
X121315888Y-144246545D01*
X121413454Y-144344111D01*
X121413458Y-144344114D01*
X121528182Y-144420771D01*
X121528195Y-144420778D01*
X121655667Y-144473578D01*
X121655672Y-144473580D01*
X121655676Y-144473580D01*
X121655677Y-144473581D01*
X121791004Y-144500500D01*
X121791007Y-144500500D01*
X121928995Y-144500500D01*
X122020041Y-144482389D01*
X122064328Y-144473580D01*
X122191811Y-144420775D01*
X122306542Y-144344114D01*
X122404114Y-144246542D01*
X122480775Y-144131811D01*
X122533580Y-144004328D01*
X122542389Y-143960041D01*
X122560500Y-143868995D01*
X122560500Y-143731004D01*
X122533581Y-143595677D01*
X122533580Y-143595676D01*
X122533580Y-143595672D01*
X122519628Y-143561988D01*
X122480778Y-143468195D01*
X122480771Y-143468182D01*
X122404114Y-143353458D01*
X122404111Y-143353454D01*
X122306545Y-143255888D01*
X122306541Y-143255885D01*
X122191817Y-143179228D01*
X122191804Y-143179221D01*
X122064332Y-143126421D01*
X122064322Y-143126418D01*
X121977158Y-143109080D01*
X121915247Y-143076695D01*
X121913669Y-143075144D01*
X121746819Y-142908294D01*
X121713334Y-142846971D01*
X121710500Y-142820613D01*
X121710500Y-128023512D01*
X121730185Y-127956473D01*
X121761615Y-127923194D01*
X121876928Y-127839414D01*
X121999414Y-127716928D01*
X122101232Y-127576788D01*
X122179873Y-127422445D01*
X122233402Y-127257701D01*
X122260500Y-127086611D01*
X122260500Y-126913389D01*
X122599500Y-126913389D01*
X122599500Y-127086610D01*
X122626516Y-127257187D01*
X122626598Y-127257701D01*
X122680127Y-127422445D01*
X122758768Y-127576788D01*
X122860586Y-127716928D01*
X122983072Y-127839414D01*
X123123212Y-127941232D01*
X123277555Y-128019873D01*
X123442299Y-128073402D01*
X123613389Y-128100500D01*
X123613390Y-128100500D01*
X123786610Y-128100500D01*
X123786611Y-128100500D01*
X123957701Y-128073402D01*
X124122445Y-128019873D01*
X124276788Y-127941232D01*
X124416928Y-127839414D01*
X124539414Y-127716928D01*
X124641232Y-127576788D01*
X124719873Y-127422445D01*
X124773402Y-127257701D01*
X124800500Y-127086611D01*
X124800500Y-126913389D01*
X125139500Y-126913389D01*
X125139500Y-127086610D01*
X125166516Y-127257187D01*
X125166598Y-127257701D01*
X125220127Y-127422445D01*
X125298768Y-127576788D01*
X125400586Y-127716928D01*
X125523072Y-127839414D01*
X125663212Y-127941232D01*
X125817555Y-128019873D01*
X125982299Y-128073402D01*
X126153389Y-128100500D01*
X126153390Y-128100500D01*
X126326610Y-128100500D01*
X126326611Y-128100500D01*
X126497701Y-128073402D01*
X126662445Y-128019873D01*
X126816788Y-127941232D01*
X126956928Y-127839414D01*
X127079414Y-127716928D01*
X127181232Y-127576788D01*
X127259873Y-127422445D01*
X127284264Y-127347375D01*
X127323700Y-127289703D01*
X127388058Y-127262504D01*
X127456905Y-127274418D01*
X127508381Y-127321662D01*
X127520855Y-127349700D01*
X127544187Y-127426614D01*
X127604490Y-127572198D01*
X127651158Y-127659506D01*
X127697533Y-127728912D01*
X127697534Y-127728913D01*
X128297037Y-127129409D01*
X128314075Y-127192993D01*
X128379901Y-127307007D01*
X128472993Y-127400099D01*
X128587007Y-127465925D01*
X128650590Y-127482962D01*
X128051085Y-128082465D01*
X128120493Y-128128841D01*
X128207801Y-128175509D01*
X128353387Y-128235814D01*
X128448135Y-128264555D01*
X128602699Y-128295298D01*
X128701210Y-128305000D01*
X128858790Y-128305000D01*
X128957299Y-128295298D01*
X128957302Y-128295298D01*
X129111864Y-128264555D01*
X129206612Y-128235814D01*
X129352198Y-128175509D01*
X129439501Y-128128844D01*
X129439511Y-128128838D01*
X129508912Y-128082465D01*
X128909409Y-127482962D01*
X128972993Y-127465925D01*
X129087007Y-127400099D01*
X129180099Y-127307007D01*
X129245925Y-127192993D01*
X129262962Y-127129409D01*
X129862465Y-127728912D01*
X129908838Y-127659511D01*
X129908844Y-127659501D01*
X129955509Y-127572198D01*
X130015815Y-127426609D01*
X130039144Y-127349702D01*
X130077441Y-127291263D01*
X130141253Y-127262806D01*
X130210320Y-127273365D01*
X130262714Y-127319589D01*
X130275735Y-127347375D01*
X130287239Y-127382782D01*
X130300128Y-127422449D01*
X130376429Y-127572198D01*
X130378768Y-127576788D01*
X130480586Y-127716928D01*
X130603072Y-127839414D01*
X130743212Y-127941232D01*
X130897555Y-128019873D01*
X131062299Y-128073402D01*
X131233389Y-128100500D01*
X131233390Y-128100500D01*
X131406610Y-128100500D01*
X131406611Y-128100500D01*
X131577701Y-128073402D01*
X131742445Y-128019873D01*
X131896788Y-127941232D01*
X132036928Y-127839414D01*
X132159414Y-127716928D01*
X132261232Y-127576788D01*
X132339873Y-127422445D01*
X132393402Y-127257701D01*
X132420500Y-127086611D01*
X132420500Y-126913389D01*
X132759500Y-126913389D01*
X132759500Y-127086610D01*
X132786516Y-127257187D01*
X132786598Y-127257701D01*
X132840127Y-127422445D01*
X132918768Y-127576788D01*
X133020586Y-127716928D01*
X133143072Y-127839414D01*
X133283212Y-127941232D01*
X133437555Y-128019873D01*
X133602299Y-128073402D01*
X133773389Y-128100500D01*
X133773390Y-128100500D01*
X133946610Y-128100500D01*
X133946611Y-128100500D01*
X134117701Y-128073402D01*
X134282445Y-128019873D01*
X134436788Y-127941232D01*
X134576928Y-127839414D01*
X134699414Y-127716928D01*
X134801232Y-127576788D01*
X134879873Y-127422445D01*
X134933402Y-127257701D01*
X134960500Y-127086611D01*
X134960500Y-126913389D01*
X135299500Y-126913389D01*
X135299500Y-127086610D01*
X135326516Y-127257187D01*
X135326598Y-127257701D01*
X135380127Y-127422445D01*
X135458768Y-127576788D01*
X135560586Y-127716928D01*
X135683072Y-127839414D01*
X135823212Y-127941232D01*
X135977555Y-128019873D01*
X136142299Y-128073402D01*
X136313389Y-128100500D01*
X136313390Y-128100500D01*
X136486610Y-128100500D01*
X136486611Y-128100500D01*
X136657701Y-128073402D01*
X136822445Y-128019873D01*
X136976788Y-127941232D01*
X137116928Y-127839414D01*
X137239414Y-127716928D01*
X137341232Y-127576788D01*
X137419873Y-127422445D01*
X137473402Y-127257701D01*
X137500500Y-127086611D01*
X137500500Y-126913389D01*
X137839500Y-126913389D01*
X137839500Y-127086610D01*
X137866516Y-127257187D01*
X137866598Y-127257701D01*
X137920127Y-127422445D01*
X137998768Y-127576788D01*
X138100586Y-127716928D01*
X138223072Y-127839414D01*
X138363212Y-127941232D01*
X138517555Y-128019873D01*
X138682299Y-128073402D01*
X138853389Y-128100500D01*
X138853390Y-128100500D01*
X139026610Y-128100500D01*
X139026611Y-128100500D01*
X139197701Y-128073402D01*
X139362445Y-128019873D01*
X139516788Y-127941232D01*
X139656928Y-127839414D01*
X139779414Y-127716928D01*
X139881232Y-127576788D01*
X139959873Y-127422445D01*
X139984264Y-127347375D01*
X140023700Y-127289703D01*
X140088058Y-127262504D01*
X140156905Y-127274418D01*
X140208381Y-127321662D01*
X140220855Y-127349700D01*
X140244187Y-127426614D01*
X140304490Y-127572198D01*
X140351158Y-127659506D01*
X140397533Y-127728912D01*
X140397534Y-127728913D01*
X140997037Y-127129409D01*
X141014075Y-127192993D01*
X141079901Y-127307007D01*
X141172993Y-127400099D01*
X141287007Y-127465925D01*
X141350590Y-127482962D01*
X140751085Y-128082465D01*
X140820493Y-128128841D01*
X140907801Y-128175509D01*
X141053387Y-128235814D01*
X141148135Y-128264555D01*
X141302699Y-128295298D01*
X141401210Y-128305000D01*
X141558790Y-128305000D01*
X141657299Y-128295298D01*
X141657302Y-128295298D01*
X141811864Y-128264555D01*
X141906612Y-128235814D01*
X142052198Y-128175509D01*
X142139501Y-128128844D01*
X142139511Y-128128838D01*
X142208912Y-128082465D01*
X141609409Y-127482962D01*
X141672993Y-127465925D01*
X141787007Y-127400099D01*
X141880099Y-127307007D01*
X141945925Y-127192993D01*
X141962962Y-127129409D01*
X142562465Y-127728912D01*
X142608838Y-127659511D01*
X142608844Y-127659501D01*
X142655509Y-127572198D01*
X142715815Y-127426609D01*
X142739144Y-127349702D01*
X142777441Y-127291263D01*
X142841253Y-127262806D01*
X142910320Y-127273365D01*
X142962714Y-127319589D01*
X142975735Y-127347375D01*
X142987239Y-127382782D01*
X143000128Y-127422449D01*
X143076429Y-127572198D01*
X143078768Y-127576788D01*
X143180586Y-127716928D01*
X143303072Y-127839414D01*
X143443212Y-127941232D01*
X143597555Y-128019873D01*
X143762299Y-128073402D01*
X143933389Y-128100500D01*
X143933390Y-128100500D01*
X144106610Y-128100500D01*
X144106611Y-128100500D01*
X144277701Y-128073402D01*
X144442445Y-128019873D01*
X144596788Y-127941232D01*
X144736928Y-127839414D01*
X144859414Y-127716928D01*
X144961232Y-127576788D01*
X145039873Y-127422445D01*
X145093402Y-127257701D01*
X145120500Y-127086611D01*
X145120500Y-126913389D01*
X145459500Y-126913389D01*
X145459500Y-127086610D01*
X145486516Y-127257187D01*
X145486598Y-127257701D01*
X145540127Y-127422445D01*
X145618768Y-127576788D01*
X145720586Y-127716928D01*
X145843072Y-127839414D01*
X145983212Y-127941232D01*
X146137555Y-128019873D01*
X146302299Y-128073402D01*
X146473389Y-128100500D01*
X146473390Y-128100500D01*
X146646610Y-128100500D01*
X146646611Y-128100500D01*
X146817701Y-128073402D01*
X146982445Y-128019873D01*
X147136788Y-127941232D01*
X147276928Y-127839414D01*
X147399414Y-127716928D01*
X147501232Y-127576788D01*
X147579873Y-127422445D01*
X147633402Y-127257701D01*
X147660500Y-127086611D01*
X147660500Y-126913389D01*
X147999500Y-126913389D01*
X147999500Y-127086610D01*
X148026516Y-127257187D01*
X148026598Y-127257701D01*
X148080127Y-127422445D01*
X148158768Y-127576788D01*
X148260586Y-127716928D01*
X148383072Y-127839414D01*
X148523212Y-127941232D01*
X148677555Y-128019873D01*
X148842299Y-128073402D01*
X149013389Y-128100500D01*
X149013390Y-128100500D01*
X149186610Y-128100500D01*
X149186611Y-128100500D01*
X149357701Y-128073402D01*
X149522445Y-128019873D01*
X149676788Y-127941232D01*
X149816928Y-127839414D01*
X149939414Y-127716928D01*
X150041232Y-127576788D01*
X150119873Y-127422445D01*
X150173402Y-127257701D01*
X150200500Y-127086611D01*
X150200500Y-126913389D01*
X150539500Y-126913389D01*
X150539500Y-127086610D01*
X150566516Y-127257187D01*
X150566598Y-127257701D01*
X150620127Y-127422445D01*
X150698768Y-127576788D01*
X150800586Y-127716928D01*
X150923072Y-127839414D01*
X151063212Y-127941232D01*
X151217555Y-128019873D01*
X151382299Y-128073402D01*
X151553389Y-128100500D01*
X151553390Y-128100500D01*
X151726610Y-128100500D01*
X151726611Y-128100500D01*
X151897701Y-128073402D01*
X152062445Y-128019873D01*
X152216788Y-127941232D01*
X152356928Y-127839414D01*
X152479414Y-127716928D01*
X152581232Y-127576788D01*
X152659873Y-127422445D01*
X152684264Y-127347375D01*
X152723700Y-127289703D01*
X152788058Y-127262504D01*
X152856905Y-127274418D01*
X152908381Y-127321662D01*
X152920855Y-127349700D01*
X152944187Y-127426614D01*
X153004490Y-127572198D01*
X153051158Y-127659506D01*
X153097533Y-127728912D01*
X153097533Y-127728913D01*
X153697037Y-127129409D01*
X153714075Y-127192993D01*
X153779901Y-127307007D01*
X153872993Y-127400099D01*
X153987007Y-127465925D01*
X154050590Y-127482962D01*
X153451085Y-128082465D01*
X153520493Y-128128841D01*
X153607801Y-128175509D01*
X153753387Y-128235814D01*
X153848135Y-128264555D01*
X154002699Y-128295298D01*
X154101210Y-128305000D01*
X154258790Y-128305000D01*
X154357299Y-128295298D01*
X154357302Y-128295298D01*
X154511864Y-128264555D01*
X154606612Y-128235814D01*
X154752198Y-128175509D01*
X154839501Y-128128844D01*
X154839511Y-128128838D01*
X154908912Y-128082465D01*
X154309409Y-127482962D01*
X154372993Y-127465925D01*
X154487007Y-127400099D01*
X154580099Y-127307007D01*
X154645925Y-127192993D01*
X154662962Y-127129409D01*
X155262465Y-127728912D01*
X155308838Y-127659511D01*
X155308844Y-127659501D01*
X155355509Y-127572198D01*
X155415815Y-127426609D01*
X155439144Y-127349702D01*
X155477441Y-127291263D01*
X155541253Y-127262806D01*
X155610320Y-127273365D01*
X155662714Y-127319589D01*
X155675735Y-127347375D01*
X155687239Y-127382782D01*
X155700128Y-127422449D01*
X155776429Y-127572198D01*
X155778768Y-127576788D01*
X155880586Y-127716928D01*
X156003072Y-127839414D01*
X156143212Y-127941232D01*
X156297555Y-128019873D01*
X156462299Y-128073402D01*
X156633389Y-128100500D01*
X156633390Y-128100500D01*
X156806610Y-128100500D01*
X156806611Y-128100500D01*
X156977701Y-128073402D01*
X157142445Y-128019873D01*
X157296788Y-127941232D01*
X157436928Y-127839414D01*
X157559414Y-127716928D01*
X157661232Y-127576788D01*
X157739873Y-127422445D01*
X157793402Y-127257701D01*
X157820500Y-127086611D01*
X157820500Y-126913389D01*
X158159500Y-126913389D01*
X158159500Y-127086610D01*
X158186516Y-127257187D01*
X158186598Y-127257701D01*
X158240127Y-127422445D01*
X158318768Y-127576788D01*
X158420586Y-127716928D01*
X158543072Y-127839414D01*
X158683212Y-127941232D01*
X158837555Y-128019873D01*
X159002299Y-128073402D01*
X159173389Y-128100500D01*
X159173390Y-128100500D01*
X159346610Y-128100500D01*
X159346611Y-128100500D01*
X159517701Y-128073402D01*
X159682445Y-128019873D01*
X159836788Y-127941232D01*
X159976928Y-127839414D01*
X160099414Y-127716928D01*
X160201232Y-127576788D01*
X160279873Y-127422445D01*
X160333402Y-127257701D01*
X160360500Y-127086611D01*
X160360500Y-126913389D01*
X160333402Y-126742299D01*
X160279873Y-126577555D01*
X160201232Y-126423212D01*
X160099414Y-126283072D01*
X159976928Y-126160586D01*
X159836788Y-126058768D01*
X159682445Y-125980127D01*
X159517701Y-125926598D01*
X159517699Y-125926597D01*
X159517698Y-125926597D01*
X159386271Y-125905781D01*
X159346611Y-125899500D01*
X159173389Y-125899500D01*
X159133728Y-125905781D01*
X159002302Y-125926597D01*
X158837552Y-125980128D01*
X158683211Y-126058768D01*
X158612126Y-126110415D01*
X158543072Y-126160586D01*
X158543070Y-126160588D01*
X158543069Y-126160588D01*
X158420588Y-126283069D01*
X158420588Y-126283070D01*
X158420586Y-126283072D01*
X158413725Y-126292516D01*
X158318768Y-126423211D01*
X158240128Y-126577552D01*
X158186597Y-126742302D01*
X158159500Y-126913389D01*
X157820500Y-126913389D01*
X157793402Y-126742299D01*
X157739873Y-126577555D01*
X157661232Y-126423212D01*
X157559414Y-126283072D01*
X157436928Y-126160586D01*
X157296788Y-126058768D01*
X157142445Y-125980127D01*
X156977701Y-125926598D01*
X156977699Y-125926597D01*
X156977698Y-125926597D01*
X156846271Y-125905781D01*
X156806611Y-125899500D01*
X156633389Y-125899500D01*
X156593728Y-125905781D01*
X156462302Y-125926597D01*
X156297552Y-125980128D01*
X156143211Y-126058768D01*
X156072126Y-126110415D01*
X156003072Y-126160586D01*
X156003070Y-126160588D01*
X156003069Y-126160588D01*
X155880588Y-126283069D01*
X155880588Y-126283070D01*
X155880586Y-126283072D01*
X155873725Y-126292516D01*
X155778768Y-126423211D01*
X155719485Y-126539562D01*
X155671511Y-126590358D01*
X155603690Y-126607153D01*
X155537555Y-126584616D01*
X155494103Y-126529901D01*
X155485000Y-126483267D01*
X155485000Y-126360214D01*
X155482106Y-126306237D01*
X155482106Y-126306235D01*
X155446558Y-126166960D01*
X155423136Y-126110415D01*
X155423135Y-126110415D01*
X154662962Y-126870589D01*
X154645925Y-126807007D01*
X154580099Y-126692993D01*
X154487007Y-126599901D01*
X154372993Y-126534075D01*
X154309410Y-126517037D01*
X155069583Y-125756863D01*
X155069583Y-125756862D01*
X155013052Y-125733447D01*
X155013035Y-125733440D01*
X154962053Y-125715455D01*
X154819780Y-125695000D01*
X153540214Y-125695000D01*
X153486237Y-125697893D01*
X153486235Y-125697893D01*
X153346969Y-125733438D01*
X153346956Y-125733442D01*
X153290415Y-125756862D01*
X154050590Y-126517037D01*
X153987007Y-126534075D01*
X153872993Y-126599901D01*
X153779901Y-126692993D01*
X153714075Y-126807007D01*
X153697037Y-126870590D01*
X152936862Y-126110415D01*
X152913449Y-126166940D01*
X152895455Y-126217946D01*
X152875000Y-126360219D01*
X152875000Y-126483267D01*
X152855315Y-126550306D01*
X152802511Y-126596061D01*
X152733353Y-126606005D01*
X152669797Y-126576980D01*
X152640515Y-126539562D01*
X152581231Y-126423211D01*
X152479414Y-126283072D01*
X152356928Y-126160586D01*
X152216788Y-126058768D01*
X152062445Y-125980127D01*
X151897701Y-125926598D01*
X151897699Y-125926597D01*
X151897698Y-125926597D01*
X151856990Y-125920150D01*
X151849541Y-125918970D01*
X151726611Y-125899500D01*
X151553389Y-125899500D01*
X151513728Y-125905781D01*
X151382302Y-125926597D01*
X151217552Y-125980128D01*
X151063211Y-126058768D01*
X150992126Y-126110415D01*
X150923072Y-126160586D01*
X150923070Y-126160588D01*
X150923069Y-126160588D01*
X150800588Y-126283069D01*
X150800588Y-126283070D01*
X150800586Y-126283072D01*
X150793725Y-126292516D01*
X150698768Y-126423211D01*
X150620128Y-126577552D01*
X150566597Y-126742302D01*
X150539500Y-126913389D01*
X150200500Y-126913389D01*
X150173402Y-126742299D01*
X150119873Y-126577555D01*
X150041232Y-126423212D01*
X149939414Y-126283072D01*
X149816928Y-126160586D01*
X149676788Y-126058768D01*
X149522445Y-125980127D01*
X149357701Y-125926598D01*
X149357699Y-125926597D01*
X149357698Y-125926597D01*
X149226271Y-125905781D01*
X149186611Y-125899500D01*
X149013389Y-125899500D01*
X148973728Y-125905781D01*
X148842302Y-125926597D01*
X148677552Y-125980128D01*
X148523211Y-126058768D01*
X148452126Y-126110415D01*
X148383072Y-126160586D01*
X148383070Y-126160588D01*
X148383069Y-126160588D01*
X148260588Y-126283069D01*
X148260588Y-126283070D01*
X148260586Y-126283072D01*
X148253725Y-126292516D01*
X148158768Y-126423211D01*
X148080128Y-126577552D01*
X148026597Y-126742302D01*
X147999500Y-126913389D01*
X147660500Y-126913389D01*
X147633402Y-126742299D01*
X147579873Y-126577555D01*
X147501232Y-126423212D01*
X147399414Y-126283072D01*
X147276928Y-126160586D01*
X147136788Y-126058768D01*
X146982445Y-125980127D01*
X146817701Y-125926598D01*
X146817699Y-125926597D01*
X146817698Y-125926597D01*
X146686271Y-125905781D01*
X146646611Y-125899500D01*
X146473389Y-125899500D01*
X146433728Y-125905781D01*
X146302302Y-125926597D01*
X146137552Y-125980128D01*
X145983211Y-126058768D01*
X145912126Y-126110415D01*
X145843072Y-126160586D01*
X145843070Y-126160588D01*
X145843069Y-126160588D01*
X145720588Y-126283069D01*
X145720588Y-126283070D01*
X145720586Y-126283072D01*
X145713725Y-126292516D01*
X145618768Y-126423211D01*
X145540128Y-126577552D01*
X145486597Y-126742302D01*
X145459500Y-126913389D01*
X145120500Y-126913389D01*
X145093402Y-126742299D01*
X145039873Y-126577555D01*
X144961232Y-126423212D01*
X144859414Y-126283072D01*
X144736928Y-126160586D01*
X144596788Y-126058768D01*
X144442445Y-125980127D01*
X144277701Y-125926598D01*
X144277699Y-125926597D01*
X144277698Y-125926597D01*
X144146271Y-125905781D01*
X144106611Y-125899500D01*
X143933389Y-125899500D01*
X143893728Y-125905781D01*
X143762302Y-125926597D01*
X143597552Y-125980128D01*
X143443211Y-126058768D01*
X143372126Y-126110415D01*
X143303072Y-126160586D01*
X143303070Y-126160588D01*
X143303069Y-126160588D01*
X143180588Y-126283069D01*
X143180588Y-126283070D01*
X143180586Y-126283072D01*
X143173725Y-126292516D01*
X143078768Y-126423211D01*
X143019485Y-126539562D01*
X142971511Y-126590358D01*
X142903690Y-126607153D01*
X142837555Y-126584616D01*
X142794103Y-126529901D01*
X142785000Y-126483267D01*
X142785000Y-126360214D01*
X142782106Y-126306237D01*
X142782106Y-126306235D01*
X142746558Y-126166960D01*
X142723136Y-126110415D01*
X142723135Y-126110415D01*
X141962962Y-126870589D01*
X141945925Y-126807007D01*
X141880099Y-126692993D01*
X141787007Y-126599901D01*
X141672993Y-126534075D01*
X141609410Y-126517037D01*
X142369583Y-125756863D01*
X142369583Y-125756862D01*
X142313052Y-125733447D01*
X142313035Y-125733440D01*
X142262053Y-125715455D01*
X142119780Y-125695000D01*
X140840214Y-125695000D01*
X140786237Y-125697893D01*
X140786235Y-125697893D01*
X140646969Y-125733438D01*
X140646956Y-125733442D01*
X140590415Y-125756862D01*
X141350590Y-126517037D01*
X141287007Y-126534075D01*
X141172993Y-126599901D01*
X141079901Y-126692993D01*
X141014075Y-126807007D01*
X140997037Y-126870590D01*
X140236862Y-126110415D01*
X140213449Y-126166940D01*
X140195455Y-126217946D01*
X140175000Y-126360219D01*
X140175000Y-126483267D01*
X140155315Y-126550306D01*
X140102511Y-126596061D01*
X140033353Y-126606005D01*
X139969797Y-126576980D01*
X139940515Y-126539562D01*
X139881231Y-126423211D01*
X139779414Y-126283072D01*
X139656928Y-126160586D01*
X139516788Y-126058768D01*
X139362445Y-125980127D01*
X139197701Y-125926598D01*
X139197699Y-125926597D01*
X139197698Y-125926597D01*
X139156990Y-125920150D01*
X139149541Y-125918970D01*
X139026611Y-125899500D01*
X138853389Y-125899500D01*
X138813728Y-125905781D01*
X138682302Y-125926597D01*
X138517552Y-125980128D01*
X138363211Y-126058768D01*
X138292126Y-126110415D01*
X138223072Y-126160586D01*
X138223070Y-126160588D01*
X138223069Y-126160588D01*
X138100588Y-126283069D01*
X138100588Y-126283070D01*
X138100586Y-126283072D01*
X138093725Y-126292516D01*
X137998768Y-126423211D01*
X137920128Y-126577552D01*
X137866597Y-126742302D01*
X137839500Y-126913389D01*
X137500500Y-126913389D01*
X137473402Y-126742299D01*
X137419873Y-126577555D01*
X137341232Y-126423212D01*
X137239414Y-126283072D01*
X137116928Y-126160586D01*
X136976788Y-126058768D01*
X136822445Y-125980127D01*
X136657701Y-125926598D01*
X136657699Y-125926597D01*
X136657698Y-125926597D01*
X136526271Y-125905781D01*
X136486611Y-125899500D01*
X136313389Y-125899500D01*
X136273728Y-125905781D01*
X136142302Y-125926597D01*
X135977552Y-125980128D01*
X135823211Y-126058768D01*
X135752126Y-126110415D01*
X135683072Y-126160586D01*
X135683070Y-126160588D01*
X135683069Y-126160588D01*
X135560588Y-126283069D01*
X135560588Y-126283070D01*
X135560586Y-126283072D01*
X135553725Y-126292516D01*
X135458768Y-126423211D01*
X135380128Y-126577552D01*
X135326597Y-126742302D01*
X135299500Y-126913389D01*
X134960500Y-126913389D01*
X134933402Y-126742299D01*
X134879873Y-126577555D01*
X134801232Y-126423212D01*
X134699414Y-126283072D01*
X134576928Y-126160586D01*
X134436788Y-126058768D01*
X134282445Y-125980127D01*
X134117701Y-125926598D01*
X134117699Y-125926597D01*
X134117698Y-125926597D01*
X133986271Y-125905781D01*
X133946611Y-125899500D01*
X133773389Y-125899500D01*
X133733728Y-125905781D01*
X133602302Y-125926597D01*
X133437552Y-125980128D01*
X133283211Y-126058768D01*
X133212126Y-126110415D01*
X133143072Y-126160586D01*
X133143070Y-126160588D01*
X133143069Y-126160588D01*
X133020588Y-126283069D01*
X133020588Y-126283070D01*
X133020586Y-126283072D01*
X133013725Y-126292516D01*
X132918768Y-126423211D01*
X132840128Y-126577552D01*
X132786597Y-126742302D01*
X132759500Y-126913389D01*
X132420500Y-126913389D01*
X132393402Y-126742299D01*
X132339873Y-126577555D01*
X132261232Y-126423212D01*
X132159414Y-126283072D01*
X132036928Y-126160586D01*
X131896788Y-126058768D01*
X131742445Y-125980127D01*
X131577701Y-125926598D01*
X131577699Y-125926597D01*
X131577698Y-125926597D01*
X131446271Y-125905781D01*
X131406611Y-125899500D01*
X131233389Y-125899500D01*
X131193728Y-125905781D01*
X131062302Y-125926597D01*
X130897552Y-125980128D01*
X130743211Y-126058768D01*
X130672126Y-126110415D01*
X130603072Y-126160586D01*
X130603070Y-126160588D01*
X130603069Y-126160588D01*
X130480588Y-126283069D01*
X130480588Y-126283070D01*
X130480586Y-126283072D01*
X130473725Y-126292516D01*
X130378768Y-126423211D01*
X130319485Y-126539562D01*
X130271511Y-126590358D01*
X130203690Y-126607153D01*
X130137555Y-126584616D01*
X130094103Y-126529901D01*
X130085000Y-126483267D01*
X130085000Y-126360214D01*
X130082106Y-126306237D01*
X130082106Y-126306235D01*
X130046558Y-126166960D01*
X130023136Y-126110415D01*
X130023135Y-126110415D01*
X129262962Y-126870589D01*
X129245925Y-126807007D01*
X129180099Y-126692993D01*
X129087007Y-126599901D01*
X128972993Y-126534075D01*
X128909410Y-126517037D01*
X129669583Y-125756863D01*
X129669583Y-125756862D01*
X129613052Y-125733447D01*
X129613035Y-125733440D01*
X129562053Y-125715455D01*
X129419780Y-125695000D01*
X128140214Y-125695000D01*
X128086237Y-125697893D01*
X128086235Y-125697893D01*
X127946969Y-125733438D01*
X127946956Y-125733442D01*
X127890415Y-125756862D01*
X128650590Y-126517037D01*
X128587007Y-126534075D01*
X128472993Y-126599901D01*
X128379901Y-126692993D01*
X128314075Y-126807007D01*
X128297037Y-126870590D01*
X127536862Y-126110415D01*
X127513449Y-126166940D01*
X127495455Y-126217946D01*
X127475000Y-126360219D01*
X127475000Y-126483267D01*
X127455315Y-126550306D01*
X127402511Y-126596061D01*
X127333353Y-126606005D01*
X127269797Y-126576980D01*
X127240515Y-126539562D01*
X127181231Y-126423211D01*
X127079414Y-126283072D01*
X126956928Y-126160586D01*
X126816788Y-126058768D01*
X126662445Y-125980127D01*
X126497701Y-125926598D01*
X126497699Y-125926597D01*
X126497698Y-125926597D01*
X126456990Y-125920150D01*
X126449541Y-125918970D01*
X126326611Y-125899500D01*
X126153389Y-125899500D01*
X126113728Y-125905781D01*
X125982302Y-125926597D01*
X125817552Y-125980128D01*
X125663211Y-126058768D01*
X125592126Y-126110415D01*
X125523072Y-126160586D01*
X125523070Y-126160588D01*
X125523069Y-126160588D01*
X125400588Y-126283069D01*
X125400588Y-126283070D01*
X125400586Y-126283072D01*
X125393725Y-126292516D01*
X125298768Y-126423211D01*
X125220128Y-126577552D01*
X125166597Y-126742302D01*
X125139500Y-126913389D01*
X124800500Y-126913389D01*
X124773402Y-126742299D01*
X124719873Y-126577555D01*
X124641232Y-126423212D01*
X124539414Y-126283072D01*
X124416928Y-126160586D01*
X124276788Y-126058768D01*
X124122445Y-125980127D01*
X123957701Y-125926598D01*
X123957699Y-125926597D01*
X123957698Y-125926597D01*
X123826271Y-125905781D01*
X123786611Y-125899500D01*
X123613389Y-125899500D01*
X123573728Y-125905781D01*
X123442302Y-125926597D01*
X123277552Y-125980128D01*
X123123211Y-126058768D01*
X123052126Y-126110415D01*
X122983072Y-126160586D01*
X122983070Y-126160588D01*
X122983069Y-126160588D01*
X122860588Y-126283069D01*
X122860588Y-126283070D01*
X122860586Y-126283072D01*
X122853725Y-126292516D01*
X122758768Y-126423211D01*
X122680128Y-126577552D01*
X122626597Y-126742302D01*
X122599500Y-126913389D01*
X122260500Y-126913389D01*
X122233402Y-126742299D01*
X122179873Y-126577555D01*
X122101232Y-126423212D01*
X121999414Y-126283072D01*
X121876928Y-126160586D01*
X121736788Y-126058768D01*
X121582445Y-125980127D01*
X121417701Y-125926598D01*
X121417699Y-125926597D01*
X121417698Y-125926597D01*
X121286271Y-125905781D01*
X121246611Y-125899500D01*
X121073389Y-125899500D01*
X121033728Y-125905781D01*
X120902302Y-125926597D01*
X120737552Y-125980128D01*
X120583211Y-126058768D01*
X120512126Y-126110415D01*
X120443072Y-126160586D01*
X120443070Y-126160588D01*
X120443069Y-126160588D01*
X120320588Y-126283069D01*
X120320588Y-126283070D01*
X120320586Y-126283072D01*
X120313725Y-126292516D01*
X120218768Y-126423211D01*
X120140128Y-126577552D01*
X120086597Y-126742302D01*
X120059500Y-126913389D01*
X119720500Y-126913389D01*
X119693402Y-126742299D01*
X119639873Y-126577555D01*
X119561232Y-126423212D01*
X119459414Y-126283072D01*
X119336928Y-126160586D01*
X119196788Y-126058768D01*
X119042445Y-125980127D01*
X118877701Y-125926598D01*
X118877699Y-125926597D01*
X118877698Y-125926597D01*
X118746271Y-125905781D01*
X118706611Y-125899500D01*
X118533389Y-125899500D01*
X118493728Y-125905781D01*
X118362302Y-125926597D01*
X118197552Y-125980128D01*
X118043211Y-126058768D01*
X117972126Y-126110415D01*
X117903072Y-126160586D01*
X117903070Y-126160588D01*
X117903069Y-126160588D01*
X117780588Y-126283069D01*
X117780588Y-126283070D01*
X117780586Y-126283072D01*
X117773725Y-126292516D01*
X117678768Y-126423211D01*
X117619485Y-126539562D01*
X117571511Y-126590358D01*
X117503690Y-126607153D01*
X117437555Y-126584616D01*
X117394103Y-126529901D01*
X117385000Y-126483267D01*
X117385000Y-126360214D01*
X117382106Y-126306237D01*
X117382106Y-126306235D01*
X117346558Y-126166960D01*
X117323136Y-126110415D01*
X117323135Y-126110415D01*
X116562962Y-126870589D01*
X116545925Y-126807007D01*
X116480099Y-126692993D01*
X116387007Y-126599901D01*
X116272993Y-126534075D01*
X116209410Y-126517037D01*
X116969583Y-125756863D01*
X116969583Y-125756862D01*
X116913052Y-125733447D01*
X116913035Y-125733440D01*
X116862053Y-125715455D01*
X116719780Y-125695000D01*
X115440214Y-125695000D01*
X115386237Y-125697893D01*
X115386235Y-125697893D01*
X115246969Y-125733438D01*
X115246956Y-125733442D01*
X115190415Y-125756862D01*
X115950590Y-126517037D01*
X115887007Y-126534075D01*
X115772993Y-126599901D01*
X115679901Y-126692993D01*
X115614075Y-126807007D01*
X115597037Y-126870589D01*
X114836862Y-126110415D01*
X114813449Y-126166940D01*
X114795455Y-126217946D01*
X114775000Y-126360219D01*
X114775000Y-126483267D01*
X114755315Y-126550306D01*
X114702511Y-126596061D01*
X114633353Y-126606005D01*
X114569797Y-126576980D01*
X114540515Y-126539562D01*
X114481231Y-126423211D01*
X114379414Y-126283072D01*
X114256928Y-126160586D01*
X114116788Y-126058768D01*
X113962445Y-125980127D01*
X113797701Y-125926598D01*
X113797699Y-125926597D01*
X113797698Y-125926597D01*
X113756990Y-125920150D01*
X113749541Y-125918970D01*
X113626611Y-125899500D01*
X113453389Y-125899500D01*
X113413728Y-125905781D01*
X113282302Y-125926597D01*
X113117552Y-125980128D01*
X112963211Y-126058768D01*
X112892126Y-126110415D01*
X112823072Y-126160586D01*
X112823070Y-126160588D01*
X112823069Y-126160588D01*
X112700588Y-126283069D01*
X112700588Y-126283070D01*
X112700586Y-126283072D01*
X112693725Y-126292516D01*
X112598768Y-126423211D01*
X112520128Y-126577552D01*
X112466597Y-126742302D01*
X112439500Y-126913389D01*
X112100499Y-126913389D01*
X112100499Y-126352128D01*
X112094091Y-126292517D01*
X112090568Y-126283072D01*
X112043797Y-126157671D01*
X112043793Y-126157664D01*
X111957547Y-126042455D01*
X111957544Y-126042452D01*
X111842335Y-125956206D01*
X111842328Y-125956202D01*
X111707482Y-125905908D01*
X111707483Y-125905908D01*
X111647883Y-125899501D01*
X111647881Y-125899500D01*
X111647873Y-125899500D01*
X111647864Y-125899500D01*
X110352129Y-125899500D01*
X110352123Y-125899501D01*
X110292516Y-125905908D01*
X110157671Y-125956202D01*
X110157664Y-125956206D01*
X110042455Y-126042452D01*
X110042452Y-126042455D01*
X109956206Y-126157664D01*
X109956202Y-126157671D01*
X109905908Y-126292517D01*
X109899501Y-126352116D01*
X109899501Y-126352123D01*
X109899500Y-126352135D01*
X105300500Y-126352135D01*
X105300500Y-125210000D01*
X152130000Y-125210000D01*
X156469895Y-125210000D01*
X159834939Y-120876930D01*
X160082662Y-120557944D01*
X160139328Y-120517069D01*
X160180598Y-120510000D01*
X161130000Y-120510000D01*
X161130000Y-116381947D01*
X162500000Y-116381947D01*
X162500000Y-116618052D01*
X162536934Y-116851247D01*
X162609897Y-117075802D01*
X162717087Y-117286174D01*
X162777338Y-117369104D01*
X162777340Y-117369105D01*
X163476212Y-116670233D01*
X163487482Y-116712292D01*
X163559890Y-116837708D01*
X163662292Y-116940110D01*
X163787708Y-117012518D01*
X163829765Y-117023787D01*
X163130893Y-117722658D01*
X163213828Y-117782914D01*
X163424197Y-117890102D01*
X163648752Y-117963065D01*
X163648751Y-117963065D01*
X163881948Y-118000000D01*
X164118052Y-118000000D01*
X164351247Y-117963065D01*
X164575802Y-117890102D01*
X164786163Y-117782918D01*
X164786169Y-117782914D01*
X164869104Y-117722658D01*
X164869105Y-117722658D01*
X164170233Y-117023787D01*
X164212292Y-117012518D01*
X164337708Y-116940110D01*
X164440110Y-116837708D01*
X164512518Y-116712292D01*
X164523787Y-116670234D01*
X165222658Y-117369105D01*
X165222658Y-117369104D01*
X165282914Y-117286169D01*
X165282918Y-117286163D01*
X165390102Y-117075802D01*
X165463065Y-116851247D01*
X165500000Y-116618052D01*
X165500000Y-116381947D01*
X165463065Y-116148752D01*
X165390102Y-115924197D01*
X165282914Y-115713828D01*
X165222658Y-115630894D01*
X165222658Y-115630893D01*
X164523787Y-116329765D01*
X164512518Y-116287708D01*
X164440110Y-116162292D01*
X164337708Y-116059890D01*
X164212292Y-115987482D01*
X164170234Y-115976212D01*
X164869105Y-115277340D01*
X164869104Y-115277339D01*
X164786174Y-115217087D01*
X164575802Y-115109897D01*
X164351247Y-115036934D01*
X164351248Y-115036934D01*
X164118052Y-115000000D01*
X163881948Y-115000000D01*
X163648752Y-115036934D01*
X163424197Y-115109897D01*
X163213830Y-115217084D01*
X163130894Y-115277340D01*
X163829766Y-115976212D01*
X163787708Y-115987482D01*
X163662292Y-116059890D01*
X163559890Y-116162292D01*
X163487482Y-116287708D01*
X163476212Y-116329765D01*
X162777340Y-115630894D01*
X162717084Y-115713830D01*
X162609897Y-115924197D01*
X162536934Y-116148752D01*
X162500000Y-116381947D01*
X161130000Y-116381947D01*
X161130000Y-115710000D01*
X160180598Y-115710000D01*
X160113559Y-115690315D01*
X160082664Y-115662059D01*
X159879658Y-115400654D01*
X159879658Y-115400653D01*
X156469895Y-111010000D01*
X152130000Y-111010000D01*
X152130000Y-125210000D01*
X105300500Y-125210000D01*
X105300500Y-109133389D01*
X109899500Y-109133389D01*
X109899500Y-109306610D01*
X109917967Y-109423211D01*
X109926598Y-109477701D01*
X109980127Y-109642445D01*
X110058768Y-109796788D01*
X110160586Y-109936928D01*
X110283072Y-110059414D01*
X110423212Y-110161232D01*
X110577555Y-110239873D01*
X110742299Y-110293402D01*
X110913389Y-110320500D01*
X110913390Y-110320500D01*
X111086610Y-110320500D01*
X111086611Y-110320500D01*
X111257701Y-110293402D01*
X111422445Y-110239873D01*
X111576788Y-110161232D01*
X111716928Y-110059414D01*
X111839414Y-109936928D01*
X111941232Y-109796788D01*
X112019873Y-109642445D01*
X112073402Y-109477701D01*
X112100500Y-109306611D01*
X112100500Y-109133389D01*
X112073402Y-108962299D01*
X112019873Y-108797555D01*
X111941232Y-108643212D01*
X111839414Y-108503072D01*
X111716928Y-108380586D01*
X111576788Y-108278768D01*
X111422445Y-108200127D01*
X111257701Y-108146598D01*
X111257699Y-108146597D01*
X111257698Y-108146597D01*
X111094951Y-108120821D01*
X111086611Y-108119500D01*
X110913389Y-108119500D01*
X110905049Y-108120821D01*
X110742302Y-108146597D01*
X110577552Y-108200128D01*
X110423211Y-108278768D01*
X110343256Y-108336859D01*
X110283072Y-108380586D01*
X110283070Y-108380588D01*
X110283069Y-108380588D01*
X110160588Y-108503069D01*
X110160588Y-108503070D01*
X110160586Y-108503072D01*
X110118871Y-108560488D01*
X110058768Y-108643211D01*
X109980128Y-108797552D01*
X109926597Y-108962302D01*
X109899500Y-109133389D01*
X105300500Y-109133389D01*
X105300500Y-108882940D01*
X105320185Y-108815901D01*
X105336819Y-108795259D01*
X107195259Y-106936819D01*
X107256582Y-106903334D01*
X107282940Y-106900500D01*
X112615499Y-106900500D01*
X112682538Y-106920185D01*
X112728293Y-106972989D01*
X112739499Y-107024500D01*
X112739499Y-108412797D01*
X112719814Y-108479836D01*
X112703180Y-108500478D01*
X112700588Y-108503069D01*
X112700588Y-108503070D01*
X112700586Y-108503072D01*
X112658871Y-108560488D01*
X112598768Y-108643211D01*
X112520128Y-108797552D01*
X112466597Y-108962302D01*
X112439500Y-109133389D01*
X112439500Y-109306610D01*
X112457967Y-109423211D01*
X112466598Y-109477701D01*
X112520127Y-109642445D01*
X112598768Y-109796788D01*
X112700586Y-109936928D01*
X112823072Y-110059414D01*
X112963212Y-110161232D01*
X113117555Y-110239873D01*
X113282299Y-110293402D01*
X113453389Y-110320500D01*
X113453390Y-110320500D01*
X113626610Y-110320500D01*
X113626611Y-110320500D01*
X113797701Y-110293402D01*
X113962445Y-110239873D01*
X114116788Y-110161232D01*
X114256928Y-110059414D01*
X114379414Y-109936928D01*
X114481232Y-109796788D01*
X114540515Y-109680438D01*
X114588489Y-109629641D01*
X114656310Y-109612846D01*
X114722445Y-109635383D01*
X114765897Y-109690098D01*
X114775000Y-109736732D01*
X114775000Y-109859785D01*
X114777893Y-109913762D01*
X114777893Y-109913764D01*
X114813438Y-110053030D01*
X114813440Y-110053037D01*
X114836863Y-110109583D01*
X115597037Y-109349409D01*
X115614075Y-109412993D01*
X115679901Y-109527007D01*
X115772993Y-109620099D01*
X115887007Y-109685925D01*
X115950590Y-109702962D01*
X115190415Y-110463135D01*
X115190415Y-110463136D01*
X115246946Y-110486552D01*
X115297946Y-110504544D01*
X115440219Y-110524999D01*
X115440221Y-110525000D01*
X116719786Y-110525000D01*
X116773762Y-110522106D01*
X116773764Y-110522106D01*
X116913023Y-110486563D01*
X116913035Y-110486559D01*
X116969582Y-110463135D01*
X116209409Y-109702962D01*
X116272993Y-109685925D01*
X116387007Y-109620099D01*
X116480099Y-109527007D01*
X116545925Y-109412993D01*
X116562962Y-109349409D01*
X117323135Y-110109582D01*
X117323137Y-110109582D01*
X117346552Y-110053053D01*
X117364544Y-110002053D01*
X117384999Y-109859780D01*
X117385000Y-109859779D01*
X117385000Y-109736732D01*
X117404685Y-109669693D01*
X117457489Y-109623938D01*
X117526647Y-109613994D01*
X117590203Y-109643019D01*
X117619485Y-109680438D01*
X117678766Y-109796786D01*
X117709357Y-109838890D01*
X117780586Y-109936928D01*
X117903072Y-110059414D01*
X118043212Y-110161232D01*
X118197555Y-110239873D01*
X118362299Y-110293402D01*
X118533389Y-110320500D01*
X118533390Y-110320500D01*
X118706610Y-110320500D01*
X118706611Y-110320500D01*
X118877701Y-110293402D01*
X119042445Y-110239873D01*
X119196788Y-110161232D01*
X119336928Y-110059414D01*
X119459414Y-109936928D01*
X119561232Y-109796788D01*
X119639873Y-109642445D01*
X119693402Y-109477701D01*
X119720500Y-109306611D01*
X119720500Y-109133389D01*
X120059500Y-109133389D01*
X120059500Y-109306610D01*
X120077967Y-109423211D01*
X120086598Y-109477701D01*
X120140127Y-109642445D01*
X120218768Y-109796788D01*
X120320586Y-109936928D01*
X120443072Y-110059414D01*
X120583212Y-110161232D01*
X120737555Y-110239873D01*
X120902299Y-110293402D01*
X121073389Y-110320500D01*
X121073390Y-110320500D01*
X121246610Y-110320500D01*
X121246611Y-110320500D01*
X121417701Y-110293402D01*
X121582445Y-110239873D01*
X121736788Y-110161232D01*
X121876928Y-110059414D01*
X121999414Y-109936928D01*
X122101232Y-109796788D01*
X122179873Y-109642445D01*
X122233402Y-109477701D01*
X122260500Y-109306611D01*
X122260500Y-109133389D01*
X122599500Y-109133389D01*
X122599500Y-109306610D01*
X122617967Y-109423211D01*
X122626598Y-109477701D01*
X122680127Y-109642445D01*
X122758768Y-109796788D01*
X122860586Y-109936928D01*
X122983072Y-110059414D01*
X123123212Y-110161232D01*
X123277555Y-110239873D01*
X123442299Y-110293402D01*
X123613389Y-110320500D01*
X123613390Y-110320500D01*
X123786610Y-110320500D01*
X123786611Y-110320500D01*
X123957701Y-110293402D01*
X124122445Y-110239873D01*
X124276788Y-110161232D01*
X124416928Y-110059414D01*
X124539414Y-109936928D01*
X124641232Y-109796788D01*
X124719873Y-109642445D01*
X124773402Y-109477701D01*
X124800500Y-109306611D01*
X124800500Y-109133389D01*
X125139500Y-109133389D01*
X125139500Y-109306610D01*
X125157967Y-109423211D01*
X125166598Y-109477701D01*
X125220127Y-109642445D01*
X125298768Y-109796788D01*
X125400586Y-109936928D01*
X125523072Y-110059414D01*
X125663212Y-110161232D01*
X125817555Y-110239873D01*
X125982299Y-110293402D01*
X126153389Y-110320500D01*
X126153390Y-110320500D01*
X126326610Y-110320500D01*
X126326611Y-110320500D01*
X126497701Y-110293402D01*
X126662445Y-110239873D01*
X126816788Y-110161232D01*
X126956928Y-110059414D01*
X127079414Y-109936928D01*
X127181232Y-109796788D01*
X127240515Y-109680438D01*
X127288489Y-109629641D01*
X127356310Y-109612846D01*
X127422445Y-109635383D01*
X127465897Y-109690098D01*
X127475000Y-109736732D01*
X127475000Y-109859785D01*
X127477893Y-109913762D01*
X127477893Y-109913764D01*
X127513438Y-110053030D01*
X127513440Y-110053037D01*
X127536863Y-110109583D01*
X128297037Y-109349409D01*
X128314075Y-109412993D01*
X128379901Y-109527007D01*
X128472993Y-109620099D01*
X128587007Y-109685925D01*
X128650590Y-109702962D01*
X127890415Y-110463135D01*
X127890415Y-110463136D01*
X127946946Y-110486552D01*
X127997946Y-110504544D01*
X128140219Y-110524999D01*
X128140221Y-110525000D01*
X129419786Y-110525000D01*
X129473762Y-110522106D01*
X129473764Y-110522106D01*
X129613023Y-110486563D01*
X129613035Y-110486559D01*
X129669582Y-110463135D01*
X128909409Y-109702962D01*
X128972993Y-109685925D01*
X129087007Y-109620099D01*
X129180099Y-109527007D01*
X129245925Y-109412993D01*
X129262962Y-109349409D01*
X130023135Y-110109582D01*
X130023137Y-110109582D01*
X130046552Y-110053053D01*
X130064544Y-110002053D01*
X130084999Y-109859780D01*
X130085000Y-109859779D01*
X130085000Y-109736732D01*
X130104685Y-109669693D01*
X130157489Y-109623938D01*
X130226647Y-109613994D01*
X130290203Y-109643019D01*
X130319485Y-109680438D01*
X130378766Y-109796786D01*
X130409357Y-109838890D01*
X130480586Y-109936928D01*
X130603072Y-110059414D01*
X130743212Y-110161232D01*
X130897555Y-110239873D01*
X131062299Y-110293402D01*
X131233389Y-110320500D01*
X131233390Y-110320500D01*
X131406610Y-110320500D01*
X131406611Y-110320500D01*
X131577701Y-110293402D01*
X131742445Y-110239873D01*
X131896788Y-110161232D01*
X132036928Y-110059414D01*
X132159414Y-109936928D01*
X132261232Y-109796788D01*
X132339873Y-109642445D01*
X132393402Y-109477701D01*
X132420500Y-109306611D01*
X132420500Y-109133389D01*
X132759500Y-109133389D01*
X132759500Y-109306610D01*
X132777967Y-109423211D01*
X132786598Y-109477701D01*
X132840127Y-109642445D01*
X132918768Y-109796788D01*
X133020586Y-109936928D01*
X133143072Y-110059414D01*
X133283212Y-110161232D01*
X133437555Y-110239873D01*
X133602299Y-110293402D01*
X133773389Y-110320500D01*
X133773390Y-110320500D01*
X133946610Y-110320500D01*
X133946611Y-110320500D01*
X134117701Y-110293402D01*
X134282445Y-110239873D01*
X134436788Y-110161232D01*
X134576928Y-110059414D01*
X134699414Y-109936928D01*
X134801232Y-109796788D01*
X134879873Y-109642445D01*
X134933402Y-109477701D01*
X134960500Y-109306611D01*
X134960500Y-109133389D01*
X135299500Y-109133389D01*
X135299500Y-109306610D01*
X135317967Y-109423211D01*
X135326598Y-109477701D01*
X135380127Y-109642445D01*
X135458768Y-109796788D01*
X135560586Y-109936928D01*
X135683072Y-110059414D01*
X135823212Y-110161232D01*
X135977555Y-110239873D01*
X136142299Y-110293402D01*
X136313389Y-110320500D01*
X136313390Y-110320500D01*
X136486610Y-110320500D01*
X136486611Y-110320500D01*
X136657701Y-110293402D01*
X136822445Y-110239873D01*
X136976788Y-110161232D01*
X137116928Y-110059414D01*
X137239414Y-109936928D01*
X137341232Y-109796788D01*
X137419873Y-109642445D01*
X137473402Y-109477701D01*
X137500500Y-109306611D01*
X137500500Y-109133389D01*
X137839500Y-109133389D01*
X137839500Y-109306610D01*
X137857967Y-109423211D01*
X137866598Y-109477701D01*
X137920127Y-109642445D01*
X137998768Y-109796788D01*
X138100586Y-109936928D01*
X138223072Y-110059414D01*
X138363212Y-110161232D01*
X138517555Y-110239873D01*
X138682299Y-110293402D01*
X138853389Y-110320500D01*
X138853390Y-110320500D01*
X139026610Y-110320500D01*
X139026611Y-110320500D01*
X139197701Y-110293402D01*
X139362445Y-110239873D01*
X139516788Y-110161232D01*
X139656928Y-110059414D01*
X139779414Y-109936928D01*
X139881232Y-109796788D01*
X139940515Y-109680438D01*
X139988489Y-109629641D01*
X140056310Y-109612846D01*
X140122445Y-109635383D01*
X140165897Y-109690098D01*
X140175000Y-109736732D01*
X140175000Y-109859785D01*
X140177893Y-109913762D01*
X140177893Y-109913764D01*
X140213438Y-110053030D01*
X140213440Y-110053037D01*
X140236863Y-110109583D01*
X140997037Y-109349409D01*
X141014075Y-109412993D01*
X141079901Y-109527007D01*
X141172993Y-109620099D01*
X141287007Y-109685925D01*
X141350590Y-109702962D01*
X140590415Y-110463135D01*
X140590415Y-110463136D01*
X140646946Y-110486552D01*
X140697946Y-110504544D01*
X140840219Y-110524999D01*
X140840221Y-110525000D01*
X142119786Y-110525000D01*
X142173762Y-110522106D01*
X142173764Y-110522106D01*
X142313023Y-110486563D01*
X142313035Y-110486559D01*
X142369582Y-110463135D01*
X141609409Y-109702962D01*
X141672993Y-109685925D01*
X141787007Y-109620099D01*
X141880099Y-109527007D01*
X141945925Y-109412993D01*
X141962962Y-109349409D01*
X142723135Y-110109582D01*
X142723137Y-110109582D01*
X142746552Y-110053053D01*
X142764544Y-110002053D01*
X142784999Y-109859780D01*
X142785000Y-109859779D01*
X142785000Y-109736732D01*
X142804685Y-109669693D01*
X142857489Y-109623938D01*
X142926647Y-109613994D01*
X142990203Y-109643019D01*
X143019485Y-109680438D01*
X143078766Y-109796786D01*
X143109357Y-109838890D01*
X143180586Y-109936928D01*
X143303072Y-110059414D01*
X143443212Y-110161232D01*
X143597555Y-110239873D01*
X143762299Y-110293402D01*
X143933389Y-110320500D01*
X143933390Y-110320500D01*
X144106610Y-110320500D01*
X144106611Y-110320500D01*
X144277701Y-110293402D01*
X144442445Y-110239873D01*
X144596788Y-110161232D01*
X144736928Y-110059414D01*
X144859414Y-109936928D01*
X144961232Y-109796788D01*
X145039873Y-109642445D01*
X145093402Y-109477701D01*
X145120500Y-109306611D01*
X145120500Y-109133389D01*
X145459500Y-109133389D01*
X145459500Y-109306610D01*
X145477967Y-109423211D01*
X145486598Y-109477701D01*
X145540127Y-109642445D01*
X145618768Y-109796788D01*
X145720586Y-109936928D01*
X145843072Y-110059414D01*
X145983212Y-110161232D01*
X146137555Y-110239873D01*
X146302299Y-110293402D01*
X146473389Y-110320500D01*
X146473390Y-110320500D01*
X146646610Y-110320500D01*
X146646611Y-110320500D01*
X146817701Y-110293402D01*
X146982445Y-110239873D01*
X147136788Y-110161232D01*
X147276928Y-110059414D01*
X147399414Y-109936928D01*
X147501232Y-109796788D01*
X147579873Y-109642445D01*
X147633402Y-109477701D01*
X147660500Y-109306611D01*
X147660500Y-109133389D01*
X147999500Y-109133389D01*
X147999500Y-109306610D01*
X148017967Y-109423211D01*
X148026598Y-109477701D01*
X148080127Y-109642445D01*
X148158768Y-109796788D01*
X148260586Y-109936928D01*
X148383072Y-110059414D01*
X148523212Y-110161232D01*
X148677555Y-110239873D01*
X148842299Y-110293402D01*
X149013389Y-110320500D01*
X149013390Y-110320500D01*
X149186610Y-110320500D01*
X149186611Y-110320500D01*
X149357701Y-110293402D01*
X149522445Y-110239873D01*
X149676788Y-110161232D01*
X149816928Y-110059414D01*
X149939414Y-109936928D01*
X150041232Y-109796788D01*
X150119873Y-109642445D01*
X150173402Y-109477701D01*
X150200500Y-109306611D01*
X150200500Y-109133389D01*
X150539500Y-109133389D01*
X150539500Y-109306610D01*
X150557967Y-109423211D01*
X150566598Y-109477701D01*
X150620127Y-109642445D01*
X150698768Y-109796788D01*
X150800586Y-109936928D01*
X150923072Y-110059414D01*
X151063212Y-110161232D01*
X151217555Y-110239873D01*
X151382299Y-110293402D01*
X151553389Y-110320500D01*
X151553390Y-110320500D01*
X151726610Y-110320500D01*
X151726611Y-110320500D01*
X151897701Y-110293402D01*
X152062445Y-110239873D01*
X152216788Y-110161232D01*
X152356928Y-110059414D01*
X152479414Y-109936928D01*
X152581232Y-109796788D01*
X152640515Y-109680438D01*
X152688489Y-109629641D01*
X152756310Y-109612846D01*
X152822445Y-109635383D01*
X152865897Y-109690098D01*
X152875000Y-109736732D01*
X152875000Y-109859785D01*
X152877893Y-109913762D01*
X152877893Y-109913764D01*
X152913438Y-110053030D01*
X152913440Y-110053037D01*
X152936863Y-110109583D01*
X153697037Y-109349409D01*
X153714075Y-109412993D01*
X153779901Y-109527007D01*
X153872993Y-109620099D01*
X153987007Y-109685925D01*
X154050590Y-109702962D01*
X153290415Y-110463135D01*
X153290415Y-110463136D01*
X153346946Y-110486552D01*
X153397946Y-110504544D01*
X153540219Y-110524999D01*
X153540221Y-110525000D01*
X154819786Y-110525000D01*
X154873762Y-110522106D01*
X154873764Y-110522106D01*
X155013023Y-110486563D01*
X155013035Y-110486559D01*
X155069582Y-110463135D01*
X154309409Y-109702962D01*
X154372993Y-109685925D01*
X154487007Y-109620099D01*
X154580099Y-109527007D01*
X154645925Y-109412993D01*
X154662962Y-109349409D01*
X155423135Y-110109582D01*
X155423137Y-110109582D01*
X155446552Y-110053053D01*
X155464544Y-110002053D01*
X155484999Y-109859780D01*
X155485000Y-109859779D01*
X155485000Y-109736732D01*
X155504685Y-109669693D01*
X155557489Y-109623938D01*
X155626647Y-109613994D01*
X155690203Y-109643019D01*
X155719485Y-109680438D01*
X155778766Y-109796786D01*
X155809357Y-109838890D01*
X155880586Y-109936928D01*
X156003072Y-110059414D01*
X156143212Y-110161232D01*
X156297555Y-110239873D01*
X156462299Y-110293402D01*
X156633389Y-110320500D01*
X156633390Y-110320500D01*
X156806610Y-110320500D01*
X156806611Y-110320500D01*
X156977701Y-110293402D01*
X157142445Y-110239873D01*
X157296788Y-110161232D01*
X157436928Y-110059414D01*
X157559414Y-109936928D01*
X157661232Y-109796788D01*
X157739873Y-109642445D01*
X157793402Y-109477701D01*
X157820500Y-109306611D01*
X157820500Y-109133389D01*
X158159500Y-109133389D01*
X158159500Y-109306610D01*
X158177967Y-109423211D01*
X158186598Y-109477701D01*
X158240127Y-109642445D01*
X158318768Y-109796788D01*
X158420586Y-109936928D01*
X158543072Y-110059414D01*
X158683212Y-110161232D01*
X158837555Y-110239873D01*
X159002299Y-110293402D01*
X159173389Y-110320500D01*
X159173390Y-110320500D01*
X159346610Y-110320500D01*
X159346611Y-110320500D01*
X159517701Y-110293402D01*
X159682445Y-110239873D01*
X159836788Y-110161232D01*
X159976928Y-110059414D01*
X160099414Y-109936928D01*
X160201232Y-109796788D01*
X160279873Y-109642445D01*
X160333402Y-109477701D01*
X160360500Y-109306611D01*
X160360500Y-109133389D01*
X160333402Y-108962299D01*
X160279873Y-108797555D01*
X160201232Y-108643212D01*
X160099414Y-108503072D01*
X159976928Y-108380586D01*
X159836788Y-108278768D01*
X159682445Y-108200127D01*
X159517701Y-108146598D01*
X159517699Y-108146597D01*
X159517698Y-108146597D01*
X159354951Y-108120821D01*
X159346611Y-108119500D01*
X159173389Y-108119500D01*
X159165049Y-108120821D01*
X159002302Y-108146597D01*
X158837552Y-108200128D01*
X158683211Y-108278768D01*
X158603256Y-108336859D01*
X158543072Y-108380586D01*
X158543070Y-108380588D01*
X158543069Y-108380588D01*
X158420588Y-108503069D01*
X158420588Y-108503070D01*
X158420586Y-108503072D01*
X158378871Y-108560488D01*
X158318768Y-108643211D01*
X158240128Y-108797552D01*
X158186597Y-108962302D01*
X158159500Y-109133389D01*
X157820500Y-109133389D01*
X157793402Y-108962299D01*
X157739873Y-108797555D01*
X157661232Y-108643212D01*
X157559414Y-108503072D01*
X157436928Y-108380586D01*
X157296788Y-108278768D01*
X157142445Y-108200127D01*
X156977701Y-108146598D01*
X156977699Y-108146597D01*
X156977698Y-108146597D01*
X156814951Y-108120821D01*
X156806611Y-108119500D01*
X156633389Y-108119500D01*
X156625049Y-108120821D01*
X156462302Y-108146597D01*
X156297552Y-108200128D01*
X156143211Y-108278768D01*
X156063256Y-108336859D01*
X156003072Y-108380586D01*
X156003070Y-108380588D01*
X156003069Y-108380588D01*
X155880588Y-108503069D01*
X155880588Y-108503070D01*
X155880586Y-108503072D01*
X155838871Y-108560488D01*
X155778768Y-108643211D01*
X155700128Y-108797550D01*
X155675736Y-108872622D01*
X155636298Y-108930297D01*
X155571939Y-108957495D01*
X155503092Y-108945580D01*
X155451617Y-108898335D01*
X155439144Y-108870298D01*
X155415814Y-108793387D01*
X155355509Y-108647801D01*
X155308841Y-108560493D01*
X155262465Y-108491086D01*
X155262465Y-108491085D01*
X154662962Y-109090589D01*
X154645925Y-109027007D01*
X154580099Y-108912993D01*
X154487007Y-108819901D01*
X154372993Y-108754075D01*
X154309410Y-108737037D01*
X154908913Y-108137534D01*
X154908912Y-108137533D01*
X154839506Y-108091158D01*
X154752198Y-108044490D01*
X154606612Y-107984185D01*
X154511864Y-107955444D01*
X154357300Y-107924701D01*
X154258790Y-107915000D01*
X154101210Y-107915000D01*
X154002700Y-107924701D01*
X154002697Y-107924701D01*
X153848135Y-107955444D01*
X153753387Y-107984185D01*
X153607801Y-108044490D01*
X153520488Y-108091161D01*
X153451086Y-108137532D01*
X153451085Y-108137533D01*
X154050590Y-108737037D01*
X153987007Y-108754075D01*
X153872993Y-108819901D01*
X153779901Y-108912993D01*
X153714075Y-109027007D01*
X153697037Y-109090589D01*
X153097533Y-108491085D01*
X153097532Y-108491086D01*
X153051161Y-108560488D01*
X153004490Y-108647801D01*
X152944183Y-108793394D01*
X152920854Y-108870299D01*
X152882557Y-108928737D01*
X152818744Y-108957194D01*
X152749677Y-108946633D01*
X152697284Y-108900408D01*
X152684265Y-108872625D01*
X152659873Y-108797555D01*
X152581232Y-108643212D01*
X152479414Y-108503072D01*
X152356928Y-108380586D01*
X152224073Y-108284061D01*
X152224073Y-108284060D01*
X152216790Y-108278769D01*
X152062447Y-108200128D01*
X152062446Y-108200127D01*
X152062445Y-108200127D01*
X151897701Y-108146598D01*
X151897699Y-108146597D01*
X151897698Y-108146597D01*
X151734951Y-108120821D01*
X151726611Y-108119500D01*
X151553389Y-108119500D01*
X151545049Y-108120821D01*
X151382302Y-108146597D01*
X151217552Y-108200128D01*
X151063211Y-108278768D01*
X150983256Y-108336859D01*
X150923072Y-108380586D01*
X150923070Y-108380588D01*
X150923069Y-108380588D01*
X150800588Y-108503069D01*
X150800588Y-108503070D01*
X150800586Y-108503072D01*
X150758871Y-108560488D01*
X150698768Y-108643211D01*
X150620128Y-108797552D01*
X150566597Y-108962302D01*
X150539500Y-109133389D01*
X150200500Y-109133389D01*
X150173402Y-108962299D01*
X150119873Y-108797555D01*
X150041232Y-108643212D01*
X149939414Y-108503072D01*
X149816928Y-108380586D01*
X149676788Y-108278768D01*
X149522445Y-108200127D01*
X149357701Y-108146598D01*
X149357699Y-108146597D01*
X149357698Y-108146597D01*
X149194951Y-108120821D01*
X149186611Y-108119500D01*
X149013389Y-108119500D01*
X149005049Y-108120821D01*
X148842302Y-108146597D01*
X148677552Y-108200128D01*
X148523211Y-108278768D01*
X148443256Y-108336859D01*
X148383072Y-108380586D01*
X148383070Y-108380588D01*
X148383069Y-108380588D01*
X148260588Y-108503069D01*
X148260588Y-108503070D01*
X148260586Y-108503072D01*
X148218871Y-108560488D01*
X148158768Y-108643211D01*
X148080128Y-108797552D01*
X148026597Y-108962302D01*
X147999500Y-109133389D01*
X147660500Y-109133389D01*
X147633402Y-108962299D01*
X147579873Y-108797555D01*
X147501232Y-108643212D01*
X147399414Y-108503072D01*
X147276928Y-108380586D01*
X147136788Y-108278768D01*
X146982445Y-108200127D01*
X146817701Y-108146598D01*
X146817699Y-108146597D01*
X146817698Y-108146597D01*
X146654951Y-108120821D01*
X146646611Y-108119500D01*
X146473389Y-108119500D01*
X146465049Y-108120821D01*
X146302302Y-108146597D01*
X146137552Y-108200128D01*
X145983211Y-108278768D01*
X145903256Y-108336859D01*
X145843072Y-108380586D01*
X145843070Y-108380588D01*
X145843069Y-108380588D01*
X145720588Y-108503069D01*
X145720588Y-108503070D01*
X145720586Y-108503072D01*
X145678871Y-108560488D01*
X145618768Y-108643211D01*
X145540128Y-108797552D01*
X145486597Y-108962302D01*
X145459500Y-109133389D01*
X145120500Y-109133389D01*
X145093402Y-108962299D01*
X145039873Y-108797555D01*
X144961232Y-108643212D01*
X144859414Y-108503072D01*
X144736928Y-108380586D01*
X144596788Y-108278768D01*
X144442445Y-108200127D01*
X144277701Y-108146598D01*
X144277699Y-108146597D01*
X144277698Y-108146597D01*
X144114951Y-108120821D01*
X144106611Y-108119500D01*
X143933389Y-108119500D01*
X143925049Y-108120821D01*
X143762302Y-108146597D01*
X143597552Y-108200128D01*
X143443211Y-108278768D01*
X143363256Y-108336859D01*
X143303072Y-108380586D01*
X143303070Y-108380588D01*
X143303069Y-108380588D01*
X143180588Y-108503069D01*
X143180588Y-108503070D01*
X143180586Y-108503072D01*
X143138871Y-108560488D01*
X143078768Y-108643211D01*
X143000128Y-108797550D01*
X142975736Y-108872622D01*
X142936298Y-108930297D01*
X142871939Y-108957495D01*
X142803092Y-108945580D01*
X142751617Y-108898335D01*
X142739144Y-108870298D01*
X142715814Y-108793387D01*
X142655509Y-108647801D01*
X142608841Y-108560493D01*
X142562465Y-108491086D01*
X142562465Y-108491085D01*
X141962962Y-109090589D01*
X141945925Y-109027007D01*
X141880099Y-108912993D01*
X141787007Y-108819901D01*
X141672993Y-108754075D01*
X141609410Y-108737037D01*
X142208913Y-108137534D01*
X142208912Y-108137533D01*
X142139506Y-108091158D01*
X142052198Y-108044490D01*
X141906612Y-107984185D01*
X141811864Y-107955444D01*
X141657300Y-107924701D01*
X141558790Y-107915000D01*
X141401210Y-107915000D01*
X141302700Y-107924701D01*
X141302697Y-107924701D01*
X141148135Y-107955444D01*
X141053387Y-107984185D01*
X140907801Y-108044490D01*
X140820488Y-108091161D01*
X140751086Y-108137532D01*
X140751085Y-108137533D01*
X141350590Y-108737037D01*
X141287007Y-108754075D01*
X141172993Y-108819901D01*
X141079901Y-108912993D01*
X141014075Y-109027007D01*
X140997037Y-109090589D01*
X140397533Y-108491085D01*
X140397532Y-108491086D01*
X140351161Y-108560488D01*
X140304490Y-108647801D01*
X140244183Y-108793394D01*
X140220854Y-108870299D01*
X140182557Y-108928737D01*
X140118744Y-108957194D01*
X140049677Y-108946633D01*
X139997284Y-108900408D01*
X139984265Y-108872625D01*
X139959873Y-108797555D01*
X139881232Y-108643212D01*
X139779414Y-108503072D01*
X139656928Y-108380586D01*
X139524073Y-108284061D01*
X139524073Y-108284060D01*
X139516790Y-108278769D01*
X139362447Y-108200128D01*
X139362446Y-108200127D01*
X139362445Y-108200127D01*
X139197701Y-108146598D01*
X139197699Y-108146597D01*
X139197698Y-108146597D01*
X139034951Y-108120821D01*
X139026611Y-108119500D01*
X138853389Y-108119500D01*
X138845049Y-108120821D01*
X138682302Y-108146597D01*
X138517552Y-108200128D01*
X138363211Y-108278768D01*
X138283256Y-108336859D01*
X138223072Y-108380586D01*
X138223070Y-108380588D01*
X138223069Y-108380588D01*
X138100588Y-108503069D01*
X138100588Y-108503070D01*
X138100586Y-108503072D01*
X138058871Y-108560488D01*
X137998768Y-108643211D01*
X137920128Y-108797552D01*
X137866597Y-108962302D01*
X137839500Y-109133389D01*
X137500500Y-109133389D01*
X137473402Y-108962299D01*
X137419873Y-108797555D01*
X137341232Y-108643212D01*
X137239414Y-108503072D01*
X137116928Y-108380586D01*
X137001614Y-108296805D01*
X136958949Y-108241476D01*
X136950500Y-108196488D01*
X136950500Y-107174500D01*
X136970185Y-107107461D01*
X137022989Y-107061706D01*
X137074500Y-107050500D01*
X159720613Y-107050500D01*
X159787652Y-107070185D01*
X159808294Y-107086819D01*
X163390349Y-110668874D01*
X163423834Y-110730197D01*
X163418850Y-110799889D01*
X163376978Y-110855822D01*
X163358963Y-110867040D01*
X163318386Y-110887715D01*
X163152786Y-111008028D01*
X163008028Y-111152786D01*
X162887715Y-111318386D01*
X162794781Y-111500776D01*
X162731522Y-111695465D01*
X162699500Y-111897648D01*
X162699500Y-112102351D01*
X162731522Y-112304534D01*
X162794781Y-112499223D01*
X162887715Y-112681613D01*
X163008028Y-112847213D01*
X163152786Y-112991971D01*
X163307749Y-113104556D01*
X163318390Y-113112287D01*
X163434607Y-113171503D01*
X163500776Y-113205218D01*
X163500778Y-113205218D01*
X163500781Y-113205220D01*
X163605137Y-113239127D01*
X163695465Y-113268477D01*
X163796557Y-113284488D01*
X163897648Y-113300500D01*
X163897649Y-113300500D01*
X164102351Y-113300500D01*
X164102352Y-113300500D01*
X164304534Y-113268477D01*
X164499219Y-113205220D01*
X164681610Y-113112287D01*
X164774590Y-113044732D01*
X164847213Y-112991971D01*
X164847215Y-112991968D01*
X164847219Y-112991966D01*
X164991966Y-112847219D01*
X164991968Y-112847215D01*
X164991971Y-112847213D01*
X165112286Y-112681611D01*
X165144593Y-112618206D01*
X165192567Y-112567409D01*
X165255078Y-112550500D01*
X169244922Y-112550500D01*
X169311961Y-112570185D01*
X169355407Y-112618206D01*
X169387713Y-112681611D01*
X169508028Y-112847213D01*
X169652786Y-112991971D01*
X169807749Y-113104556D01*
X169818390Y-113112287D01*
X169934607Y-113171503D01*
X170000776Y-113205218D01*
X170000778Y-113205218D01*
X170000781Y-113205220D01*
X170105137Y-113239127D01*
X170195465Y-113268477D01*
X170296557Y-113284488D01*
X170397648Y-113300500D01*
X170397649Y-113300500D01*
X170602351Y-113300500D01*
X170602352Y-113300500D01*
X170804534Y-113268477D01*
X170999219Y-113205220D01*
X171181610Y-113112287D01*
X171274590Y-113044732D01*
X171347213Y-112991971D01*
X171347215Y-112991968D01*
X171347219Y-112991966D01*
X171491966Y-112847219D01*
X171491968Y-112847215D01*
X171491971Y-112847213D01*
X171544732Y-112774590D01*
X171612287Y-112681610D01*
X171705220Y-112499219D01*
X171768477Y-112304534D01*
X171800500Y-112102352D01*
X171800500Y-111897648D01*
X171768477Y-111695466D01*
X171705220Y-111500781D01*
X171705218Y-111500778D01*
X171705218Y-111500776D01*
X171644593Y-111381794D01*
X171612287Y-111318390D01*
X171604556Y-111307749D01*
X171491971Y-111152786D01*
X171347213Y-111008028D01*
X171181613Y-110887715D01*
X171181612Y-110887714D01*
X171181610Y-110887713D01*
X171124653Y-110858691D01*
X170999223Y-110794781D01*
X170804534Y-110731522D01*
X170629995Y-110703878D01*
X170602352Y-110699500D01*
X170397648Y-110699500D01*
X170373329Y-110703351D01*
X170195465Y-110731522D01*
X170000776Y-110794781D01*
X169818386Y-110887715D01*
X169652786Y-111008028D01*
X169508028Y-111152786D01*
X169387713Y-111318388D01*
X169355407Y-111381794D01*
X169307433Y-111432591D01*
X169244922Y-111449500D01*
X165255078Y-111449500D01*
X165188039Y-111429815D01*
X165144593Y-111381794D01*
X165112286Y-111318388D01*
X164991971Y-111152786D01*
X164847213Y-111008028D01*
X164681611Y-110887713D01*
X164618204Y-110855405D01*
X164567409Y-110807431D01*
X164550500Y-110744921D01*
X164550500Y-110427527D01*
X164550500Y-110427525D01*
X164512984Y-110287515D01*
X164459958Y-110195671D01*
X164440510Y-110161985D01*
X160338015Y-106059490D01*
X160212485Y-105987016D01*
X160212486Y-105987016D01*
X160177482Y-105977637D01*
X160072475Y-105949500D01*
X136472475Y-105949500D01*
X136327525Y-105949500D01*
X136198993Y-105983940D01*
X136187511Y-105987017D01*
X136061988Y-106059488D01*
X136061982Y-106059493D01*
X135959493Y-106161982D01*
X135959488Y-106161988D01*
X135887017Y-106287511D01*
X135887016Y-106287515D01*
X135849500Y-106427525D01*
X135849500Y-106427527D01*
X135849500Y-108196488D01*
X135829815Y-108263527D01*
X135798385Y-108296806D01*
X135683075Y-108380583D01*
X135683069Y-108380588D01*
X135560588Y-108503069D01*
X135560588Y-108503070D01*
X135560586Y-108503072D01*
X135518871Y-108560488D01*
X135458768Y-108643211D01*
X135380128Y-108797552D01*
X135326597Y-108962302D01*
X135299500Y-109133389D01*
X134960500Y-109133389D01*
X134933402Y-108962299D01*
X134879873Y-108797555D01*
X134801232Y-108643212D01*
X134699414Y-108503072D01*
X134576928Y-108380586D01*
X134436788Y-108278768D01*
X134282445Y-108200127D01*
X134117701Y-108146598D01*
X134117699Y-108146597D01*
X134117698Y-108146597D01*
X133954951Y-108120821D01*
X133946611Y-108119500D01*
X133773389Y-108119500D01*
X133765049Y-108120821D01*
X133602302Y-108146597D01*
X133437552Y-108200128D01*
X133283211Y-108278768D01*
X133203256Y-108336859D01*
X133143072Y-108380586D01*
X133143070Y-108380588D01*
X133143069Y-108380588D01*
X133020588Y-108503069D01*
X133020588Y-108503070D01*
X133020586Y-108503072D01*
X132978871Y-108560488D01*
X132918768Y-108643211D01*
X132840128Y-108797552D01*
X132786597Y-108962302D01*
X132759500Y-109133389D01*
X132420500Y-109133389D01*
X132393402Y-108962299D01*
X132339873Y-108797555D01*
X132261232Y-108643212D01*
X132159414Y-108503072D01*
X132036928Y-108380586D01*
X131896788Y-108278768D01*
X131742445Y-108200127D01*
X131577701Y-108146598D01*
X131577699Y-108146597D01*
X131577698Y-108146597D01*
X131414951Y-108120821D01*
X131406611Y-108119500D01*
X131233389Y-108119500D01*
X131225049Y-108120821D01*
X131062302Y-108146597D01*
X130897552Y-108200128D01*
X130743211Y-108278768D01*
X130663256Y-108336859D01*
X130603072Y-108380586D01*
X130603070Y-108380588D01*
X130603069Y-108380588D01*
X130480588Y-108503069D01*
X130480588Y-108503070D01*
X130480586Y-108503072D01*
X130438871Y-108560488D01*
X130378768Y-108643211D01*
X130300128Y-108797550D01*
X130275736Y-108872622D01*
X130236298Y-108930297D01*
X130171939Y-108957495D01*
X130103092Y-108945580D01*
X130051617Y-108898335D01*
X130039144Y-108870298D01*
X130015814Y-108793387D01*
X129955509Y-108647801D01*
X129908841Y-108560493D01*
X129862465Y-108491086D01*
X129862465Y-108491085D01*
X129262962Y-109090589D01*
X129245925Y-109027007D01*
X129180099Y-108912993D01*
X129087007Y-108819901D01*
X128972993Y-108754075D01*
X128909410Y-108737037D01*
X129508913Y-108137534D01*
X129508912Y-108137533D01*
X129439506Y-108091158D01*
X129352198Y-108044490D01*
X129206612Y-107984185D01*
X129111864Y-107955444D01*
X128957300Y-107924701D01*
X128858790Y-107915000D01*
X128701210Y-107915000D01*
X128602700Y-107924701D01*
X128602697Y-107924701D01*
X128448135Y-107955444D01*
X128353387Y-107984185D01*
X128207801Y-108044490D01*
X128120488Y-108091161D01*
X128051086Y-108137532D01*
X128051085Y-108137533D01*
X128650590Y-108737037D01*
X128587007Y-108754075D01*
X128472993Y-108819901D01*
X128379901Y-108912993D01*
X128314075Y-109027007D01*
X128297037Y-109090589D01*
X127697533Y-108491085D01*
X127697532Y-108491086D01*
X127651161Y-108560488D01*
X127604490Y-108647801D01*
X127544183Y-108793394D01*
X127520854Y-108870299D01*
X127482557Y-108928737D01*
X127418744Y-108957194D01*
X127349677Y-108946633D01*
X127297284Y-108900408D01*
X127284265Y-108872625D01*
X127259873Y-108797555D01*
X127181232Y-108643212D01*
X127079414Y-108503072D01*
X126956928Y-108380586D01*
X126824073Y-108284061D01*
X126824073Y-108284060D01*
X126816790Y-108278769D01*
X126662447Y-108200128D01*
X126662446Y-108200127D01*
X126662445Y-108200127D01*
X126497701Y-108146598D01*
X126497699Y-108146597D01*
X126497698Y-108146597D01*
X126334951Y-108120821D01*
X126326611Y-108119500D01*
X126153389Y-108119500D01*
X126145049Y-108120821D01*
X125982302Y-108146597D01*
X125817552Y-108200128D01*
X125663211Y-108278768D01*
X125583256Y-108336859D01*
X125523072Y-108380586D01*
X125523070Y-108380588D01*
X125523069Y-108380588D01*
X125400588Y-108503069D01*
X125400588Y-108503070D01*
X125400586Y-108503072D01*
X125358871Y-108560488D01*
X125298768Y-108643211D01*
X125220128Y-108797552D01*
X125166597Y-108962302D01*
X125139500Y-109133389D01*
X124800500Y-109133389D01*
X124773402Y-108962299D01*
X124719873Y-108797555D01*
X124641232Y-108643212D01*
X124539414Y-108503072D01*
X124416928Y-108380586D01*
X124276788Y-108278768D01*
X124122445Y-108200127D01*
X123957701Y-108146598D01*
X123957699Y-108146597D01*
X123957698Y-108146597D01*
X123794951Y-108120821D01*
X123786611Y-108119500D01*
X123613389Y-108119500D01*
X123605049Y-108120821D01*
X123442302Y-108146597D01*
X123277552Y-108200128D01*
X123123211Y-108278768D01*
X123043256Y-108336859D01*
X122983072Y-108380586D01*
X122983070Y-108380588D01*
X122983069Y-108380588D01*
X122860588Y-108503069D01*
X122860588Y-108503070D01*
X122860586Y-108503072D01*
X122818871Y-108560488D01*
X122758768Y-108643211D01*
X122680128Y-108797552D01*
X122626597Y-108962302D01*
X122599500Y-109133389D01*
X122260500Y-109133389D01*
X122233402Y-108962299D01*
X122179873Y-108797555D01*
X122101232Y-108643212D01*
X121999414Y-108503072D01*
X121876928Y-108380586D01*
X121736788Y-108278768D01*
X121582445Y-108200127D01*
X121417701Y-108146598D01*
X121417699Y-108146597D01*
X121417698Y-108146597D01*
X121254951Y-108120821D01*
X121246611Y-108119500D01*
X121073389Y-108119500D01*
X121065049Y-108120821D01*
X120902302Y-108146597D01*
X120737552Y-108200128D01*
X120583211Y-108278768D01*
X120503256Y-108336859D01*
X120443072Y-108380586D01*
X120443070Y-108380588D01*
X120443069Y-108380588D01*
X120320588Y-108503069D01*
X120320588Y-108503070D01*
X120320586Y-108503072D01*
X120278871Y-108560488D01*
X120218768Y-108643211D01*
X120140128Y-108797552D01*
X120086597Y-108962302D01*
X120059500Y-109133389D01*
X119720500Y-109133389D01*
X119693402Y-108962299D01*
X119639873Y-108797555D01*
X119561232Y-108643212D01*
X119459414Y-108503072D01*
X119336928Y-108380586D01*
X119196788Y-108278768D01*
X119042445Y-108200127D01*
X118877701Y-108146598D01*
X118877699Y-108146597D01*
X118877698Y-108146597D01*
X118714951Y-108120821D01*
X118706611Y-108119500D01*
X118533389Y-108119500D01*
X118525049Y-108120821D01*
X118362302Y-108146597D01*
X118197552Y-108200128D01*
X118043211Y-108278768D01*
X117963256Y-108336859D01*
X117903072Y-108380586D01*
X117903070Y-108380588D01*
X117903069Y-108380588D01*
X117780588Y-108503069D01*
X117780588Y-108503070D01*
X117780586Y-108503072D01*
X117738871Y-108560488D01*
X117678768Y-108643211D01*
X117600128Y-108797550D01*
X117575736Y-108872622D01*
X117536298Y-108930297D01*
X117471939Y-108957495D01*
X117403092Y-108945580D01*
X117351617Y-108898335D01*
X117339144Y-108870298D01*
X117315814Y-108793387D01*
X117255509Y-108647801D01*
X117208841Y-108560493D01*
X117162465Y-108491086D01*
X117162465Y-108491085D01*
X116562962Y-109090589D01*
X116545925Y-109027007D01*
X116480099Y-108912993D01*
X116387007Y-108819901D01*
X116272993Y-108754075D01*
X116209410Y-108737037D01*
X116808913Y-108137534D01*
X116808912Y-108137533D01*
X116739506Y-108091158D01*
X116652198Y-108044490D01*
X116506612Y-107984185D01*
X116411864Y-107955444D01*
X116257300Y-107924701D01*
X116158790Y-107915000D01*
X116001210Y-107915000D01*
X115902700Y-107924701D01*
X115902697Y-107924701D01*
X115748135Y-107955444D01*
X115653387Y-107984185D01*
X115507801Y-108044490D01*
X115420488Y-108091161D01*
X115351086Y-108137532D01*
X115351085Y-108137533D01*
X115950590Y-108737037D01*
X115887007Y-108754075D01*
X115772993Y-108819901D01*
X115679901Y-108912993D01*
X115614075Y-109027007D01*
X115597037Y-109090589D01*
X114997533Y-108491085D01*
X114997532Y-108491086D01*
X114951161Y-108560488D01*
X114904490Y-108647801D01*
X114844183Y-108793394D01*
X114820854Y-108870299D01*
X114782557Y-108928737D01*
X114718744Y-108957194D01*
X114649677Y-108946633D01*
X114597284Y-108900408D01*
X114584265Y-108872625D01*
X114559873Y-108797555D01*
X114481232Y-108643212D01*
X114379414Y-108503072D01*
X114376818Y-108500476D01*
X114362114Y-108473548D01*
X114345522Y-108447730D01*
X114344630Y-108441529D01*
X114343333Y-108439153D01*
X114340499Y-108412795D01*
X114340499Y-106021155D01*
X114340498Y-106021153D01*
X114309737Y-105866510D01*
X114309736Y-105866503D01*
X114309734Y-105866498D01*
X114249396Y-105720827D01*
X114249389Y-105720814D01*
X114161788Y-105589711D01*
X114161785Y-105589707D01*
X114050291Y-105478213D01*
X114050287Y-105478210D01*
X113919184Y-105390609D01*
X113919171Y-105390602D01*
X113773500Y-105330264D01*
X113773488Y-105330261D01*
X113618844Y-105299500D01*
X113618841Y-105299500D01*
X106978843Y-105299500D01*
X106821158Y-105299500D01*
X106821153Y-105299500D01*
X106666510Y-105330260D01*
X106666502Y-105330262D01*
X106520824Y-105390604D01*
X106520814Y-105390609D01*
X106389711Y-105478210D01*
X106389707Y-105478213D01*
X103989711Y-107878211D01*
X103952922Y-107915000D01*
X103878209Y-107989712D01*
X103790609Y-108120814D01*
X103790602Y-108120827D01*
X103730264Y-108266498D01*
X103730261Y-108266510D01*
X103699500Y-108421153D01*
X103699500Y-129978380D01*
X103679815Y-130045419D01*
X103627011Y-130091174D01*
X103590283Y-130101496D01*
X103518435Y-130110123D01*
X103518431Y-130110124D01*
X103377660Y-130165637D01*
X103377654Y-130165640D01*
X103257076Y-130257076D01*
X103165640Y-130377654D01*
X103165637Y-130377660D01*
X103110123Y-130518433D01*
X103110123Y-130518435D01*
X103099500Y-130606897D01*
X100500500Y-130606897D01*
X100500500Y-103878711D01*
X102149500Y-103878711D01*
X102149500Y-104121288D01*
X102181161Y-104361785D01*
X102243947Y-104596104D01*
X102336773Y-104820205D01*
X102336776Y-104820212D01*
X102458064Y-105030289D01*
X102458066Y-105030292D01*
X102458067Y-105030293D01*
X102605733Y-105222736D01*
X102605739Y-105222743D01*
X102777256Y-105394260D01*
X102777262Y-105394265D01*
X102969711Y-105541936D01*
X103179788Y-105663224D01*
X103403900Y-105756054D01*
X103638211Y-105818838D01*
X103818586Y-105842584D01*
X103878711Y-105850500D01*
X103878712Y-105850500D01*
X104121289Y-105850500D01*
X104169388Y-105844167D01*
X104361789Y-105818838D01*
X104596100Y-105756054D01*
X104820212Y-105663224D01*
X105030289Y-105541936D01*
X105222738Y-105394265D01*
X105394265Y-105222738D01*
X105541936Y-105030289D01*
X105663224Y-104820212D01*
X105756054Y-104596100D01*
X105818838Y-104361789D01*
X105850500Y-104121288D01*
X105850500Y-103878712D01*
X105850500Y-103878711D01*
X174149500Y-103878711D01*
X174149500Y-104121288D01*
X174181161Y-104361785D01*
X174243947Y-104596104D01*
X174336773Y-104820205D01*
X174336776Y-104820212D01*
X174458064Y-105030289D01*
X174458066Y-105030292D01*
X174458067Y-105030293D01*
X174605733Y-105222736D01*
X174605739Y-105222743D01*
X174777256Y-105394260D01*
X174777262Y-105394265D01*
X174969711Y-105541936D01*
X175179788Y-105663224D01*
X175403900Y-105756054D01*
X175638211Y-105818838D01*
X175818586Y-105842584D01*
X175878711Y-105850500D01*
X175878712Y-105850500D01*
X176121289Y-105850500D01*
X176169388Y-105844167D01*
X176361789Y-105818838D01*
X176596100Y-105756054D01*
X176820212Y-105663224D01*
X177030289Y-105541936D01*
X177222738Y-105394265D01*
X177394265Y-105222738D01*
X177541936Y-105030289D01*
X177663224Y-104820212D01*
X177756054Y-104596100D01*
X177818838Y-104361789D01*
X177850500Y-104121288D01*
X177850500Y-103878712D01*
X177818838Y-103638211D01*
X177756054Y-103403900D01*
X177663224Y-103179788D01*
X177541936Y-102969711D01*
X177394265Y-102777262D01*
X177394260Y-102777256D01*
X177222743Y-102605739D01*
X177222736Y-102605733D01*
X177030293Y-102458067D01*
X177030292Y-102458066D01*
X177030289Y-102458064D01*
X176820212Y-102336776D01*
X176820205Y-102336773D01*
X176596104Y-102243947D01*
X176361785Y-102181161D01*
X176121289Y-102149500D01*
X176121288Y-102149500D01*
X175878712Y-102149500D01*
X175878711Y-102149500D01*
X175638214Y-102181161D01*
X175403895Y-102243947D01*
X175179794Y-102336773D01*
X175179785Y-102336777D01*
X174969706Y-102458067D01*
X174777263Y-102605733D01*
X174777256Y-102605739D01*
X174605739Y-102777256D01*
X174605733Y-102777263D01*
X174458067Y-102969706D01*
X174336777Y-103179785D01*
X174336773Y-103179794D01*
X174243947Y-103403895D01*
X174181161Y-103638214D01*
X174149500Y-103878711D01*
X105850500Y-103878711D01*
X105818838Y-103638211D01*
X105756054Y-103403900D01*
X105663224Y-103179788D01*
X105541936Y-102969711D01*
X105394265Y-102777262D01*
X105394260Y-102777256D01*
X105222743Y-102605739D01*
X105222736Y-102605733D01*
X105030293Y-102458067D01*
X105030292Y-102458066D01*
X105030289Y-102458064D01*
X104820212Y-102336776D01*
X104820205Y-102336773D01*
X104596104Y-102243947D01*
X104361785Y-102181161D01*
X104121289Y-102149500D01*
X104121288Y-102149500D01*
X103878712Y-102149500D01*
X103878711Y-102149500D01*
X103638214Y-102181161D01*
X103403895Y-102243947D01*
X103179794Y-102336773D01*
X103179785Y-102336777D01*
X102969706Y-102458067D01*
X102777263Y-102605733D01*
X102777256Y-102605739D01*
X102605739Y-102777256D01*
X102605733Y-102777263D01*
X102458067Y-102969706D01*
X102336777Y-103179785D01*
X102336773Y-103179794D01*
X102243947Y-103403895D01*
X102181161Y-103638214D01*
X102149500Y-103878711D01*
X100500500Y-103878711D01*
X100500500Y-100624500D01*
X100520185Y-100557461D01*
X100572989Y-100511706D01*
X100624500Y-100500500D01*
X179375500Y-100500500D01*
X179442539Y-100520185D01*
G37*
%TD.AperFunction*%
%TD*%
M02*
