M48
; DRILL file KiCad 10.0.5 date 2026-09-01T03:20:48
; FORMAT={-:-/ absolute / metric / decimal}
; #@! TF.CreationDate,2026-09-01T03:20:48+02:00
; #@! TF.GenerationSoftware,Kicad,Pcbnew,10.0.5
; #@! TF.FileFunction,MixedPlating,1,2
FMAT,2
METRIC
; #@! TA.AperFunction,Plated,PTH,ViaDrill
T1C0.400
; #@! TA.AperFunction,Plated,PTH,ComponentDrill
T2C0.710
; #@! TA.AperFunction,Plated,PTH,ComponentDrill
T3C0.800
; #@! TA.AperFunction,Plated,PTH,ComponentDrill
T4C0.900
; #@! TA.AperFunction,Plated,PTH,ComponentDrill
T5C1.000
; #@! TA.AperFunction,Plated,PTH,ComponentDrill
T6C1.100
; #@! TA.AperFunction,Plated,PTH,ComponentDrill
T7C1.300
; #@! TA.AperFunction,NonPlated,NPTH,ComponentDrill
T8C3.200
%
G90
G05
T1
X121.86Y-143.8
X130.6Y-147.9
X137.8Y-145.0
X157.3Y-130.9
T2
X108.0Y-147.0
X113.1Y-148.2
T3
X120.0Y-153.0
X130.16Y-153.0
X136.5Y-153.0
X140.0Y-132.88
X140.0Y-140.5
X142.54Y-132.88
X142.54Y-140.5
X145.08Y-132.88
X145.08Y-140.5
X146.66Y-153.0
X147.62Y-132.88
X147.62Y-140.5
X149.0Y-153.0
X150.16Y-132.88
X150.16Y-140.5
X152.7Y-132.88
X152.7Y-140.5
X155.24Y-132.88
X155.24Y-140.5
X158.3Y-140.5
X159.16Y-153.0
X161.5Y-153.0
X163.3Y-140.5
X171.66Y-153.0
X177.0Y-110.0
X177.0Y-120.16
T4
X177.0Y-123.46
X177.0Y-126.0
T5
X111.0Y-109.22
X111.0Y-127.0
X113.54Y-109.22
X113.54Y-127.0
X116.08Y-109.22
X116.08Y-127.0
X118.62Y-109.22
X118.62Y-127.0
X121.16Y-109.22
X121.16Y-127.0
X123.7Y-109.22
X123.7Y-127.0
X126.24Y-109.22
X126.24Y-127.0
X127.0Y-146.0
X128.78Y-109.22
X128.78Y-127.0
X131.32Y-109.22
X131.32Y-127.0
X132.0Y-146.0
X133.86Y-109.22
X133.86Y-127.0
X136.4Y-109.22
X136.4Y-127.0
X138.94Y-109.22
X138.94Y-127.0
X141.48Y-109.22
X141.48Y-127.0
X144.02Y-109.22
X144.02Y-127.0
X146.56Y-109.22
X146.56Y-127.0
X149.1Y-109.22
X149.1Y-127.0
X151.64Y-109.22
X151.64Y-127.0
X154.18Y-109.22
X154.18Y-127.0
X156.72Y-109.22
X156.72Y-127.0
X159.26Y-109.22
X159.26Y-127.0
T6
X104.5Y-131.5
X104.5Y-141.66
X108.5Y-131.5
X108.5Y-141.66
X164.0Y-112.0
X164.0Y-116.5
X170.5Y-112.0
X170.5Y-116.5
T7
X111.0Y-160.5
X116.08Y-160.5
X124.33Y-160.5
X129.41Y-160.5
X137.66Y-160.5
X142.74Y-160.5
X151.0Y-160.5
X156.08Y-160.5
X164.33Y-160.5
X169.41Y-160.5
T8
X104.0Y-104.0
X104.0Y-164.0
X176.0Y-104.0
X177.0Y-164.0
M30
